<?xml version="1.0" standalone="no"?>
<!DOCTYPE svg PUBLIC "-//W3C//DTD SVG 1.1//EN" "http://www.w3.org/Graphics/SVG/1.1/DTD/svg11.dtd" >
<svg>
<metadata>
Created by FontForge 20110222 at Fri Sep 26 23:56:50 2014
 By deploy user
Copyright 2010 URW++ Design &#38; Development Hamburg
</metadata>
<defs>
<font id="NimbusSanNov-Lig" horiz-adv-x="500" >
  <font-face 
    font-family="NimbusSanNovLig"
    font-weight="300"
    font-stretch="normal"
    units-per-em="1000"
    panose-1="0 0 4 0 0 0 0 0 0 0"
    ascent="667"
    descent="-333"
    x-height="479"
    cap-height="667"
    bbox="-150 -250 1004 896"
    underline-thickness="33"
    underline-position="-63"
    unicode-range="U+0020-FB04"
  />
<missing-glyph horiz-adv-x="250" 
 />
    <glyph glyph-name="ff" unicode="ff" horiz-adv-x="489" 
d="M235 668v-34q-23 4 -38 4q-47 0 -64 -29q-11 -18 -11 -89v-41h100v-33h-100v-446h-38v446h-83v33h83v50q0 67 13 93q26 48 97 48q5 0 41 -2zM476 668v-34q-20 4 -37 4q-47 0 -65 -29q-11 -18 -11 -89v-41h101v-33h-101v-446h-38v446h-83v33h83v50q0 67 13 93q26 48 98 48
q6 0 40 -2z" />
    <glyph glyph-name="fi" unicode="fi" horiz-adv-x="440" 
d="M235 668v-34q-23 4 -38 4q-47 0 -64 -29q-11 -18 -11 -89v-41h100v-33h-100v-446h-38v446h-83v33h83v50q0 67 13 93q26 48 97 48q5 0 41 -2zM363 667v-94h-38v94h38zM363 479v-479h-38v479h38z" />
    <glyph glyph-name="fl" unicode="fl" horiz-adv-x="440" 
d="M235 668v-34q-23 4 -38 4q-47 0 -64 -29q-11 -18 -11 -89v-41h100v-33h-100v-446h-38v446h-83v33h83v50q0 67 13 93q26 48 97 48q5 0 41 -2zM363 667v-667h-38v667h38z" />
    <glyph glyph-name="ffi" unicode="ffi" horiz-adv-x="681" 
d="M235 668v-34q-23 4 -38 4q-47 0 -64 -29q-11 -18 -11 -89v-41h100v-33h-100v-446h-38v446h-83v33h83v50q0 67 13 93q26 48 97 48q5 0 41 -2zM476 668v-34q-20 4 -37 4q-47 0 -65 -29q-11 -18 -11 -89v-41h101v-33h-101v-446h-38v446h-83v33h83v50q0 67 13 93q26 48 98 48
q6 0 40 -2zM604 667v-94h-38v94h38zM604 479v-479h-38v479h38z" />
    <glyph glyph-name="ffl" unicode="ffl" horiz-adv-x="681" 
d="M235 668v-34q-23 4 -38 4q-47 0 -64 -29q-11 -18 -11 -89v-41h100v-33h-100v-446h-38v446h-83v33h83v50q0 67 13 93q26 48 97 48q5 0 41 -2zM476 668v-34q-20 4 -37 4q-47 0 -65 -29q-11 -18 -11 -89v-41h101v-33h-101v-446h-38v446h-83v33h83v50q0 67 13 93q26 48 98 48
q6 0 40 -2zM604 667v-667h-38v667h38z" />
    <glyph glyph-name=".notdef" horiz-adv-x="250" 
 />
    <glyph glyph-name=".null" horiz-adv-x="0" 
 />
    <glyph glyph-name="nonmarkingreturn" horiz-adv-x="333" 
 />
    <glyph glyph-name="space" unicode=" " horiz-adv-x="250" 
 />
    <glyph glyph-name="exclam" unicode="!" horiz-adv-x="241" 
d="M151 667l-7 -498h-27l-7 498h41zM151 91v-91h-40v91h40z" />
    <glyph glyph-name="quotedbl" unicode="&#x22;" horiz-adv-x="279" 
d="M98 400h-33l-5 267h43zM214 400h-33l-5 267h43z" />
    <glyph glyph-name="numbersign" unicode="#" horiz-adv-x="560" 
d="M359 237l-29 -206h-30l29 206h-125l-29 -206h-31l29 206h-120l4 31h120l17 118h-120l4 31h120l27 191h31l-27 -191h125l27 191h31l-27 -191h122l-5 -31h-122l-16 -118h122l-5 -31h-122zM350 386h-125l-17 -118h125z" />
    <glyph glyph-name="dollar" unicode="$" horiz-adv-x="560" 
d="M289 727v-71q91 -5 142 -55t52 -136h-38q-6 147 -156 157v-273q85 -24 113 -35q98 -39 98 -150q0 -83 -55.5 -130t-155.5 -48v-86h-23v87q-101 5 -154.5 62.5t-52.5 158.5h37q0 -85 43.5 -133t126.5 -55v297q-84 22 -120 43q-67 41 -67 133q0 74 49 117t138 46v71h23z
M289 310v-291q83 2 127.5 39t44.5 105q0 86 -83 119q-19 9 -89 28zM266 355v268q-71 -2 -109.5 -36t-38.5 -94q0 -55 28.5 -83.5t104.5 -49.5z" />
    <glyph glyph-name="percent" unicode="%" horiz-adv-x="765" 
d="M601 665l-416 -688h-33l416 688h33zM570 319q65 0 108 -46.5t43 -116.5q0 -75 -43 -122t-111 -47q-67 0 -110 46t-43 119t44 120t112 47zM567 290q-51 0 -85.5 -38.5t-34.5 -96.5q0 -62 34 -101t87 -39q50 0 84.5 40t34.5 98t-34.5 97.5t-85.5 39.5zM199 656
q65 0 108 -46.5t43 -117.5q0 -74 -43 -121t-111 -47t-110.5 46.5t-42.5 120.5q0 73 44 119t112 46zM197 627q-53 0 -87 -38.5t-34 -97.5q0 -61 34 -100t86 -39t86.5 40t34.5 100q0 58 -34 96.5t-86 38.5z" />
    <glyph glyph-name="ampersand" unicode="&#x26;" horiz-adv-x="581" 
d="M454 275h35q0 -76 -34 -142l110 -133h-48l-82 100q-70 -113 -194 -113q-86 0 -141 48.5t-55 124.5q0 58 39.5 105t134.5 103q-57 71 -74 102t-17 64q0 57 40 92.5t104 35.5q60 0 99 -35.5t39 -90.5q0 -62 -54 -113q-24 -23 -85 -64l159 -197q21 49 24 113zM251 385
q123 71 123 149q0 41 -30 68.5t-74 27.5q-47 0 -77 -27t-30 -69q0 -38 38 -86q41 -53 50 -63zM413 127l-174 215q-83 -47 -119.5 -90t-36.5 -92q0 -60 46.5 -101t114.5 -41q52 0 96 28.5t73 80.5z" />
    <glyph glyph-name="quotesingle" unicode="'" horiz-adv-x="163" 
d="M98 400h-33l-5 267h43z" />
    <glyph glyph-name="parenleft" unicode="(" horiz-adv-x="259" 
d="M165 667h33q-54 -89 -84 -200.5t-30 -221.5q0 -217 114 -418h-33q-120 214 -120 420q0 106 32.5 220t87.5 200z" />
    <glyph glyph-name="parenright" unicode=")" horiz-adv-x="259" 
d="M94 -173h-33q54 89 84 200.5t30 221.5q0 217 -114 418h33q120 -214 120 -420q0 -106 -32.5 -220t-87.5 -200z" />
    <glyph glyph-name="asterisk" unicode="*" horiz-adv-x="560" 
d="M418 559l-117 -39l73 -98l-22 -16l-72 99l-75 -97l-22 16l75 96l-115 39l8 25l115 -39v122h27v-122l115 39z" />
    <glyph glyph-name="plus" unicode="+" horiz-adv-x="560" 
d="M54 337h210v211h32v-211h210v-32h-210v-211h-32v211h-210v32z" />
    <glyph glyph-name="comma" unicode="," horiz-adv-x="200" 
d="M124 95v-79q0 -59 -13.5 -89t-47.5 -47v32q34 19 32 88h-18v95h47z" />
    <glyph glyph-name="hyphen" unicode="-" horiz-adv-x="213" 
d="M213 264v-34h-213v34h213z" />
    <glyph glyph-name="period" unicode="." horiz-adv-x="200" 
d="M124 95v-95h-47v95h47z" />
    <glyph glyph-name="slash" unicode="/" horiz-adv-x="407" 
d="M369 667l-374 -840h-34l376 840h32z" />
    <glyph glyph-name="zero" unicode="0" horiz-adv-x="560" 
d="M283 656q58 0 107 -29.5t78 -80.5q46 -86 46 -225q0 -137 -45 -221q-61 -114 -191 -114q-112 0 -172 83.5t-60 241.5q0 165 62 255t175 90zM283 623q-95 0 -146.5 -82t-51.5 -232q0 -139 50.5 -214.5t143.5 -75.5q52 0 94 28t66 78q36 75 36 196q0 143 -50.5 222.5
t-141.5 79.5z" />
    <glyph glyph-name="one" unicode="1" horiz-adv-x="560" 
d="M335 645v-645h-40v575q-66 -72 -171 -82v32q62 11 102.5 38.5t74.5 81.5h34z" />
    <glyph glyph-name="two" unicode="2" horiz-adv-x="560" 
d="M497 34v-34h-431q8 78 49 127t165 132q95 65 131 112.5t36 105.5q0 67 -43.5 106.5t-116.5 39.5q-99 0 -142 -74q-26 -44 -27 -122h-38q3 106 47 161q54 68 162 68q90 0 143.5 -48.5t53.5 -130.5q0 -83 -64 -150q-48 -48 -161 -124q-81 -54 -111.5 -88t-39.5 -81h31h356z
" />
    <glyph glyph-name="three" unicode="3" horiz-adv-x="560" 
d="M106 442h-36q4 104 59 159t155 55q90 0 144.5 -45.5t54.5 -120.5q0 -58 -34 -96.5t-95 -48.5q50 -8 83 -31q64 -44 64 -131q0 -88 -61.5 -142.5t-161.5 -54.5q-103 0 -164 56.5t-61 151.5q0 11 1 19h36v-13q0 -85 50.5 -133t138.5 -48q81 0 132 44.5t51 115.5
q0 149 -195 149q-13 0 -22 -1v33q13 -1 27 -1q82 0 127 34t45 96q0 61 -43.5 97.5t-117.5 36.5q-84 0 -129.5 -46.5t-47.5 -134.5z" />
    <glyph glyph-name="four" unicode="4" horiz-adv-x="560" 
d="M506 199v-34h-106v-165h-37v165h-312v39l311 443h38v-448h106zM363 199v320q0 47 1 82q-27 -44 -45 -69l-194 -276l-42 -57h53h227z" />
    <glyph glyph-name="five" unicode="5" horiz-adv-x="560" 
d="M472 641v-34h-299l-39 -183l-7 -36q0 -3 -8 -35q61 79 163 79q94 0 156.5 -63t62.5 -158q0 -98 -63 -161.5t-160 -63.5q-99 0 -158 56.5t-61 153.5h37q4 -57 22 -91q22 -40 64.5 -63t95.5 -23q80 0 132 54t52 136q0 83 -52 136.5t-133 53.5q-104 0 -162 -88l-36 1l66 329
h327z" />
    <glyph glyph-name="six" unicode="6" horiz-adv-x="560" 
d="M493 485h-38q-11 65 -54.5 101.5t-107.5 36.5q-98 0 -146.5 -83t-51.5 -255q25 67 76.5 103.5t121.5 36.5q91 0 152.5 -62.5t61.5 -155.5q0 -95 -63 -158t-157 -63q-119 0 -181 95q-46 70 -46 217q0 172 60.5 265t173.5 93q82 0 134 -44.5t65 -126.5zM290 392
q-80 0 -132 -52.5t-52 -132.5t52.5 -134t129.5 -54t128.5 53.5t51.5 133.5q0 79 -51 132.5t-127 53.5z" />
    <glyph glyph-name="seven" unicode="7" horiz-adv-x="560" 
d="M500 641v-34q-3 -3 -6 -7l-4.5 -6t-2.5 -2q-33 -36 -34 -37q-103 -117 -163 -263t-65 -292h-41q4 159 82 325.5t200 282.5l-26 -1h-29h-325v34h414z" />
    <glyph glyph-name="eight" unicode="8" horiz-adv-x="560" 
d="M201 349q-59 14 -90 51t-31 93q0 76 53.5 119.5t146.5 43.5q94 0 147 -43t53 -118q0 -56 -31 -94t-89 -52q147 -28 147 -166q0 -91 -60.5 -144t-164.5 -53q-106 0 -167.5 52t-61.5 142q0 68 38.5 112t109.5 57zM281 623q-77 0 -119.5 -34.5t-42.5 -96.5q0 -60 43 -94
t119 -34q75 0 118 34t43 94q0 62 -42 96.5t-119 34.5zM279 333q-88 0 -137.5 -40.5t-49.5 -111.5q0 -76 50.5 -119t138.5 -43q87 0 137 43t50 119q0 71 -50 111.5t-139 40.5z" />
    <glyph glyph-name="nine" unicode="9" horiz-adv-x="560" 
d="M71 153h37q11 -62 55.5 -98t108.5 -36q94 0 144 79.5t50 228.5q0 19 -1 34q-2 -6 -6 -14q-54 -130 -190 -130q-93 0 -154.5 61.5t-61.5 155.5q0 95 62.5 158.5t156.5 63.5q67 0 119 -32.5t79 -91.5q32 -67 32 -192q0 -138 -33 -216q-58 -138 -198 -138q-81 0 -135.5 45.5
t-64.5 121.5zM275 623q-79 0 -131 -53.5t-52 -134.5q0 -80 51.5 -132.5t129.5 -52.5q77 0 129 53.5t52 132.5q0 78 -52.5 132.5t-126.5 54.5z" />
    <glyph glyph-name="colon" unicode=":" horiz-adv-x="217" 
d="M140 95v-95h-47v95h47zM140 463v-95h-47v95h47z" />
    <glyph glyph-name="semicolon" unicode=";" horiz-adv-x="217" 
d="M140 95v-79q0 -59 -13.5 -89t-47.5 -47v32q34 19 32 88h-18v95h47zM140 463v-95h-47v95h47z" />
    <glyph glyph-name="less" unicode="&#x3c;" 
d="M466 547v-43l-387 -170l387 -170v-43l-433 194v38z" />
    <glyph glyph-name="equal" unicode="=" horiz-adv-x="560" 
d="M54 407h452v-33h-452v33zM54 273h452v-32h-452v32z" />
    <glyph glyph-name="greater" unicode="&#x3e;" 
d="M34 121v43l387 170l-387 170v43l433 -194v-38z" />
    <glyph glyph-name="question" unicode="?" horiz-adv-x="493" 
d="M91 460h-36q1 80 30 130q25 43 70.5 67t102.5 24q85 0 138 -46.5t53 -120.5q0 -61 -40 -113q-13 -17 -74 -75q-41 -38 -52 -65t-11 -93h-38q0 72 13.5 105t62.5 77q60 57 80 89.5t20 72.5q0 60 -43 98t-110 38q-101 0 -144 -82q-19 -37 -22 -106zM274 93v-93h-41v93h41z
" />
    <glyph glyph-name="at" unicode="@" horiz-adv-x="741" 
d="M642 166h28q-26 -60 -79 -101q-92 -72 -208 -72q-137 0 -232 95.5t-95 233.5q0 140 97 237.5t236 97.5q125 0 210.5 -78.5t85.5 -194.5q0 -114 -85 -186q-60 -52 -121 -52t-67 58q-52 -56 -109 -56q-44 0 -71 32t-27 84q0 91 57.5 164.5t128.5 73.5q65 0 90 -67l19 52h33
l-81 -235q-9 -27 -9 -43q0 -38 44 -38q50 0 102 49q69 66 69 164q0 106 -77 177t-191 71q-129 0 -217.5 -90t-88.5 -221q0 -128 86.5 -215.5t213.5 -87.5q80 0 150.5 40.5t107.5 107.5zM428 285l23 63q13 36 13 55q0 31 -19.5 53.5t-47.5 22.5q-58 0 -107 -70t-49 -152
q0 -40 18 -63t49 -23q43 0 75 34q24 23 45 80z" />
    <glyph glyph-name="A" unicode="A" horiz-adv-x="601" 
d="M324 667l265 -667h-44l-84 214h-322l-84 -214h-44l270 667h43zM448 249l-122 309q0 1 -16 46l-3 8q0 1 -1 3t-2 6t-2 7q-15 -42 -25 -67l-125 -312h296z" />
    <glyph glyph-name="B" unicode="B" horiz-adv-x="630" 
d="M84 667h265q89 0 138 -30q75 -45 75 -136q0 -58 -35 -99t-93 -52q50 -9 74 -24q37 -22 57.5 -59t20.5 -81q0 -55 -28 -98t-79 -66q-47 -22 -137 -22h-258v667zM125 632v-269h190q95 0 130 17q36 15 56 46.5t20 70.5q0 80 -66 114q-41 21 -117 21h-213zM125 328v-293h214
q98 0 147 32q59 41 59 119q0 142 -201 142h-219z" />
    <glyph glyph-name="C" unicode="C" horiz-adv-x="681" 
d="M603 259h40q-11 -122 -90.5 -198t-198.5 -76q-138 0 -222 95.5t-84 251.5q0 157 86 253.5t225 96.5q107 0 184.5 -61t88.5 -154h-40q-17 82 -81 131t-155 49q-119 0 -193 -87t-74 -227q0 -141 73 -227t192 -86q103 0 169.5 64t79.5 175z" />
    <glyph glyph-name="D" unicode="D" horiz-adv-x="660" 
d="M84 667h225q134 0 209 -69q95 -89 95 -254q0 -176 -94 -269q-40 -40 -89 -57.5t-120 -17.5h-226v667zM125 632v-597h171q70 0 113.5 14t78.5 47q84 81 84 245q0 146 -75 224q-66 67 -190 67h-182z" />
    <glyph glyph-name="E" unicode="E" horiz-adv-x="577" 
d="M533 667v-35h-408v-267h384v-35h-384v-295h413v-35h-454v667h449z" />
    <glyph glyph-name="F" unicode="F" horiz-adv-x="523" 
d="M504 667v-35h-379v-268h340v-35h-340v-329h-41v667h420z" />
    <glyph glyph-name="G" unicode="G" horiz-adv-x="720" 
d="M653 326v-326h-30l-4 162q-28 -85 -94.5 -131t-161.5 -46q-141 0 -228 94.5t-87 246.5q0 159 87 257.5t228 98.5q109 0 185.5 -60.5t93.5 -160.5h-39q-17 84 -83 135t-157 51q-124 0 -199 -87.5t-75 -233.5q0 -137 75.5 -221.5t199.5 -84.5q113 0 183 71.5t70 187.5v12
h-246v35h282z" />
    <glyph glyph-name="H" unicode="H" horiz-adv-x="676" 
d="M592 667v-667h-41v332h-427v-332h-41v667h41v-300h427v300h41z" />
    <glyph glyph-name="I" unicode="I" horiz-adv-x="208" 
d="M125 667v-667h-41v667h41z" />
    <glyph glyph-name="J" unicode="J" horiz-adv-x="459" 
d="M385 667v-486q0 -88 -34 -132q-49 -64 -151 -64q-96 0 -141 48.5t-45 152.5q0 13 1 25h38v-22q0 -73 18 -105q33 -64 130 -64q80 0 117 49q26 34 26 114v484h41z" />
    <glyph glyph-name="K" unicode="K" horiz-adv-x="615" 
d="M600 667l-308 -277l326 -390h-51l-303 363l-139 -126v-237h-41v667h41v-327v-56q20 20 42 40l379 343h54z" />
    <glyph glyph-name="L" unicode="L" horiz-adv-x="520" 
d="M505 35v-35h-421v667h41v-632h380z" />
    <glyph glyph-name="M" unicode="M" horiz-adv-x="811" 
d="M727 667v-667h-41v499q0 80 5 130l-5 -13l-15 -40q-8 -22 -10 -25l-234 -551h-40l-235 545q-9 19 -31 83q4 -97 4 -128v-500h-41v667h58l232 -539q8 -19 14.5 -37.5t12 -31.5t6.5 -17q23 62 32 84l231 541h57z" />
    <glyph glyph-name="N" unicode="N" horiz-adv-x="684" 
d="M601 667v-667h-47l-374 528q-24 38 -36 56q-14 22 -22 36q2 -22 3 -102v-518h-41v667h49l365 -519q42 -63 65 -100q-3 48 -3 128v491h41z" />
    <glyph glyph-name="O" unicode="O" horiz-adv-x="729" 
d="M368 682q138 0 226 -99t88 -254q0 -154 -88 -249t-231 -95q-141 0 -228 96t-87 252q0 157 88 253t232 96zM368 647q-125 0 -202 -86t-77 -227q0 -140 76 -227t199 -87q124 0 200.5 85.5t76.5 224.5t-76.5 228t-196.5 89z" />
    <glyph glyph-name="P" unicode="P" horiz-adv-x="593" 
d="M84 667h260q96 0 143 -31q75 -50 75 -153q0 -88 -55 -137.5t-152 -49.5h-230v-296h-41v667zM125 632v-301h207q80 0 119 22q70 41 70 128q0 85 -60 125q-38 26 -124 26h-212z" />
    <glyph glyph-name="Q" unicode="Q" horiz-adv-x="729" 
d="M684 -5l-21 -26l-110 79q-74 -63 -187 -63q-142 0 -230 95t-88 249q0 157 88 255t230 98q140 0 227.5 -96.5t87.5 -250.5q0 -167 -101 -266zM439 172l111 -80q90 100 90 243q0 139 -76 225.5t-198 86.5q-124 0 -200.5 -87.5t-76.5 -228.5q0 -128 61 -207
q37 -49 94.5 -76.5t121.5 -27.5q89 0 155 51l-104 74z" />
    <glyph glyph-name="R" unicode="R" horiz-adv-x="637" 
d="M81 667h275q91 0 139 -31q74 -48 74 -146q0 -66 -37 -109.5t-105 -57.5q60 -8 93 -41q22 -27 28.5 -55.5t11.5 -115.5q2 -77 15 -102l5 -9h-45q-11 17 -14 103q-4 84 -13 116.5t-34 53.5q-40 33 -145 33h-207v-306h-41v667zM122 632v-291h201q97 0 141 27q64 38 64 120
q0 81 -61 118q-42 26 -124 26h-221z" />
    <glyph glyph-name="S" unicode="S" horiz-adv-x="588" 
d="M526 477h-40q-6 69 -38 107q-54 62 -172 62q-88 0 -137.5 -37t-49.5 -103q0 -76 73 -107q34 -15 162 -44q111 -26 153 -51q66 -41 66 -128q0 -89 -66.5 -139.5t-184.5 -50.5q-156 0 -223 90q-40 55 -41 145h39q2 -98 59.5 -149t167.5 -51q98 0 153 40.5t55 112.5
q0 74 -68 108q-40 18 -155 44q-77 18 -111 29.5t-59 27.5q-61 39 -61 122q0 82 61.5 129t168.5 47q139 0 205 -78q37 -46 43 -126z" />
    <glyph glyph-name="T" unicode="T" horiz-adv-x="540" 
d="M527 667v-35h-236v-632h-41v632h-236v35h513z" />
    <glyph glyph-name="U" unicode="U" horiz-adv-x="663" 
d="M589 667v-408q0 -112 -40 -174q-65 -100 -213 -100q-164 0 -228 111q-34 57 -34 165v406h41v-408q0 -105 39 -161q56 -78 182 -78q121 0 175 78q37 54 37 162v407h41z" />
    <glyph glyph-name="V" unicode="V" horiz-adv-x="570" 
d="M559 667l-248 -667h-48l-252 667h44l200 -534q11 -30 27 -78q2 -7 6 -19q8 29 32 95l198 536h41z" />
    <glyph glyph-name="W" unicode="W" horiz-adv-x="877" 
d="M860 667l-191 -667h-46l-156 526q-16 56 -28 104q-7 -26 -29 -105l-153 -525h-46l-194 667h44l147 -512l8 -31q4 -16 7 -29q8 -28 12 -51q1 5 2.5 10.5t2.5 9t1 4.5q0 3 7 26q0 5 7 28q8 28 9 31l150 514h50l155 -518q3 -14 13 -50t14 -55q3 12 5 21.5t3 13t1.5 6.5
t1.5 5q9 34 16 59l147 518h40z" />
    <glyph glyph-name="X" unicode="X" horiz-adv-x="571" 
d="M548 667l-237 -324l250 -343h-49l-197 269l-13 19q-5 8 -17 24q-6 -8 -7 -9q0 -1 -2 -3.5t-5 -6t-5 -7.5t-7 -11t-6 -8l-195 -267h-48l251 343l-236 324h48l182 -249q1 -1 13 -19q7 -11 18 -27q4 6 17 25l15 22l185 248h45z" />
    <glyph glyph-name="Y" unicode="Y" horiz-adv-x="573" 
d="M578 667l-270 -389v-278h-41v278l-269 389h49l212 -307q5 -8 16 -25t14 -22q1 2 28 45l214 309h47z" />
    <glyph glyph-name="Z" unicode="Z" horiz-adv-x="561" 
d="M528 667v-39l-426 -558q-8 -10 -12 -16q-2 -2 -16 -20q56 1 70 1h393v-35h-507v40l429 560q5 7 13 17l12 16q-36 -1 -59 -1h-366v35h469z" />
    <glyph glyph-name="bracketleft" unicode="[" horiz-adv-x="261" 
d="M207 667v-31h-92v-778h92v-31h-129v840h129z" />
    <glyph glyph-name="backslash" unicode="\" horiz-adv-x="407" 
d="M38 667h32l376 -840h-34z" />
    <glyph glyph-name="bracketright" unicode="]" horiz-adv-x="261" 
d="M54 -173v31h92v778h-92v31h129v-840h-129z" />
    <glyph glyph-name="asciicircum" unicode="^" 
d="M83 386h-44l185 281h51l185 -281h-45l-167 252z" />
    <glyph glyph-name="underscore" unicode="_" 
d="M0 -78h500v-33h-500v33z" />
    <glyph glyph-name="grave" unicode="`" 
d="M178 687l113 -132h-35l-127 132h49z" />
    <glyph glyph-name="a" unicode="a" horiz-adv-x="491" 
d="M475 34v-31q-16 -6 -33 -6q-36 0 -48.5 17t-12.5 68v20q-58 -116 -187 -116q-75 0 -117 35.5t-42 98.5q0 94 90 128q28 11 53.5 14.5t132.5 12.5q41 4 54.5 17t13.5 47q0 60 -27 86q-37 35 -109 35q-133 0 -145 -128h-37q5 78 53.5 119.5t133.5 41.5q56 0 98 -19.5
t59 -53.5q8 -19 10 -37.5t2 -88.5v-215q0 -28 7 -38.5t27 -10.5q9 0 24 4zM379 187v85q-19 -23 -108 -31q-103 -11 -142 -28q-57 -25 -57 -88q0 -49 34 -78t91 -29q79 0 130.5 47.5t51.5 121.5z" />
    <glyph glyph-name="b" unicode="b" horiz-adv-x="553" 
d="M117 667v-301q48 127 183 127q97 0 154 -68.5t57 -184.5q0 -117 -57 -185.5t-155 -68.5q-141 0 -183 129v-115h-38v667h39zM298 460q-84 0 -132.5 -59t-48.5 -161q0 -101 48.5 -161t130.5 -60t129.5 59.5t47.5 160.5q0 100 -47.5 160.5t-127.5 60.5z" />
    <glyph glyph-name="c" unicode="c" horiz-adv-x="501" 
d="M430 169h38q-12 -87 -65.5 -135t-138.5 -48q-116 0 -177 90q-44 67 -44 162q0 116 61 185.5t164 69.5q83 0 134.5 -42.5t61.5 -118.5h-39q-25 128 -157 128q-86 0 -136.5 -60t-50.5 -161q0 -99 49.5 -159.5t131.5 -60.5q69 0 113.5 40t54.5 110z" />
    <glyph glyph-name="d" unicode="d" horiz-adv-x="554" 
d="M476 667v-667h-37v117q-17 -62 -65 -96.5t-117 -34.5q-99 0 -156.5 67.5t-57.5 183.5q0 117 58 186.5t156 69.5q129 0 181 -124v298h38zM262 460q-84 0 -132.5 -59.5t-48.5 -163.5q0 -101 48 -159.5t130 -58.5q83 0 131.5 59t48.5 161q0 100 -45 157q-52 64 -132 64z" />
    <glyph glyph-name="e" unicode="e" horiz-adv-x="510" 
d="M428 164h38q-15 -84 -68.5 -131t-135.5 -47q-100 0 -159.5 68t-59.5 182t60.5 185.5t157.5 71.5q60 0 107.5 -29.5t74.5 -83.5q28 -55 28 -146h-389q1 -101 48.5 -158t131.5 -57q66 0 109 38t57 107zM82 267h350q-3 71 -31 116q-49 77 -140 77q-46 0 -85.5 -22t-61.5 -60
q-24 -40 -32 -111z" />
    <glyph glyph-name="f" unicode="f" horiz-adv-x="248" 
d="M235 668v-34q-23 4 -38 4q-47 0 -64 -29q-11 -18 -11 -89v-41h100v-33h-100v-446h-38v446h-83v33h83v50q0 67 13 93q26 48 97 48q5 0 41 -2z" />
    <glyph glyph-name="g" unicode="g" horiz-adv-x="542" 
d="M464 479v-440q0 -91 -28 -138q-49 -84 -181 -84q-87 0 -136 38t-54 110h38q15 -115 152 -115q90 0 130.5 44.5t40.5 143.5v100q-15 -35 -28 -52q-55 -69 -152 -69q-92 0 -147.5 63t-55.5 169q0 110 57.5 177t152.5 67q62 0 107.5 -32.5t66.5 -91.5v110h37zM256 460
q-80 0 -127.5 -55.5t-47.5 -149.5q0 -95 45.5 -150t123.5 -55q79 0 127 56t48 149q0 92 -46.5 148.5t-122.5 56.5z" />
    <glyph glyph-name="h" unicode="h" horiz-adv-x="531" 
d="M116 667v-240q0 -14 -1 -26q0 -16 -1 -30q50 122 173 122q96 0 143 -70q28 -42 28 -116v-307h-38v301q0 73 -27 107q-39 52 -113 52q-89 0 -134 -77q-30 -50 -30 -140v-243h-38v667h38z" />
    <glyph glyph-name="i" unicode="i" horiz-adv-x="192" 
d="M115 667v-94h-38v94h38zM115 479v-479h-38v479h38z" />
    <glyph glyph-name="j" unicode="j" horiz-adv-x="190" 
d="M113 479v-530q0 -70 -24 -97t-86 -27q-13 0 -22 1v33q9 -1 19 -1q28 0 40 4t21 17q14 21 14 68v532h38zM113 667v-94h-38v94h38z" />
    <glyph glyph-name="k" unicode="k" horiz-adv-x="490" 
d="M463 479l-210 -178l225 -301h-48l-206 274l-108 -92v-182h-38v667h38v-387v-24v-31q14 12 21 19q5 4 10.5 9t6.5 6l258 220h51z" />
    <glyph glyph-name="l" unicode="l" horiz-adv-x="192" 
d="M115 667v-667h-38v667h38z" />
    <glyph glyph-name="m" unicode="m" horiz-adv-x="791" 
d="M116 479v-97q44 111 156 111q108 0 140 -103q49 103 155 103q77 0 120 -51q31 -39 31 -113v-329h-38v325q0 58 -20 87q-31 48 -101 48q-66 0 -103 -43.5t-37 -120.5v-296h-38v317q0 56 -15 85q-28 58 -102 58q-69 0 -108 -50t-39 -137v-273h-39v479h38z" />
    <glyph glyph-name="n" unicode="n" horiz-adv-x="533" 
d="M116 479v-104q49 118 176 118q90 0 137 -61q18 -23 24.5 -50t6.5 -76v-306h-38v297q0 65 -15 96t-48 49t-75 18q-46 0 -83.5 -20.5t-57.5 -57.5q-26 -47 -26 -133v-249h-39v479h38z" />
    <glyph glyph-name="o" unicode="o" horiz-adv-x="531" 
d="M269 493q98 0 158 -70.5t60 -185.5t-60 -183t-162 -68q-101 0 -161.5 69t-60.5 184t61.5 184.5t164.5 69.5zM268 460q-85 0 -136 -60t-51 -161q0 -100 50.5 -160t134.5 -60q83 0 133 59.5t50 158.5q0 100 -50 161.5t-131 61.5z" />
    <glyph glyph-name="p" unicode="p" horiz-adv-x="550" 
d="M116 479v-113q20 61 66.5 94t112.5 33q97 0 155 -69.5t58 -185.5q0 -114 -58.5 -183t-153.5 -69q-67 0 -113.5 32.5t-65.5 91.5v-283h-39v652h38zM294 460q-85 0 -131.5 -58.5t-46.5 -164.5q0 -98 42 -152q50 -66 135 -66q80 0 128.5 59.5t48.5 159.5q0 101 -48 161.5
t-128 60.5z" />
    <glyph glyph-name="q" unicode="q" horiz-adv-x="550" 
d="M472 479v-652h-38v283q-22 -60 -68.5 -92t-111.5 -32q-97 0 -154 68t-57 183q0 117 58.5 186.5t156.5 69.5q67 0 108 -29.5t70 -96.5v112h36zM262 460q-85 0 -133 -59.5t-48 -164.5q0 -100 47.5 -158.5t128.5 -58.5q82 0 130.5 59.5t48.5 159.5q0 102 -47 162t-127 60z
" />
    <glyph glyph-name="r" unicode="r" horiz-adv-x="296" 
d="M302 483v-38h-14q-82 0 -132 -65q-23 -31 -31 -67t-8 -106v-207h-39v479h38v-126q43 133 186 130z" />
    <glyph glyph-name="s" unicode="s" horiz-adv-x="449" 
d="M396 340h-39q-5 62 -40.5 91t-105.5 29q-62 0 -97 -25.5t-35 -70.5q0 -29 16 -47q16 -16 42 -26t95 -26q85 -18 123 -40q56 -32 56 -98q0 -63 -52 -102t-137 -39q-95 0 -145.5 45t-51.5 130h38q1 -55 23 -85q41 -57 136 -57q68 0 109.5 29.5t41.5 77.5q0 40 -32 62.5
t-117 41.5q-97 22 -130 40q-53 29 -53 92q0 61 46 96t127 35q100 0 148 -54q29 -32 34 -99z" />
    <glyph glyph-name="t" unicode="t" horiz-adv-x="251" 
d="M221 479v-33h-104v-324q0 -52 8 -67q14 -26 55 -26q14 0 41 6v-34q-25 -4 -46 -4q-65 0 -84 37q-12 22 -12 103v309h-87v33h87v150h38v-150h104z" />
    <glyph glyph-name="u" unicode="u" horiz-adv-x="529" 
d="M452 479v-479h-37v101q-51 -115 -172 -115q-82 0 -125.5 47.5t-43.5 136.5v309h38v-286q0 -74 16 -106q14 -32 47.5 -50.5t75.5 -18.5q74 0 118.5 54.5t44.5 146.5v260h38z" />
    <glyph glyph-name="v" unicode="v" horiz-adv-x="430" 
d="M425 479l-181 -479h-44l-195 479h42l137 -336q2 -6 38 -105q6 18 19.5 55t18.5 52l126 334h39z" />
    <glyph glyph-name="w" unicode="w" horiz-adv-x="685" 
d="M675 479l-155 -479h-43l-114 364q-14 51 -19 71q-4 -13 -8 -28t-6.5 -24.5t-5.5 -17.5l-114 -365h-44l-155 479h41l111 -350q14 -47 25 -88l11 43q13 46 13 47l109 348h47l108 -350q12 -37 24 -87q12 49 24 85l112 352h39z" />
    <glyph glyph-name="x" unicode="x" horiz-adv-x="437" 
d="M415 479l-174 -226l193 -253h-49l-150 199q-4 5 -18 25q-7 -8 -9 -13q-2 -3 -4 -5.5t-4 -4.5l-1 -2l-150 -199h-45l190 251l-175 228h48l128 -170q4 -4 10 -13q3 -4 13 -17q16 24 21 30l131 170h45z" />
    <glyph glyph-name="y" unicode="y" horiz-adv-x="436" 
d="M432 479l-206 -529q-29 -76 -53 -97q-30 -27 -79 -25l-22 1h-14v34q15 -2 31 -2q31 0 49.5 11t31.5 39q3 6 21 48q2 7 11 26q6 11 6 15v4l-203 475h43l158 -376q5 -11 22 -59q18 56 22 64l142 371h40z" />
    <glyph glyph-name="z" unicode="z" horiz-adv-x="415" 
d="M390 479v-32l-297 -381q-20 -25 -27 -33h41h298v-33h-382v36l295 377q4 6 27 33h-16h-16h-266v33h343z" />
    <glyph glyph-name="braceleft" unicode="{" horiz-adv-x="261" 
d="M111 536v-180q0 -46 -12 -70t-42 -39q30 -16 42 -41.5t12 -73.5v-171q0 -59 23 -83q22 -20 60 -20h10v-31h-7q-67 0 -95 34t-28 116v157q0 44 -12.5 65t-45.5 32v32q32 10 45 31t13 63v175q0 70 30 102.5t94 32.5h6v-32h-10q-43 0 -63 -25q-20 -21 -20 -74z" />
    <glyph glyph-name="bar" unicode="|" 
d="M229 667h42v-834h-42v834z" />
    <glyph glyph-name="braceright" unicode="}" horiz-adv-x="261" 
d="M150 -42v180q0 46 12 70t42 40q-29 15 -41.5 40.5t-12.5 73.5v171q0 59 -23 83q-22 20 -60 20h-10v31h7q67 0 95 -34t28 -116v-157q0 -44 12.5 -65t45.5 -32v-32q-32 -10 -45 -31t-13 -63v-175q0 -70 -30 -102.5t-94 -32.5h-6v32h10q43 0 63 25q20 21 20 74z" />
    <glyph glyph-name="asciitilde" unicode="~" horiz-adv-x="667" 
d="M122 594l-27 20q53 100 129 100q40 0 117 -42q70 -37 102 -37q30 0 53.5 18.5t48.5 62.5l27 -19q-52 -100 -132 -100q-22 0 -45.5 9t-85.5 41q-54 29 -87 29q-29 0 -52 -19t-48 -63z" />
    <glyph glyph-name="uni00A0" unicode="&#xa0;" horiz-adv-x="250" 
 />
    <glyph glyph-name="exclamdown" unicode="&#xa1;" horiz-adv-x="241" 
d="M90 -187l7 498h27l7 -498h-41zM90 388v91h40v-91h-40z" />
    <glyph glyph-name="cent" unicode="&#xa2;" horiz-adv-x="560" 
d="M451 260h37q-8 -79 -61.5 -129.5t-129.5 -50.5v-100h-23v100q-95 6 -149 73t-54 178q0 110 53.5 177t149.5 77v82h23v-82q76 -1 128.5 -46.5t59.5 -115.5h-38q-8 56 -49.5 92t-100.5 38v-442q60 0 103 41.5t51 107.5zM274 111v441q-78 -9 -121 -66.5t-43 -153.5t42 -153
t122 -68z" />
    <glyph glyph-name="sterling" unicode="&#xa3;" horiz-adv-x="560" 
d="M503 435h-37q-3 188 -179 188q-78 0 -126 -38.5t-48 -101.5q0 -45 38 -113q4 -7 10.5 -19.5t13.5 -24.5h149v-23h-136q23 -52 23 -99q0 -59 -40 -115q-13 -19 -57 -63q40 21 57 26t44 5q23 0 41.5 -5t79.5 -27q26 -9 52 -9q31 0 67 17.5t60 45.5l21 -28q-67 -69 -148 -69
q-23 0 -41.5 4.5t-80.5 25.5q-32 12 -65 12q-49 0 -110 -41l-24 33q51 38 79.5 86t28.5 96q0 51 -27 105h-75v23h61q-39 68 -49.5 96t-10.5 63q0 76 59 123.5t154 47.5q106 0 161 -56t55 -165z" />
    <glyph glyph-name="currency" unicode="&#xa4;" horiz-adv-x="667" 
d="M75 115l88 90q-54 67 -54 145q0 76 54 143l-91 90l24 24l90 -89q67 56 147 56t146 -56l91 89l24 -24l-90 -90q53 -66 53 -144t-53 -144l90 -90l-24 -25l-90 91q-66 -54 -146 -54q-76 0 -145 54l-90 -91zM335 538q-79 0 -133.5 -54.5t-54.5 -133.5q0 -77 54.5 -132
t131.5 -55t131.5 55t54.5 132t-54 132.5t-130 55.5z" />
    <glyph glyph-name="yen" unicode="&#xa5;" horiz-adv-x="560" 
d="M205 373l-157 269h45l188 -323l187 323h43l-157 -269h137v-23h-151l-42 -72v-45h173v-23h-173v-210h-37v210h-173v23h173v45l-42 72h-151v23h137z" />
    <glyph glyph-name="brokenbar" unicode="&#xa6;" 
d="M229 667h42v-326h-42v326zM229 153h42v-320h-42v320z" />
    <glyph glyph-name="section" unicode="&#xa7;" horiz-adv-x="560" 
d="M439 493h-37q-5 132 -130 132q-50 0 -81.5 -26.5t-31.5 -67.5q0 -38 25 -63q20 -20 79 -53q120 -67 163 -101q66 -53 66 -118q0 -44 -28.5 -79t-77.5 -52q56 -49 56 -105q0 -59 -44.5 -96t-115.5 -37q-80 0 -125.5 46t-45.5 127h38q3 -140 133 -140q54 0 87.5 27t33.5 71
q0 45 -39 78q-31 25 -115 74q-107 63 -136 91q-45 44 -45 98q0 46 27 81t75 52q-49 40 -49 99q0 56 42.5 91.5t108.5 35.5q79 0 122 -42.5t45 -122.5zM195 413q-48 -23 -69 -48.5t-21 -62.5q0 -47 47 -85q26 -20 170 -106q24 -15 38 -26q95 31 95 106q0 45 -43 83.5
t-171 110.5q-28 16 -46 28z" />
    <glyph glyph-name="dieresis" unicode="&#xa8;" 
d="M352 668v-96h-39v96h39zM188 668v-96h-39v96h39z" />
    <glyph glyph-name="copyright" unicode="&#xa9;" horiz-adv-x="793" 
d="M545 295h30q-6 -72 -54.5 -116t-122.5 -44q-84 0 -135.5 54.5t-51.5 143.5t52.5 144t137.5 55q67 0 113.5 -35.5t53.5 -91.5h-30q-10 47 -47.5 74t-91.5 27q-70 0 -113.5 -48t-43.5 -125t43 -124.5t113 -47.5q62 0 101 35.5t46 98.5zM401 682q141 0 242.5 -103
t101.5 -246q0 -144 -102 -246t-246 -102t-246.5 102t-102.5 246q0 146 102.5 247.5t250.5 101.5zM401 655q-136 0 -229.5 -93.5t-93.5 -228.5q0 -133 93.5 -227t225.5 -94t225 94t93 228q0 131 -93 226t-221 95z" />
    <glyph glyph-name="ordfeminine" unicode="&#xaa;" horiz-adv-x="373" 
d="M335 297h-297v33h297v-33zM317 427v-24q-11 -5 -22 -5q-21 0 -29 9.5t-9 35.5q-22 -28 -44 -39.5t-57 -11.5q-43 0 -68 20.5t-25 56.5q0 53 53 73q24 8 105 15q21 1 28 7t7 23q0 32 -17.5 47t-55.5 15q-37 0 -55 -16.5t-22 -53.5h-28q6 95 109 95q37 0 62.5 -14t31.5 -37
q4 -14 4 -179q0 -21 14 -21q7 0 18 4zM256 505v37q-20 -9 -56 -12q-57 -6 -78 -15q-29 -13 -29 -44q0 -25 17.5 -39.5t48.5 -14.5q43 0 70 24.5t27 63.5z" />
    <glyph glyph-name="guillemotleft" unicode="&#xab;" horiz-adv-x="344" 
d="M158 107l-107 121v36l107 122v-44l-81 -97l81 -91v-47zM279 107l-108 120v36l108 124v-44l-82 -98l82 -94v-44z" />
    <glyph glyph-name="logicalnot" unicode="&#xac;" 
d="M424 0v233h-391v38h433v-271h-42z" />
    <glyph glyph-name="uni00AD" unicode="&#xad;" horiz-adv-x="213" 
d="M213 264v-34h-213v34h213z" />
    <glyph glyph-name="registered" unicode="&#xae;" horiz-adv-x="793" 
d="M257 523h168q64 0 97.5 -26t33.5 -76q0 -68 -71 -93q38 -10 51 -33.5t15 -85.5q2 -41 8 -56l7 -10h-35q-9 12 -10 61q-2 47 -7.5 64.5t-19.5 28.5q-24 18 -85 18h-121v-172h-31v380zM288 497v-156h117q120 0 120 79q0 77 -108 77h-129zM401 682q141 0 242.5 -103
t101.5 -246q0 -144 -102 -246t-246 -102t-246.5 102t-102.5 246q0 146 102.5 247.5t250.5 101.5zM401 655q-136 0 -229.5 -93.5t-93.5 -228.5q0 -133 93.5 -227t225.5 -94t225 94t93 228q0 131 -93 226t-221 95z" />
    <glyph glyph-name="macron" unicode="&#xaf;" 
d="M376 631v-29h-252v29h252z" />
    <glyph glyph-name="degree" unicode="&#xb0;" horiz-adv-x="365" 
d="M184 661q56 0 95.5 -40t39.5 -98q0 -56 -40 -96t-95 -40q-58 0 -98 40t-40 98q0 56 40 96t98 40zM181 631q-43 0 -73.5 -31.5t-30.5 -75.5t31 -75.5t75 -31.5q43 0 74 31t31 74q0 46 -31 77.5t-76 31.5z" />
    <glyph glyph-name="plusminus" unicode="&#xb1;" horiz-adv-x="560" 
d="M54 337h210v211h32v-211h210v-32h-210v-211h-32v211h-210v32zM54 59h452v-32h-452v32z" />
    <glyph glyph-name="twosuperior" unicode="&#xb2;" horiz-adv-x="358" 
d="M315 295v-29h-271q4 50 29 80.5t104 80.5q57 38 78.5 64.5t21.5 59.5q0 38 -25 60t-69 22q-98 0 -99 -115h-31q2 142 131 142q56 0 90 -30t34 -79q0 -44 -27.5 -76.5t-111.5 -87.5q-47 -31 -64.5 -49t-24.5 -43h235z" />
    <glyph glyph-name="threesuperior" unicode="&#xb3;" horiz-adv-x="358" 
d="M77 527h-30q5 133 136 133q56 0 90.5 -28t34.5 -73q0 -63 -64 -85q74 -22 74 -96q0 -53 -39 -86.5t-101 -33.5q-64 0 -102.5 34.5t-38.5 91.5v16h31q-1 -5 -1 -11q0 -49 29.5 -76.5t82.5 -27.5q48 0 78 25.5t30 65.5q0 83 -116 83h-17v27h21q101 0 101 73q0 34 -25.5 54
t-68.5 20q-102 0 -105 -106z" />
    <glyph glyph-name="acute" unicode="&#xb4;" 
d="M368 687l-123 -132h-34l110 132h47z" />
    <glyph glyph-name="mu" unicode="&#xb5;" 
d="M61 -164v643h38v-282q0 -56 8.5 -85t32.5 -52q41 -41 102 -41q71 0 115 53t44 138v269h38v-479h-38v105q-47 -119 -159 -119q-92 0 -143 81v-231h-38z" />
    <glyph glyph-name="paragraph" unicode="&#xb6;" horiz-adv-x="560" 
d="M255 -173v485h-16q-83 1 -134.5 49.5t-51.5 126.5q0 49 22.5 90t61.5 63q47 26 130 26h227v-31h-53v-809h-40v809h-106v-809h-40z" />
    <glyph glyph-name="periodcentered" unicode="&#xb7;" horiz-adv-x="200" 
d="M124 294v-95h-47v95h47z" />
    <glyph glyph-name="cedilla" unicode="&#xb8;" 
d="M267 0l-42 -53q23 4 36 4q32 0 52 -16t20 -42q0 -34 -27 -54t-72 -20q-37 0 -86 18l10 23q40 -17 73 -17q29 0 47 12.5t18 32.5q0 18 -15 29t-38 11q-16 0 -45 -10l-13 12l56 70h26z" />
    <glyph glyph-name="onesuperior" unicode="&#xb9;" horiz-adv-x="358" 
d="M217 654v-387h-32v333q-40 -38 -105 -44v27q39 6 64.5 22.5t45.5 48.5h27z" />
    <glyph glyph-name="ordmasculine" unicode="&#xba;" horiz-adv-x="373" 
d="M335 297h-297v33h297v-33zM189 674q57 0 91.5 -39t34.5 -103t-34.5 -101.5t-93.5 -37.5t-94 38t-35 102q0 65 35.5 103t95.5 38zM188 649q-46 0 -73 -31.5t-27 -84.5q0 -52 27 -83.5t72 -31.5t71.5 31t26.5 83t-26.5 84.5t-70.5 32.5z" />
    <glyph glyph-name="guillemotright" unicode="&#xbb;" horiz-adv-x="344" 
d="M186 386l107 -120v-37l-107 -122v44l81 97l-81 92v46zM65 387l109 -121v-36l-109 -123v43l83 98l-83 95v44z" />
    <glyph glyph-name="onequarter" unicode="&#xbc;" horiz-adv-x="854" 
d="M217 654v-387h-32v333q-40 -38 -105 -44v27q39 6 64.5 22.5t45.5 48.5h27zM645 652l-405 -652h-32l406 652h31zM817 124v-27h-65v-97h-31v97h-190v28l192 263h29v-264h65zM721 124v219l-158 -219h158z" />
    <glyph glyph-name="onehalf" unicode="&#xbd;" horiz-adv-x="854" 
d="M217 654v-387h-32v333q-40 -38 -105 -44v27q39 6 64.5 22.5t45.5 48.5h27zM645 652l-405 -652h-32l406 652h31zM811 29v-29h-271q5 50 29.5 80.5t103.5 80.5q57 37 78.5 64t21.5 60q0 38 -25 60t-69 22q-98 0 -99 -115h-31q2 142 131 142q56 0 90 -30t34 -79
q0 -44 -27.5 -76.5t-111.5 -87.5q-47 -31 -64 -48.5t-25 -43.5h235z" />
    <glyph glyph-name="threequarters" unicode="&#xbe;" horiz-adv-x="854" 
d="M77 527h-30q5 133 136 133q56 0 90.5 -28t34.5 -73q0 -63 -64 -85q74 -22 74 -96q0 -53 -39 -86.5t-101 -33.5q-64 0 -102.5 34.5t-38.5 91.5v16h31q-1 -5 -1 -11q0 -49 29.5 -76.5t82.5 -27.5q48 0 78 25.5t30 65.5q0 83 -116 83h-17v27h21q101 0 101 73q0 34 -25.5 54
t-68.5 20q-102 0 -105 -106zM646 652l-406 -652h-32l406 652h32zM817 124v-27h-65v-97h-31v97h-190v28l192 263h29v-264h65zM721 124v219l-158 -219h158z" />
    <glyph glyph-name="questiondown" unicode="&#xbf;" horiz-adv-x="494" 
d="M403 19h36q0 -80 -30 -130q-25 -43 -70.5 -67t-102.5 -24q-85 0 -138 46.5t-53 120.5q0 61 40 113q16 20 73 75q41 38 52 65t11 93h39q0 -72 -13.5 -104.5t-62.5 -77.5q-60 -56 -80 -88.5t-20 -73.5q0 -60 43 -98t111 -38q100 0 143 82q21 40 22 106zM220 387v92h41v-92
h-41z" />
    <glyph glyph-name="Agrave" unicode="&#xc0;" horiz-adv-x="601" 
d="M324 667l265 -667h-44l-84 214h-322l-84 -214h-44l270 667h43zM448 249l-122 309q0 1 -16 46l-3 8q0 1 -1 3t-2 6t-2 7q-15 -42 -25 -67l-125 -312h296zM167 845h50l123 -122h-36z" />
    <glyph glyph-name="Aacute" unicode="&#xc1;" horiz-adv-x="601" 
d="M324 667l265 -667h-44l-84 214h-322l-84 -214h-44l270 667h43zM448 249l-122 309q0 1 -16 46l-3 8q0 1 -1 3t-2 6t-2 7q-15 -42 -25 -67l-125 -312h296zM440 845l-137 -122h-36l123 122h50z" />
    <glyph glyph-name="Acircumflex" unicode="&#xc2;" horiz-adv-x="601" 
d="M324 667l265 -667h-44l-84 214h-322l-84 -214h-44l270 667h43zM448 249l-122 309q0 1 -16 46l-3 8q0 1 -1 3t-2 6t-2 7q-15 -42 -25 -67l-125 -312h296zM445 723h-42l-104 101l-105 -101h-38l123 125h42z" />
    <glyph glyph-name="Atilde" unicode="&#xc3;" horiz-adv-x="601" 
d="M324 667l265 -667h-44l-84 214h-322l-84 -214h-44l270 667h43zM448 249l-122 309q0 1 -16 46l-3 8q0 1 -1 3t-2 6t-2 7q-15 -42 -25 -67l-125 -312h296zM413 825h27q-16 -81 -72 -81q-26 0 -63 22q-45 28 -63 28q-36 0 -48 -51h-27q16 82 76 82q24 0 63 -23
q42 -26 62 -26q32 0 45 49z" />
    <glyph glyph-name="Adieresis" unicode="&#xc4;" horiz-adv-x="601" 
d="M324 667l265 -667h-44l-84 214h-322l-84 -214h-44l270 667h43zM448 249l-122 309q0 1 -16 46l-3 8q0 1 -1 3t-2 6t-2 7q-15 -42 -25 -67l-125 -312h296zM417 833v-94h-41v94h41zM224 833v-94h-41v94h41z" />
    <glyph glyph-name="Aring" unicode="&#xc5;" horiz-adv-x="601" 
d="M324 667l265 -667h-44l-84 214h-322l-84 -214h-44l270 667h43zM448 249l-122 309q0 1 -16 46l-3 8q0 1 -1 3t-2 6t-2 7q-15 -42 -25 -67l-125 -312h296zM302 896q38 0 65.5 -28t27.5 -67t-27.5 -66.5t-66.5 -27.5t-67 27.5t-28 66.5q0 40 28 67.5t68 27.5zM301 870
q-29 0 -49 -20t-20 -49q0 -28 20.5 -48t48.5 -20t48 20t20 48t-20 48.5t-48 20.5z" />
    <glyph glyph-name="AE" unicode="&#xc6;" horiz-adv-x="854" 
d="M813 667v-35h-354v-267h328v-35h-328v-295h356v-35h-397v238h-245l-124 -238h-46l350 667h460zM418 273v359h-42l-186 -359h228z" />
    <glyph glyph-name="Ccedilla" unicode="&#xc7;" horiz-adv-x="681" 
d="M602 259h41q-10 -119 -91 -196.5t-195 -76.5l-31 -41q21 4 34 4q31 0 51 -16.5t20 -41.5q0 -33 -27.5 -54t-69.5 -21q-37 0 -86 20l10 22q41 -17 73 -17q27 0 45 13t18 33q0 17 -14 28t-37 11q-19 0 -44 -10l-15 12l44 58q-127 10 -203.5 104t-76.5 241q0 155 86.5 253
t223.5 98q106 0 180 -58t94 -157h-41q-18 82 -82 131t-151 49q-119 0 -194 -87.5t-75 -226.5q0 -127 60 -208q77 -106 201 -106q103 0 174.5 68t77.5 172z" />
    <glyph glyph-name="Egrave" unicode="&#xc8;" horiz-adv-x="577" 
d="M533 667v-35h-408v-267h384v-35h-384v-295h413v-35h-454v667h449zM191 845h51l123 -122h-37z" />
    <glyph glyph-name="Eacute" unicode="&#xc9;" horiz-adv-x="577" 
d="M533 667v-35h-408v-267h384v-35h-384v-295h413v-35h-454v667h449zM438 845l-137 -122h-36l123 122h50z" />
    <glyph glyph-name="Ecircumflex" unicode="&#xca;" horiz-adv-x="577" 
d="M533 667v-35h-408v-267h384v-35h-384v-295h413v-35h-454v667h449zM456 723h-42l-104 101l-105 -101h-38l124 125h41z" />
    <glyph glyph-name="Edieresis" unicode="&#xcb;" horiz-adv-x="577" 
d="M533 667v-35h-408v-267h384v-35h-384v-295h413v-35h-454v667h449zM428 833v-94h-41v94h41zM235 833v-94h-41v94h41z" />
    <glyph glyph-name="Igrave" unicode="&#xcc;" horiz-adv-x="208" 
d="M125 667v-667h-41v667h41zM-19 845h50l113 -122h-36z" />
    <glyph glyph-name="Iacute" unicode="&#xcd;" horiz-adv-x="208" 
d="M125 667v-667h-41v667h41zM227 845l-126 -122h-37l113 122h50z" />
    <glyph glyph-name="Icircumflex" unicode="&#xce;" horiz-adv-x="208" 
d="M125 667v-667h-41v667h41zM235 723h-42l-91 101l-91 -101h-38l110 125h41z" />
    <glyph glyph-name="Idieresis" unicode="&#xcf;" horiz-adv-x="208" 
d="M125 667v-667h-41v667h41zM188 833v-94h-41v94h41zM61 833v-94h-41v94h41z" />
    <glyph glyph-name="Eth" unicode="&#xd0;" horiz-adv-x="660" 
d="M84 366v301h226q133 0 208 -69q95 -89 95 -254q0 -176 -93 -269q-76 -75 -210 -75h-226v331h-80v35h80zM125 366h194v-35h-194v-296h172q70 0 113.5 14t77.5 47q84 81 84 244q0 146 -75 224q-65 68 -190 68h-182v-266z" />
    <glyph glyph-name="Ntilde" unicode="&#xd1;" horiz-adv-x="684" 
d="M601 667v-667h-47l-374 528q-24 38 -36 56q-14 22 -22 36q2 -22 3 -102v-518h-41v667h49l365 -519q42 -63 65 -100q-3 48 -3 128v491h41zM451 825h27q-16 -81 -72 -81q-26 0 -63 22q-45 28 -63 28q-36 0 -48 -51h-27q16 82 76 82q24 0 63 -23q42 -26 62 -26q33 0 45 49z
" />
    <glyph glyph-name="Ograve" unicode="&#xd2;" horiz-adv-x="729" 
d="M368 682q138 0 226 -99t88 -254q0 -154 -88 -249t-231 -95q-141 0 -228 96t-87 252q0 157 88 253t232 96zM368 647q-125 0 -202 -86t-77 -227q0 -140 76 -227t199 -87q124 0 200.5 85.5t76.5 224.5t-76.5 228t-196.5 89zM238 845h50l123 -122h-36z" />
    <glyph glyph-name="Oacute" unicode="&#xd3;" horiz-adv-x="729" 
d="M368 682q138 0 226 -99t88 -254q0 -154 -88 -249t-231 -95q-141 0 -228 96t-87 252q0 157 88 253t232 96zM368 647q-125 0 -202 -86t-77 -227q0 -140 76 -227t199 -87q124 0 200.5 85.5t76.5 224.5t-76.5 228t-196.5 89zM491 845l-136 -122h-37l123 122h50z" />
    <glyph glyph-name="Ocircumflex" unicode="&#xd4;" horiz-adv-x="729" 
d="M368 682q138 0 226 -99t88 -254q0 -154 -88 -249t-231 -95q-141 0 -228 96t-87 252q0 157 88 253t232 96zM368 647q-125 0 -202 -86t-77 -227q0 -140 76 -227t199 -87q124 0 200.5 85.5t76.5 224.5t-76.5 228t-196.5 89zM509 723h-42l-104 101l-104 -101h-39l124 125h41z
" />
    <glyph glyph-name="Otilde" unicode="&#xd5;" horiz-adv-x="729" 
d="M368 682q138 0 226 -99t88 -254q0 -154 -88 -249t-231 -95q-141 0 -228 96t-87 252q0 157 88 253t232 96zM368 647q-125 0 -202 -86t-77 -227q0 -140 76 -227t199 -87q124 0 200.5 85.5t76.5 224.5t-76.5 228t-196.5 89zM487 825h27q-15 -81 -71 -81q-27 0 -64 22
q-45 28 -63 28q-36 0 -48 -51h-26q7 39 27 60.5t49 21.5q23 0 62 -23q42 -26 63 -26q32 0 44 49z" />
    <glyph glyph-name="Odieresis" unicode="&#xd6;" horiz-adv-x="729" 
d="M368 682q138 0 226 -99t88 -254q0 -154 -88 -249t-231 -95q-141 0 -228 96t-87 252q0 157 88 253t232 96zM368 647q-125 0 -202 -86t-77 -227q0 -140 76 -227t199 -87q124 0 200.5 85.5t76.5 224.5t-76.5 228t-196.5 89zM481 833v-94h-41v94h41zM288 833v-94h-41v94h41z
" />
    <glyph glyph-name="multiply" unicode="&#xd7;" horiz-adv-x="560" 
d="M106 518l174 -174l174 174l22 -23l-174 -174l174 -174l-22 -22l-174 174l-174 -174l-23 22l174 174l-174 174z" />
    <glyph glyph-name="Oslash" unicode="&#xd8;" horiz-adv-x="729" 
d="M667 644l-65 -70q44 -60 61.5 -115t17.5 -131q0 -152 -88.5 -247.5t-228.5 -95.5q-139 0 -221 88l-70 -76l-20 20l71 77q-41 57 -58.5 111.5t-17.5 127.5q0 156 87 252.5t229 96.5q134 0 219 -88l63 69zM152 124l405 442q-77 81 -194 81q-128 0 -207 -97
q-67 -84 -67 -219q0 -128 63 -207zM576 544l-407 -442q31 -37 84 -59.5t110 -22.5q123 0 200 85.5t77 221.5q0 69 -14 117t-50 100z" />
    <glyph glyph-name="Ugrave" unicode="&#xd9;" horiz-adv-x="663" 
d="M589 667v-408q0 -112 -40 -174q-65 -100 -213 -100q-164 0 -228 111q-34 57 -34 165v406h41v-408q0 -105 39 -161q56 -78 182 -78q121 0 175 78q37 54 37 162v407h41zM212 845h50l123 -122h-37z" />
    <glyph glyph-name="Uacute" unicode="&#xda;" horiz-adv-x="663" 
d="M589 667v-408q0 -112 -40 -174q-65 -100 -213 -100q-164 0 -228 111q-34 57 -34 165v406h41v-408q0 -105 39 -161q56 -78 182 -78q121 0 175 78q37 54 37 162v407h41zM465 845l-137 -122h-36l123 122h50z" />
    <glyph glyph-name="Ucircumflex" unicode="&#xdb;" horiz-adv-x="663" 
d="M589 667v-408q0 -112 -40 -174q-65 -100 -213 -100q-164 0 -228 111q-34 57 -34 165v406h41v-408q0 -105 39 -161q56 -78 182 -78q121 0 175 78q37 54 37 162v407h41zM476 723h-42l-104 101l-104 -101h-39l124 125h41z" />
    <glyph glyph-name="Udieresis" unicode="&#xdc;" horiz-adv-x="663" 
d="M589 667v-408q0 -112 -40 -174q-65 -100 -213 -100q-164 0 -228 111q-34 57 -34 165v406h41v-408q0 -105 39 -161q56 -78 182 -78q121 0 175 78q37 54 37 162v407h41zM448 833v-94h-41v94h41zM255 833v-94h-41v94h41z" />
    <glyph glyph-name="Yacute" unicode="&#xdd;" horiz-adv-x="573" 
d="M578 667l-270 -389v-278h-41v278l-269 389h49l212 -307q5 -8 16 -25t14 -22q1 2 28 45l214 309h47zM420 845l-137 -122h-36l123 122h50z" />
    <glyph glyph-name="Thorn" unicode="&#xde;" horiz-adv-x="596" 
d="M125 192v-192h-41v667h41v-104h219q97 0 143 -31q75 -50 75 -153q0 -88 -55 -137.5t-152 -49.5h-230zM125 528v-301h207q80 0 119 22q70 41 70 128q0 85 -60 125q-38 26 -124 26h-212z" />
    <glyph glyph-name="germandbls" unicode="&#xdf;" horiz-adv-x="502" 
d="M219 -2v32q15 -1 32 -1q86 0 126 41q45 46 45 127q0 108 -77 141q-46 18 -126 18v32h14q74 0 114 34t40 97q0 58 -39 94.5t-100 36.5q-132 0 -132 -149v-501h-38v477q0 95 22 131q21 35 60.5 55t89.5 20q78 0 126.5 -45.5t48.5 -118.5q0 -115 -111 -144q68 -7 107 -54
t39 -123q0 -101 -65 -158q-49 -43 -136 -43q-18 0 -40 1z" />
    <glyph glyph-name="agrave" unicode="&#xe0;" horiz-adv-x="491" 
d="M475 34v-31q-16 -6 -33 -6q-36 0 -48.5 17t-12.5 68v20q-58 -116 -187 -116q-75 0 -117 35.5t-42 98.5q0 94 90 128q28 11 53.5 14.5t132.5 12.5q41 4 54.5 17t13.5 47q0 60 -27 86q-37 35 -109 35q-133 0 -145 -128h-37q5 78 53.5 119.5t133.5 41.5q56 0 98 -19.5
t59 -53.5q8 -19 10 -37.5t2 -88.5v-215q0 -28 7 -38.5t27 -10.5q9 0 24 4zM379 187v85q-19 -23 -108 -31q-103 -11 -142 -28q-57 -25 -57 -88q0 -49 34 -78t91 -29q79 0 130.5 47.5t51.5 121.5zM180 687l113 -132h-34l-128 132h49z" />
    <glyph glyph-name="aacute" unicode="&#xe1;" horiz-adv-x="491" 
d="M475 34v-31q-16 -6 -33 -6q-36 0 -48.5 17t-12.5 68v20q-58 -116 -187 -116q-75 0 -117 35.5t-42 98.5q0 94 90 128q28 11 53.5 14.5t132.5 12.5q41 4 54.5 17t13.5 47q0 60 -27 86q-37 35 -109 35q-133 0 -145 -128h-37q5 78 53.5 119.5t133.5 41.5q56 0 98 -19.5
t59 -53.5q8 -19 10 -37.5t2 -88.5v-215q0 -28 7 -38.5t27 -10.5q9 0 24 4zM379 187v85q-19 -23 -108 -31q-103 -11 -142 -28q-57 -25 -57 -88q0 -49 34 -78t91 -29q79 0 130.5 47.5t51.5 121.5zM364 687l-123 -132h-34l110 132h47z" />
    <glyph glyph-name="acircumflex" unicode="&#xe2;" horiz-adv-x="491" 
d="M475 34v-31q-16 -6 -33 -6q-36 0 -48.5 17t-12.5 68v20q-58 -116 -187 -116q-75 0 -117 35.5t-42 98.5q0 94 90 128q28 11 53.5 14.5t132.5 12.5q41 4 54.5 17t13.5 47q0 60 -27 86q-37 35 -109 35q-133 0 -145 -128h-37q5 78 53.5 119.5t133.5 41.5q56 0 98 -19.5
t59 -53.5q8 -19 10 -37.5t2 -88.5v-215q0 -28 7 -38.5t27 -10.5q9 0 24 4zM379 187v85q-19 -23 -108 -31q-103 -11 -142 -28q-57 -25 -57 -88q0 -49 34 -78t91 -29q79 0 130.5 47.5t51.5 121.5zM374 555h-40l-90 108l-90 -108h-37l109 132h39z" />
    <glyph glyph-name="atilde" unicode="&#xe3;" horiz-adv-x="491" 
d="M475 34v-31q-16 -6 -33 -6q-36 0 -48.5 17t-12.5 68v20q-58 -116 -187 -116q-75 0 -117 35.5t-42 98.5q0 94 90 128q28 11 53.5 14.5t132.5 12.5q41 4 54.5 17t13.5 47q0 60 -27 86q-37 35 -109 35q-133 0 -145 -128h-37q5 78 53.5 119.5t133.5 41.5q56 0 98 -19.5
t59 -53.5q8 -19 10 -37.5t2 -88.5v-215q0 -28 7 -38.5t27 -10.5q9 0 24 4zM379 187v85q-19 -23 -108 -31q-103 -11 -142 -28q-57 -25 -57 -88q0 -49 34 -78t91 -29q79 0 130.5 47.5t51.5 121.5zM342 659h26q-4 -37 -21.5 -59t-42.5 -22t-57 22q-29 20 -37 24t-19 4
q-35 0 -41 -51h-27q5 38 23.5 60t45.5 22q22 0 56 -23q39 -27 56 -27q30 0 38 50z" />
    <glyph glyph-name="adieresis" unicode="&#xe4;" horiz-adv-x="491" 
d="M475 34v-31q-16 -6 -33 -6q-36 0 -48.5 17t-12.5 68v20q-58 -116 -187 -116q-75 0 -117 35.5t-42 98.5q0 94 90 128q28 11 53.5 14.5t132.5 12.5q41 4 54.5 17t13.5 47q0 60 -27 86q-37 35 -109 35q-133 0 -145 -128h-37q5 78 53.5 119.5t133.5 41.5q56 0 98 -19.5
t59 -53.5q8 -19 10 -37.5t2 -88.5v-215q0 -28 7 -38.5t27 -10.5q9 0 24 4zM379 187v85q-19 -23 -108 -31q-103 -11 -142 -28q-57 -25 -57 -88q0 -49 34 -78t91 -29q79 0 130.5 47.5t51.5 121.5zM347 668v-96h-39v96h39zM183 668v-96h-39v96h39z" />
    <glyph glyph-name="aring" unicode="&#xe5;" horiz-adv-x="491" 
d="M475 34v-31q-16 -6 -33 -6q-36 0 -48.5 17t-12.5 68v20q-58 -116 -187 -116q-75 0 -117 35.5t-42 98.5q0 94 90 128q28 11 53.5 14.5t132.5 12.5q41 4 54.5 17t13.5 47q0 60 -27 86q-37 35 -109 35q-133 0 -145 -128h-37q5 78 53.5 119.5t133.5 41.5q56 0 98 -19.5
t59 -53.5q8 -19 10 -37.5t2 -88.5v-215q0 -28 7 -38.5t27 -10.5q9 0 24 4zM379 187v85q-19 -23 -108 -31q-103 -11 -142 -28q-57 -25 -57 -88q0 -49 34 -78t91 -29q79 0 130.5 47.5t51.5 121.5zM247 713q34 0 59 -25.5t25 -60.5t-25 -60t-60 -25t-60.5 25t-25.5 60
q0 36 25 61t62 25zM247 689q-26 0 -44.5 -18t-18.5 -44q0 -25 18.5 -43t43.5 -18q26 0 44 18t18 43t-18 43.5t-43 18.5z" />
    <glyph glyph-name="ae" unicode="&#xe6;" horiz-adv-x="843" 
d="M760 161h37q-16 -84 -70 -129.5t-137 -45.5q-144 0 -191 143q-20 -63 -78 -103t-129 -40q-73 0 -116.5 38t-43.5 101t42 100q41 37 152 45q77 6 106 11.5t39 16t10 36.5q0 65 -33.5 95.5t-106.5 30.5q-141 0 -151 -129h-37q14 162 188 162q93 0 135 -42q25 -25 33 -82
q48 124 183 124q97 0 154 -64.5t57 -173.5v-21h-386q-1 -102 45 -159t130 -57q138 0 168 143zM416 267h349q-1 88 -48 140.5t-124 52.5q-102 0 -150 -84q-21 -39 -27 -109zM381 232v40q-14 -14 -33 -19t-71 -9q-94 -6 -132 -18q-74 -26 -74 -100q0 -49 34.5 -78t92.5 -29
q94 0 148 72q21 27 28 55.5t7 85.5z" />
    <glyph glyph-name="ccedilla" unicode="&#xe7;" horiz-adv-x="501" 
d="M431 169h37q-8 -81 -63 -130.5t-137 -50.5h-7l-32 -41q23 4 36 4q31 0 51 -16t20 -42q0 -34 -27 -54t-71 -20q-37 0 -86 18l10 23q40 -17 73 -17q29 0 47 12.5t18 32.5q0 18 -15 29t-38 11q-16 0 -45 -10l-14 12l46 58q-77 11 -120 56q-33 32 -52 84t-19 109
q0 117 61 187t164 70q96 0 156 -66q32 -36 40 -95h-38q-26 128 -159 128q-85 0 -135.5 -59.5t-50.5 -160.5t49 -161.5t132 -60.5q70 0 114 39t55 111z" />
    <glyph glyph-name="egrave" unicode="&#xe8;" horiz-adv-x="510" 
d="M428 164h38q-15 -84 -68.5 -131t-135.5 -47q-100 0 -159.5 68t-59.5 182t60.5 185.5t157.5 71.5q60 0 107.5 -29.5t74.5 -83.5q28 -55 28 -146h-389q1 -101 48.5 -158t131.5 -57q66 0 109 38t57 107zM82 267h350q-3 71 -31 116q-49 77 -140 77q-46 0 -85.5 -22t-61.5 -60
q-24 -40 -32 -111zM189 687l113 -132h-34l-128 132h49z" />
    <glyph glyph-name="eacute" unicode="&#xe9;" horiz-adv-x="510" 
d="M428 164h38q-15 -84 -68.5 -131t-135.5 -47q-100 0 -159.5 68t-59.5 182t60.5 185.5t157.5 71.5q60 0 107.5 -29.5t74.5 -83.5q28 -55 28 -146h-389q1 -101 48.5 -158t131.5 -57q66 0 109 38t57 107zM82 267h350q-3 71 -31 116q-49 77 -140 77q-46 0 -85.5 -22t-61.5 -60
q-24 -40 -32 -111zM373 687l-123 -132h-34l110 132h47z" />
    <glyph glyph-name="ecircumflex" unicode="&#xea;" horiz-adv-x="510" 
d="M428 164h38q-15 -84 -68.5 -131t-135.5 -47q-100 0 -159.5 68t-59.5 182t60.5 185.5t157.5 71.5q60 0 107.5 -29.5t74.5 -83.5q28 -55 28 -146h-389q1 -101 48.5 -158t131.5 -57q66 0 109 38t57 107zM82 267h350q-3 71 -31 116q-49 77 -140 77q-46 0 -85.5 -22t-61.5 -60
q-24 -40 -32 -111zM390 555h-41l-89 108l-90 -108h-37l108 132h40z" />
    <glyph glyph-name="edieresis" unicode="&#xeb;" horiz-adv-x="510" 
d="M428 164h38q-15 -84 -68.5 -131t-135.5 -47q-100 0 -159.5 68t-59.5 182t60.5 185.5t157.5 71.5q60 0 107.5 -29.5t74.5 -83.5q28 -55 28 -146h-389q1 -101 48.5 -158t131.5 -57q66 0 109 38t57 107zM82 267h350q-3 71 -31 116q-49 77 -140 77q-46 0 -85.5 -22t-61.5 -60
q-24 -40 -32 -111zM363 668v-96h-39v96h39zM199 668v-96h-39v96h39z" />
    <glyph glyph-name="igrave" unicode="&#xec;" horiz-adv-x="192" 
d="M115 479v-479h-38v479h38zM27 687l103 -132h-35l-117 132h49z" />
    <glyph glyph-name="iacute" unicode="&#xed;" horiz-adv-x="192" 
d="M116 479v-479h-38v479h38zM211 687l-113 -132h-34l100 132h47z" />
    <glyph glyph-name="icircumflex" unicode="&#xee;" horiz-adv-x="192" 
d="M115 479v-479h-38v479h38zM204 555h-40l-70 108l-70 -108h-37l89 132h39z" />
    <glyph glyph-name="idieresis" unicode="&#xef;" horiz-adv-x="192" 
d="M115 479v-479h-38v479h38zM170 668v-96h-39v96h39zM60 668v-96h-39v96h39z" />
    <glyph glyph-name="eth" unicode="&#xf0;" horiz-adv-x="531" 
d="M208 554l81 36l-46 80l28 14l50 -80l89 38l12 -27l-86 -37l84 -132q38 -61 52.5 -106.5t14.5 -102.5q0 -116 -59.5 -183.5t-160.5 -67.5q-102 0 -163 69t-61 185q0 113 61.5 183t161.5 70q38 0 89 -16l-50 87l-85 -36zM269 460q-85 0 -136 -60t-51 -161t50 -160.5
t135 -59.5q83 0 132.5 59.5t49.5 158.5q0 100 -49.5 161.5t-130.5 61.5z" />
    <glyph glyph-name="ntilde" unicode="&#xf1;" horiz-adv-x="533" 
d="M116 479v-104q49 118 176 118q90 0 137 -61q18 -23 24.5 -50t6.5 -76v-306h-38v297q0 65 -15 96t-48 49t-75 18q-46 0 -83.5 -20.5t-57.5 -57.5q-26 -47 -26 -133v-249h-39v479h38zM363 659h26q-4 -37 -21.5 -59t-42.5 -22t-57 22q-28 20 -37 24t-19 4q-35 0 -41 -51h-27
q5 38 23.5 60t45.5 22q21 0 56 -23q39 -27 56 -27q30 0 38 50z" />
    <glyph glyph-name="ograve" unicode="&#xf2;" horiz-adv-x="531" 
d="M269 493q98 0 158 -70.5t60 -185.5t-60 -183t-162 -68q-101 0 -161.5 69t-60.5 184t61.5 184.5t164.5 69.5zM268 460q-85 0 -136 -60t-51 -161q0 -100 50.5 -160t134.5 -60q83 0 133 59.5t50 158.5q0 100 -50 161.5t-131 61.5zM196 687l113 -132h-34l-128 132h49z" />
    <glyph glyph-name="oacute" unicode="&#xf3;" horiz-adv-x="531" 
d="M269 493q98 0 158 -70.5t60 -185.5t-60 -183t-162 -68q-101 0 -161.5 69t-60.5 184t61.5 184.5t164.5 69.5zM268 460q-85 0 -136 -60t-51 -161q0 -100 50.5 -160t134.5 -60q83 0 133 59.5t50 158.5q0 100 -50 161.5t-131 61.5zM384 687l-124 -132h-34l110 132h48z" />
    <glyph glyph-name="ocircumflex" unicode="&#xf4;" horiz-adv-x="531" 
d="M269 493q98 0 158 -70.5t60 -185.5t-60 -183t-162 -68q-101 0 -161.5 69t-60.5 184t61.5 184.5t164.5 69.5zM268 460q-85 0 -136 -60t-51 -161q0 -100 50.5 -160t134.5 -60q83 0 133 59.5t50 158.5q0 100 -50 161.5t-131 61.5zM394 555h-41l-90 108l-89 -108h-38l109 132
h39z" />
    <glyph glyph-name="otilde" unicode="&#xf5;" horiz-adv-x="531" 
d="M269 493q98 0 158 -70.5t60 -185.5t-60 -183t-162 -68q-101 0 -161.5 69t-60.5 184t61.5 184.5t164.5 69.5zM268 460q-85 0 -136 -60t-51 -161q0 -100 50.5 -160t134.5 -60q83 0 133 59.5t50 158.5q0 100 -50 161.5t-131 61.5zM368 659h26q-4 -37 -21.5 -59t-42.5 -22
t-57 22q-29 20 -37 24t-19 4q-35 0 -41 -51h-27q5 38 23.5 60t45.5 22q22 0 56 -23q39 -27 56 -27q30 0 38 50z" />
    <glyph glyph-name="odieresis" unicode="&#xf6;" horiz-adv-x="531" 
d="M269 493q98 0 158 -70.5t60 -185.5t-60 -183t-162 -68q-101 0 -161.5 69t-60.5 184t61.5 184.5t164.5 69.5zM268 460q-85 0 -136 -60t-51 -161q0 -100 50.5 -160t134.5 -60q83 0 133 59.5t50 158.5q0 100 -50 161.5t-131 61.5zM366 668v-96h-39v96h39zM203 668v-96h-39
v96h39z" />
    <glyph glyph-name="divide" unicode="&#xf7;" horiz-adv-x="560" 
d="M54 338h452v-32h-452v32zM282 497q14 0 24 -10.5t10 -24.5t-10.5 -24.5t-24.5 -10.5t-24.5 10.5t-10.5 24.5q0 15 10.5 25t25.5 10zM281 216q14 0 24.5 -10.5t10.5 -24.5q0 -15 -10.5 -25.5t-24.5 -10.5q-15 0 -25.5 10.5t-10.5 25.5q0 14 10.5 24.5t25.5 10.5z" />
    <glyph glyph-name="oslash" unicode="&#xf8;" horiz-adv-x="531" 
d="M490 458l-50 -53q47 -66 47 -164q0 -118 -59 -186.5t-160 -68.5q-98 0 -162 68l-51 -54l-18 18l55 57q-49 68 -49 165q0 113 61.5 183t161.5 70q94 0 158 -67l49 50zM117 101l283 299q-33 33 -63 46.5t-71 13.5q-84 0 -134.5 -60.5t-50.5 -161.5q0 -76 36 -137zM414 379
l-282 -299q19 -28 55.5 -44.5t80.5 -16.5q84 0 132.5 58t48.5 159q0 83 -35 143z" />
    <glyph glyph-name="ugrave" unicode="&#xf9;" horiz-adv-x="529" 
d="M452 479v-479h-37v101q-51 -115 -172 -115q-82 0 -125.5 47.5t-43.5 136.5v309h38v-286q0 -74 16 -106q14 -32 47.5 -50.5t75.5 -18.5q74 0 118.5 54.5t44.5 146.5v260h38zM195 687l113 -132h-34l-128 132h49z" />
    <glyph glyph-name="uacute" unicode="&#xfa;" horiz-adv-x="529" 
d="M452 479v-479h-37v101q-51 -115 -172 -115q-82 0 -125.5 47.5t-43.5 136.5v309h38v-286q0 -74 16 -106q14 -32 47.5 -50.5t75.5 -18.5q74 0 118.5 54.5t44.5 146.5v260h38zM383 687l-124 -132h-34l110 132h48z" />
    <glyph glyph-name="ucircumflex" unicode="&#xfb;" horiz-adv-x="529" 
d="M452 479v-479h-37v101q-51 -115 -172 -115q-82 0 -125.5 47.5t-43.5 136.5v309h38v-286q0 -74 16 -106q14 -32 47.5 -50.5t75.5 -18.5q74 0 118.5 54.5t44.5 146.5v260h38zM393 555h-41l-90 108l-89 -108h-38l109 132h39z" />
    <glyph glyph-name="udieresis" unicode="&#xfc;" horiz-adv-x="529" 
d="M452 479v-479h-37v101q-51 -115 -172 -115q-82 0 -125.5 47.5t-43.5 136.5v309h38v-286q0 -74 16 -106q14 -32 47.5 -50.5t75.5 -18.5q74 0 118.5 54.5t44.5 146.5v260h38zM365 668v-96h-39v96h39zM202 668v-96h-39v96h39z" />
    <glyph glyph-name="yacute" unicode="&#xfd;" horiz-adv-x="436" 
d="M432 479l-206 -529q-29 -76 -53 -97q-30 -27 -79 -25l-22 1h-14v34q15 -2 31 -2q31 0 49.5 11t31.5 39q3 6 21 48q2 7 11 26q6 11 6 15v4l-203 475h43l158 -376q5 -11 22 -59q18 56 22 64l142 371h40zM344 687l-124 -132h-34l110 132h48z" />
    <glyph glyph-name="thorn" unicode="&#xfe;" horiz-adv-x="550" 
d="M117 667v-301q47 127 178 127q97 0 155 -69.5t58 -185.5q0 -114 -58.5 -183t-153.5 -69q-67 0 -113.5 32.5t-65.5 91.5v-283h-39v840h39zM294 460q-85 0 -131.5 -58.5t-46.5 -165.5q0 -100 48 -158.5t130 -58.5q80 0 128 59.5t48 159.5q0 101 -48 161.5t-128 60.5z" />
    <glyph glyph-name="ydieresis" unicode="&#xff;" horiz-adv-x="436" 
d="M432 479l-206 -529q-29 -76 -53 -97q-30 -27 -79 -25l-22 1h-14v34q15 -2 31 -2q31 0 49.5 11t31.5 39q3 6 21 48q2 7 11 26q6 11 6 15v4l-203 475h43l158 -376q5 -11 22 -59q18 56 22 64l142 371h40zM320 668v-96h-39v96h39zM156 668v-96h-39v96h39z" />
    <glyph glyph-name="Amacron" unicode="&#x100;" horiz-adv-x="601" 
d="M324 667l265 -667h-44l-84 214h-322l-84 -214h-44l270 667h43zM448 249l-122 309q0 1 -16 46l-3 8q0 1 -1 3t-2 6t-2 7q-15 -42 -25 -67l-125 -312h296zM445 797v-31h-283v31h283z" />
    <glyph glyph-name="amacron" unicode="&#x101;" horiz-adv-x="491" 
d="M475 34v-31q-16 -6 -33 -6q-36 0 -48.5 17t-12.5 68v20q-58 -116 -187 -116q-75 0 -117 35.5t-42 98.5q0 94 90 128q28 11 53.5 14.5t132.5 12.5q41 4 54.5 17t13.5 47q0 60 -27 86q-37 35 -109 35q-133 0 -145 -128h-37q5 78 53.5 119.5t133.5 41.5q56 0 98 -19.5
t59 -53.5q8 -19 10 -37.5t2 -88.5v-215q0 -28 7 -38.5t27 -10.5q9 0 24 4zM379 187v85q-19 -23 -108 -31q-103 -11 -142 -28q-57 -25 -57 -88q0 -49 34 -78t91 -29q79 0 130.5 47.5t51.5 121.5zM372 631v-29h-252v29h252z" />
    <glyph glyph-name="Abreve" unicode="&#x102;" horiz-adv-x="601" 
d="M324 667l265 -667h-44l-84 214h-322l-84 -214h-44l270 667h43zM448 249l-122 309q0 1 -16 46l-3 8q0 1 -1 3t-2 6t-2 7q-15 -42 -25 -67l-125 -312h296zM401 841h31q-9 -53 -43.5 -82t-88.5 -29q-55 0 -91 30.5t-40 80.5h30q17 -80 102 -80q83 0 100 80z" />
    <glyph glyph-name="abreve" unicode="&#x103;" horiz-adv-x="491" 
d="M475 34v-31q-16 -6 -33 -6q-36 0 -48.5 17t-12.5 68v20q-58 -116 -187 -116q-75 0 -117 35.5t-42 98.5q0 94 90 128q28 11 53.5 14.5t132.5 12.5q41 4 54.5 17t13.5 47q0 60 -27 86q-37 35 -109 35q-133 0 -145 -128h-37q5 78 53.5 119.5t133.5 41.5q56 0 98 -19.5
t59 -53.5q8 -19 10 -37.5t2 -88.5v-215q0 -28 7 -38.5t27 -10.5q9 0 24 4zM379 187v85q-19 -23 -108 -31q-103 -11 -142 -28q-57 -25 -57 -88q0 -49 34 -78t91 -29q79 0 130.5 47.5t51.5 121.5zM337 674h29q-9 -53 -40.5 -81.5t-80.5 -28.5t-81.5 30t-37.5 80h28
q15 -79 93 -79q73 0 90 79z" />
    <glyph glyph-name="Aogonek" unicode="&#x104;" horiz-adv-x="601" 
d="M324 667l265 -667q-55 -42 -55 -83q0 -25 19 -40t51 -15q19 0 45 10v-29q-29 -10 -54 -10q-42 0 -68 21.5t-26 56.5q0 47 53 89h-9l-84 214h-322l-84 -214h-44l270 667h43zM448 249l-122 309q0 1 -16 46l-3 8q0 1 -1 3t-2 6t-2 7q-15 -42 -25 -67l-125 -312h296z" />
    <glyph glyph-name="aogonek" unicode="&#x105;" horiz-adv-x="491" 
d="M475 34v-31q-13 -4 -24 -5q-53 -42 -53 -81q0 -25 19 -40t51 -15q20 0 45 10v-29q-29 -10 -53 -10q-43 0 -69 21.5t-26 56.5q0 47 53 89q-24 7 -30.5 25t-6.5 77q-58 -116 -187 -116q-75 0 -117 35.5t-42 98.5q0 94 90 128q28 11 53.5 14.5t132.5 12.5q41 4 54.5 17
t13.5 47q0 60 -27 86q-37 35 -109 35q-133 0 -145 -128h-37q5 78 53.5 119.5t133.5 41.5q56 0 98 -19.5t59 -53.5q8 -19 10 -37.5t2 -88.5v-215q0 -28 7 -38.5t27 -10.5q9 0 24 4zM379 187v85q-19 -23 -108 -31q-103 -11 -142 -28q-57 -25 -57 -88q0 -49 34 -78t91 -29
q79 0 130.5 47.5t51.5 121.5z" />
    <glyph glyph-name="Cacute" unicode="&#x106;" horiz-adv-x="681" 
d="M603 259h40q-11 -122 -90.5 -198t-198.5 -76q-138 0 -222 95.5t-84 251.5q0 157 86 253.5t225 96.5q107 0 184.5 -61t88.5 -154h-40q-17 82 -81 131t-155 49q-119 0 -193 -87t-74 -227q0 -141 73 -227t192 -86q103 0 169.5 64t79.5 175zM480 845l-137 -122h-36l123 122
h50z" />
    <glyph glyph-name="cacute" unicode="&#x107;" horiz-adv-x="501" 
d="M430 169h38q-12 -87 -65.5 -135t-138.5 -48q-116 0 -177 90q-44 67 -44 162q0 116 61 185.5t164 69.5q83 0 134.5 -42.5t61.5 -118.5h-39q-25 128 -157 128q-86 0 -136.5 -60t-50.5 -161q0 -99 49.5 -159.5t131.5 -60.5q69 0 113.5 40t54.5 110zM382 687l-123 -132h-34
l110 132h47z" />
    <glyph glyph-name="Ccircumflex" unicode="&#x108;" horiz-adv-x="681" 
d="M603 259h40q-11 -122 -90.5 -198t-198.5 -76q-138 0 -222 95.5t-84 251.5q0 157 86 253.5t225 96.5q107 0 184.5 -61t88.5 -154h-40q-17 82 -81 131t-155 49q-119 0 -193 -87t-74 -227q0 -141 73 -227t192 -86q103 0 169.5 64t79.5 175zM498 723h-42l-104 101l-105 -101
h-38l124 125h41z" />
    <glyph glyph-name="Cdotaccent" unicode="&#x10a;" horiz-adv-x="681" 
d="M603 259h40q-11 -122 -90.5 -198t-198.5 -76q-138 0 -222 95.5t-84 251.5q0 157 86 253.5t225 96.5q107 0 184.5 -61t88.5 -154h-40q-17 82 -81 131t-155 49q-119 0 -193 -87t-74 -227q0 -141 73 -227t192 -86q103 0 169.5 64t79.5 175zM374 833v-94h-41v94h41z" />
    <glyph glyph-name="cdotaccent" unicode="&#x10b;" horiz-adv-x="501" 
d="M430 169h38q-12 -87 -65.5 -135t-138.5 -48q-116 0 -177 90q-44 67 -44 162q0 116 61 185.5t164 69.5q83 0 134.5 -42.5t61.5 -118.5h-39q-25 128 -157 128q-86 0 -136.5 -60t-50.5 -161q0 -99 49.5 -159.5t131.5 -60.5q69 0 113.5 40t54.5 110zM282 668v-96h-39v96h39z
" />
    <glyph glyph-name="Ccaron" unicode="&#x10c;" horiz-adv-x="681" 
d="M603 259h40q-11 -122 -90.5 -198t-198.5 -76q-138 0 -222 95.5t-84 251.5q0 157 86 253.5t225 96.5q107 0 184.5 -61t88.5 -154h-40q-17 82 -81 131t-155 49q-119 0 -193 -87t-74 -227q0 -141 73 -227t192 -86q103 0 169.5 64t79.5 175zM209 848h42l104 -101l105 101h38
l-124 -125h-41z" />
    <glyph glyph-name="ccaron" unicode="&#x10d;" horiz-adv-x="501" 
d="M430 169h38q-12 -87 -65.5 -135t-138.5 -48q-116 0 -177 90q-44 67 -44 162q0 116 61 185.5t164 69.5q83 0 134.5 -42.5t61.5 -118.5h-39q-25 128 -157 128q-86 0 -136.5 -60t-50.5 -161q0 -99 49.5 -159.5t131.5 -60.5q69 0 113.5 40t54.5 110zM135 687h41l89 -108
l90 108h37l-109 -132h-39z" />
    <glyph glyph-name="Dcaron" unicode="&#x10e;" horiz-adv-x="660" 
d="M84 667h225q134 0 209 -69q95 -89 95 -254q0 -176 -94 -269q-40 -40 -89 -57.5t-120 -17.5h-226v667zM125 632v-597h171q70 0 113.5 14t78.5 47q84 81 84 245q0 146 -75 224q-66 67 -190 67h-182zM152 848h42l104 -101l105 101h38l-124 -125h-41z" />
    <glyph glyph-name="dcaron" unicode="&#x10f;" horiz-adv-x="646" 
d="M476 667v-667h-37v117q-17 -62 -65 -96.5t-117 -34.5q-99 0 -156.5 67.5t-57.5 183.5q0 117 58 186.5t156 69.5q129 0 181 -124v298h38zM262 460q-84 0 -132.5 -59.5t-48.5 -163.5q0 -101 48 -159.5t130 -58.5q83 0 131.5 59t48.5 161q0 100 -45 157q-52 64 -132 64z
M606 667v-58q0 -81 -56 -104v27q27 22 30 68h-17v67h43z" />
    <glyph glyph-name="Dcroat" unicode="&#x110;" horiz-adv-x="660" 
d="M84 366v301h226q133 0 208 -69q95 -89 95 -254q0 -176 -93 -269q-76 -75 -210 -75h-226v331h-80v35h80zM125 366h194v-35h-194v-296h172q70 0 113.5 14t77.5 47q84 81 84 244q0 146 -75 224q-65 68 -190 68h-182v-266z" />
    <glyph glyph-name="dcroat" unicode="&#x111;" horiz-adv-x="554" 
d="M438 586v81h38v-81h74v-33h-74v-553h-37v117q-17 -62 -65 -96.5t-117 -34.5q-99 0 -156.5 67.5t-57.5 183.5q0 117 58 186.5t156 69.5q128 0 181 -124v184h-169v33h169zM263 460q-84 0 -132.5 -59.5t-48.5 -163.5q0 -101 47.5 -159.5t129.5 -58.5q84 0 132 59t48 161
q0 100 -45 157q-52 64 -131 64z" />
    <glyph glyph-name="Emacron" unicode="&#x112;" horiz-adv-x="577" 
d="M533 667v-35h-408v-267h384v-35h-384v-295h413v-35h-454v667h449zM453 797v-31h-283v31h283z" />
    <glyph glyph-name="emacron" unicode="&#x113;" horiz-adv-x="510" 
d="M428 164h38q-15 -84 -68.5 -131t-135.5 -47q-100 0 -159.5 68t-59.5 182t60.5 185.5t157.5 71.5q60 0 107.5 -29.5t74.5 -83.5q28 -55 28 -146h-389q1 -101 48.5 -158t131.5 -57q66 0 109 38t57 107zM82 267h350q-3 71 -31 116q-49 77 -140 77q-46 0 -85.5 -22t-61.5 -60
q-24 -40 -32 -111zM387 631v-29h-252v29h252z" />
    <glyph glyph-name="Ebreve" unicode="&#x114;" horiz-adv-x="577" 
d="M533 667v-35h-408v-267h384v-35h-384v-295h413v-35h-454v667h449zM413 841h30q-8 -52 -43 -81.5t-89 -29.5q-55 0 -91 30.5t-40 80.5h31q16 -80 101 -80q83 0 101 80z" />
    <glyph glyph-name="Edotaccent" unicode="&#x116;" horiz-adv-x="577" 
d="M533 667v-35h-408v-267h384v-35h-384v-295h413v-35h-454v667h449zM334 833v-94h-41v94h41z" />
    <glyph glyph-name="edotaccent" unicode="&#x117;" horiz-adv-x="510" 
d="M428 164h38q-15 -84 -68.5 -131t-135.5 -47q-100 0 -159.5 68t-59.5 182t60.5 185.5t157.5 71.5q60 0 107.5 -29.5t74.5 -83.5q28 -55 28 -146h-389q1 -101 48.5 -158t131.5 -57q66 0 109 38t57 107zM82 267h350q-3 71 -31 116q-49 77 -140 77q-46 0 -85.5 -22t-61.5 -60
q-24 -40 -32 -111zM280 668v-96h-39v96h39z" />
    <glyph glyph-name="Eogonek" unicode="&#x118;" horiz-adv-x="577" 
d="M533 667v-35h-408v-267h384v-35h-384v-295h413v-35q-55 -41 -55 -83q0 -25 19 -40t50 -15q20 0 46 10v-29q-29 -10 -54 -10q-42 0 -68 21.5t-26 56.5q0 46 53 89h-419v667h449z" />
    <glyph glyph-name="eogonek" unicode="&#x119;" horiz-adv-x="510" 
d="M428 164h37q-10 -57 -36.5 -94.5t-84.5 -74.5q-45 -41 -45 -79q0 -24 19.5 -39t50.5 -15q19 0 45 10v-29q-29 -10 -54 -10q-42 0 -68 22t-26 58q0 41 43 77q-28 -4 -46 -4q-101 0 -161 67.5t-60 182.5q0 114 61 185.5t158 71.5q59 0 106.5 -29.5t75.5 -83.5
q28 -55 28 -146h-389q1 -101 48 -158t131 -57q66 0 109.5 38t57.5 107zM82 267h350q-4 72 -32 116q-49 77 -139 77q-46 0 -85 -22t-62 -60q-25 -43 -32 -111z" />
    <glyph glyph-name="Ecaron" unicode="&#x11a;" horiz-adv-x="577" 
d="M533 667v-35h-408v-267h384v-35h-384v-295h413v-35h-454v667h449zM167 848h42l104 -101l105 101h38l-124 -125h-41z" />
    <glyph glyph-name="ecaron" unicode="&#x11b;" horiz-adv-x="510" 
d="M428 164h38q-15 -84 -68.5 -131t-135.5 -47q-100 0 -159.5 68t-59.5 182t60.5 185.5t157.5 71.5q60 0 107.5 -29.5t74.5 -83.5q28 -55 28 -146h-389q1 -101 48.5 -158t131.5 -57q66 0 109 38t57 107zM82 267h350q-3 71 -31 116q-49 77 -140 77q-46 0 -85.5 -22t-61.5 -60
q-24 -40 -32 -111zM133 687h40l90 -108l90 108h37l-109 -132h-39z" />
    <glyph glyph-name="Gcircumflex" unicode="&#x11c;" horiz-adv-x="720" 
d="M653 326v-326h-30l-4 162q-28 -85 -94.5 -131t-161.5 -46q-141 0 -228 94.5t-87 246.5q0 159 87 257.5t228 98.5q109 0 185.5 -60.5t93.5 -160.5h-39q-17 84 -83 135t-157 51q-124 0 -199 -87.5t-75 -233.5q0 -137 75.5 -221.5t199.5 -84.5q113 0 183 71.5t70 187.5v12
h-246v35h282zM514 723h-41l-105 101l-104 -101h-38l123 125h41z" />
    <glyph glyph-name="gcircumflex" unicode="&#x11d;" horiz-adv-x="542" 
d="M464 479v-440q0 -91 -28 -138q-49 -84 -181 -84q-87 0 -136 38t-54 110h38q15 -115 152 -115q90 0 130.5 44.5t40.5 143.5v100q-15 -35 -28 -52q-55 -69 -152 -69q-92 0 -147.5 63t-55.5 169q0 110 57.5 177t152.5 67q62 0 107.5 -32.5t66.5 -91.5v110h37zM256 460
q-80 0 -127.5 -55.5t-47.5 -149.5q0 -95 45.5 -150t123.5 -55q79 0 127 56t48 149q0 92 -46.5 148.5t-122.5 56.5zM389 555h-41l-89 108l-90 -108h-37l109 132h39z" />
    <glyph glyph-name="Gbreve" unicode="&#x11e;" horiz-adv-x="720" 
d="M653 326v-326h-30l-4 162q-28 -85 -94.5 -131t-161.5 -46q-141 0 -228 94.5t-87 246.5q0 159 87 257.5t228 98.5q109 0 185.5 -60.5t93.5 -160.5h-39q-17 84 -83 135t-157 51q-124 0 -199 -87.5t-75 -233.5q0 -137 75.5 -221.5t199.5 -84.5q113 0 183 71.5t70 187.5v12
h-246v35h282zM464 841h31q-8 -52 -43 -81.5t-89 -29.5q-55 0 -91 30.5t-40 80.5h30q17 -80 102 -80q83 0 100 80z" />
    <glyph glyph-name="gbreve" unicode="&#x11f;" horiz-adv-x="542" 
d="M464 479v-440q0 -91 -28 -138q-49 -84 -181 -84q-87 0 -136 38t-54 110h38q15 -115 152 -115q90 0 130.5 44.5t40.5 143.5v100q-15 -35 -28 -52q-55 -69 -152 -69q-92 0 -147.5 63t-55.5 169q0 110 57.5 177t152.5 67q62 0 107.5 -32.5t66.5 -91.5v110h37zM256 460
q-80 0 -127.5 -55.5t-47.5 -149.5q0 -95 45.5 -150t123.5 -55q79 0 127 56t48 149q0 92 -46.5 148.5t-122.5 56.5zM349 674h28q-8 -52 -39.5 -81t-80.5 -29t-82 30t-38 80h28q17 -79 93 -79q74 0 91 79z" />
    <glyph glyph-name="Gdotaccent" unicode="&#x120;" horiz-adv-x="720" 
d="M653 326v-326h-30l-4 162q-28 -85 -94.5 -131t-161.5 -46q-141 0 -228 94.5t-87 246.5q0 159 87 257.5t228 98.5q109 0 185.5 -60.5t93.5 -160.5h-39q-17 84 -83 135t-157 51q-124 0 -199 -87.5t-75 -233.5q0 -137 75.5 -221.5t199.5 -84.5q113 0 183 71.5t70 187.5v12
h-246v35h282zM380 833v-94h-41v94h41z" />
    <glyph glyph-name="gdotaccent" unicode="&#x121;" horiz-adv-x="542" 
d="M464 479v-440q0 -91 -28 -138q-49 -84 -181 -84q-87 0 -136 38t-54 110h38q15 -115 152 -115q90 0 130.5 44.5t40.5 143.5v100q-15 -35 -28 -52q-55 -69 -152 -69q-92 0 -147.5 63t-55.5 169q0 110 57.5 177t152.5 67q62 0 107.5 -32.5t66.5 -91.5v110h37zM256 460
q-80 0 -127.5 -55.5t-47.5 -149.5q0 -95 45.5 -150t123.5 -55q79 0 127 56t48 149q0 92 -46.5 148.5t-122.5 56.5zM276 668v-96h-39v96h39z" />
    <glyph glyph-name="Gcommaaccent" unicode="&#x122;" horiz-adv-x="720" 
d="M653 326v-326h-30l-4 162q-28 -85 -94.5 -131t-161.5 -46q-141 0 -228 94.5t-87 246.5q0 159 87 257.5t228 98.5q109 0 185.5 -60.5t93.5 -160.5h-39q-17 84 -83 135t-157 51q-124 0 -199 -87.5t-75 -233.5q0 -137 75.5 -221.5t199.5 -84.5q113 0 183 71.5t70 187.5v12
h-246v35h282zM379 -54v-58q0 -79 -55 -104v27q15 13 21 27.5t8 40.5h-20v67h46z" />
    <glyph glyph-name="gcommaaccent" unicode="&#x123;" horiz-adv-x="542" 
d="M464 479v-440q0 -91 -28 -138q-49 -84 -181 -84q-87 0 -136 38t-54 110h38q15 -115 152 -115q90 0 130.5 44.5t40.5 143.5v100q-15 -35 -28 -52q-55 -69 -152 -69q-92 0 -147.5 63t-55.5 169q0 110 57.5 177t152.5 67q62 0 107.5 -32.5t66.5 -91.5v110h37zM256 460
q-80 0 -127.5 -55.5t-47.5 -149.5q0 -95 45.5 -150t123.5 -55q79 0 127 56t48 149q0 92 -46.5 148.5t-122.5 56.5zM233 554v58q0 79 55 104v-27q-26 -24 -29 -68h17v-67h-43z" />
    <glyph glyph-name="Hcircumflex" unicode="&#x124;" horiz-adv-x="676" 
d="M592 667v-667h-41v332h-427v-332h-41v667h41v-300h427v300h41zM482 723h-42l-104 101l-104 -101h-39l124 125h41z" />
    <glyph glyph-name="Hbar" unicode="&#x126;" horiz-adv-x="676" 
d="M593 530h73v-35h-73v-495h-41v332h-428v-332h-41v495h-73v35h73v137h41v-137h428v137h41v-137zM124 495v-128h428v128h-428z" />
    <glyph glyph-name="hbar" unicode="&#x127;" horiz-adv-x="531" 
d="M115 0h-38v553h-73v33h73v81h38v-81h170v-33h-170v-126q0 -14 -1 -26q0 -16 -1 -30q50 122 173 122q96 0 143 -70q28 -42 28 -116v-307h-38v301q0 73 -26 107q-41 52 -114 52q-89 0 -134 -77q-30 -49 -30 -140v-243z" />
    <glyph glyph-name="Imacron" unicode="&#x12a;" horiz-adv-x="208" 
d="M125 667v-667h-41v667h41zM212 797v-31h-216v31h216z" />
    <glyph glyph-name="imacron" unicode="&#x12b;" horiz-adv-x="192" 
d="M116 479v-479h-38v479h38zM196 631v-29h-199v29h199z" />
    <glyph glyph-name="ibreve" unicode="&#x12d;" horiz-adv-x="192" 
d="M116 479v-479h-38v479h38zM178 674h28q-5 -34 -16 -56q-13 -25 -39.5 -39.5t-56.5 -14.5q-46 0 -74.5 28.5t-33.5 81.5h28q17 -80 82 -80q64 0 82 80z" />
    <glyph glyph-name="Iogonek" unicode="&#x12e;" horiz-adv-x="208" 
d="M84 667h41v-667q-46 -33 -46 -82q0 -25 15.5 -40t41.5 -15q15 0 38 9v-29q-23 -9 -43 -9q-38 0 -61.5 22.5t-23.5 59.5q0 40 38 84v667z" />
    <glyph glyph-name="iogonek" unicode="&#x12f;" horiz-adv-x="192" 
d="M115 479v-479q-46 -36 -46 -84q0 -24 15 -39t40 -15q16 0 38 9v-28q-21 -10 -42 -10q-37 0 -60.5 22.5t-23.5 57.5q0 39 41 87v479h38zM115 667v-94h-38v94h38z" />
    <glyph glyph-name="Idotaccent" unicode="&#x130;" horiz-adv-x="208" 
d="M125 667v-667h-41v667h41zM125 833v-94h-41v94h41z" />
    <glyph glyph-name="dotlessi" unicode="&#x131;" horiz-adv-x="192" 
d="M116 479v-479h-38v479h38z" />
    <glyph glyph-name="IJ" unicode="&#x132;" horiz-adv-x="661" 
d="M125 667v-667h-41v667h41zM586 667v-486q0 -88 -34 -132q-49 -64 -151 -64q-96 0 -141 48.5t-45 152.5q0 13 1 25h38v-22q0 -73 18 -105q33 -64 130 -64q80 0 117 49q26 34 26 114v484h41z" />
    <glyph glyph-name="ij" unicode="&#x133;" horiz-adv-x="379" 
d="M116 667v-94h-38v94h38zM116 479v-479h-38v479h38zM303 479v-530q0 -70 -24 -97t-86 -27q-13 0 -22 1v33q9 -1 19 -1q28 0 40 4t20 17q15 20 15 68v532h38zM303 667v-94h-38v94h38z" />
    <glyph glyph-name="Kcommaaccent" unicode="&#x136;" horiz-adv-x="615" 
d="M600 667l-308 -277l326 -390h-51l-303 363l-139 -126v-237h-41v667h41v-327v-56q20 20 42 40l379 343h54zM340 -54v-58q0 -79 -55 -104v27q15 13 21 27.5t8 40.5h-20v67h46z" />
    <glyph glyph-name="kcommaaccent" unicode="&#x137;" horiz-adv-x="490" 
d="M463 479l-210 -178l225 -301h-48l-206 274l-108 -92v-182h-38v667h38v-387v-24v-31q14 12 21 19q5 4 10.5 9t6.5 6l258 220h51zM283 -54v-58q0 -81 -56 -104v27q27 22 30 68h-17v67h43z" />
    <glyph glyph-name="kgreenlandic" unicode="&#x138;" horiz-adv-x="490" 
d="M463 479l-210 -178l225 -301h-48l-206 274l-108 -92v-182h-38v479h38v-199v-24v-31q14 12 21 19q5 4 10.5 9t6.5 6l258 220h51z" />
    <glyph glyph-name="Lacute" unicode="&#x139;" horiz-adv-x="520" 
d="M505 35v-35h-421v667h41v-632h380zM253 845l-136 -122h-37l123 122h50z" />
    <glyph glyph-name="lacute" unicode="&#x13a;" horiz-adv-x="192" 
d="M115 667v-667h-38v667h38zM226 845l-123 -122h-37l110 122h50z" />
    <glyph glyph-name="Lcommaaccent" unicode="&#x13b;" horiz-adv-x="520" 
d="M505 35v-35h-421v667h41v-632h380zM323 -54v-58q0 -82 -56 -104v27q27 21 30 68h-20v67h46z" />
    <glyph glyph-name="lcommaaccent" unicode="&#x13c;" horiz-adv-x="192" 
d="M115 667v-667h-38v667h38zM120 -54v-58q0 -81 -56 -104v27q27 22 30 68h-17v67h43z" />
    <glyph glyph-name="Lcaron" unicode="&#x13d;" horiz-adv-x="520" 
d="M505 35v-35h-421v667h41v-632h380zM349 667v-58q0 -79 -55 -104v27q15 13 21 27.5t8 40.5h-20v67h46z" />
    <glyph glyph-name="lcaron" unicode="&#x13e;" horiz-adv-x="285" 
d="M115 667v-667h-38v667h38zM244 667v-58q0 -79 -55 -104v27q26 24 29 68h-17v67h43z" />
    <glyph glyph-name="Ldot" unicode="&#x13f;" horiz-adv-x="520" 
d="M505 35v-35h-421v667h41v-632h380zM385 390v-100h-49v100h49z" />
    <glyph glyph-name="ldot" unicode="&#x140;" horiz-adv-x="242" 
d="M115 667v-667h-38v667h38zM242 390v-100h-49v100h49z" />
    <glyph glyph-name="Lslash" unicode="&#x141;" horiz-adv-x="520" 
d="M84 339v328h41v-305l143 108v-40l-143 -108v-287h381v-35h-422v298l-73 -55v40z" />
    <glyph glyph-name="lslash" unicode="&#x142;" horiz-adv-x="192" 
d="M77 380v287h39v-263l66 50v-39l-66 -50v-365h-39v341l-67 -50v39z" />
    <glyph glyph-name="Nacute" unicode="&#x143;" horiz-adv-x="684" 
d="M601 667v-667h-47l-374 528q-24 38 -36 56q-14 22 -22 36q2 -22 3 -102v-518h-41v667h49l365 -519q42 -63 65 -100q-3 48 -3 128v491h41zM475 845l-137 -122h-36l123 122h50z" />
    <glyph glyph-name="nacute" unicode="&#x144;" horiz-adv-x="533" 
d="M116 479v-104q49 118 176 118q90 0 137 -61q18 -23 24.5 -50t6.5 -76v-306h-38v297q0 65 -15 96t-48 49t-75 18q-46 0 -83.5 -20.5t-57.5 -57.5q-26 -47 -26 -133v-249h-39v479h38zM379 687l-124 -132h-34l110 132h48z" />
    <glyph glyph-name="Ncommaaccent" unicode="&#x145;" horiz-adv-x="684" 
d="M601 667v-667h-47l-374 528q-24 38 -36 56q-14 22 -22 36q2 -22 3 -102v-518h-41v667h49l365 -519q42 -63 65 -100q-3 48 -3 128v491h41zM354 -54v-58q0 -79 -55 -104v27q15 13 21 27.5t8 40.5h-20v67h46z" />
    <glyph glyph-name="ncommaaccent" unicode="&#x146;" horiz-adv-x="533" 
d="M116 479v-104q49 118 176 118q90 0 137 -61q18 -23 24.5 -50t6.5 -76v-306h-38v297q0 65 -15 96t-48 49t-75 18q-46 0 -83.5 -20.5t-57.5 -57.5q-26 -47 -26 -133v-249h-39v479h38zM291 -54v-58q0 -81 -56 -104v27q27 22 30 68h-17v67h43z" />
    <glyph glyph-name="Ncaron" unicode="&#x147;" horiz-adv-x="684" 
d="M601 667v-667h-47l-374 528q-24 38 -36 56q-14 22 -22 36q2 -22 3 -102v-518h-41v667h49l365 -519q42 -63 65 -100q-3 48 -3 128v491h41zM197 848h42l104 -101l105 101h38l-123 -125h-42z" />
    <glyph glyph-name="ncaron" unicode="&#x148;" horiz-adv-x="533" 
d="M116 479v-104q49 118 176 118q90 0 137 -61q18 -23 24.5 -50t6.5 -76v-306h-38v297q0 65 -15 96t-48 49t-75 18q-46 0 -83.5 -20.5t-57.5 -57.5q-26 -47 -26 -133v-249h-39v479h38zM141 687h41l90 -108l89 108h38l-109 -132h-39z" />
    <glyph glyph-name="napostrophe" unicode="&#x149;" horiz-adv-x="633" 
d="M124 667v-80q0 -59 -13.5 -89t-47.5 -47v32q34 19 32 88h-18v96h47zM216 479v-104q49 118 176 118q90 0 137 -61q18 -23 24.5 -50t6.5 -76v-306h-38v297q0 65 -15 96t-48 49t-75 18q-46 0 -83.5 -20.5t-57.5 -57.5q-26 -47 -26 -133v-249h-39v479h38z" />
    <glyph glyph-name="Eng" unicode="&#x14a;" horiz-adv-x="676" 
d="M124 667v-139q21 50 53 82q72 72 190 72q121 0 183 -80q24 -32 33 -67t9 -98v-487q0 -71 -24 -98t-88 -27q-13 0 -22 1v33q9 -1 19 -1q27 0 39.5 4t20.5 17q14 21 14 68v477q0 90 -21 132t-67 66.5t-105 24.5q-64 0 -116.5 -28.5t-81.5 -78.5q-36 -64 -36 -179v-361h-41
v667h41z" />
    <glyph glyph-name="eng" unicode="&#x14b;" horiz-adv-x="533" 
d="M116 479v-104q49 118 175 118q91 0 138 -61q18 -23 24.5 -50t6.5 -76v-356q0 -71 -24 -98t-86 -27q-13 0 -22 1v33h9h10q28 0 40 4t21 16q14 21 14 68v350q0 65 -15 96t-48 49t-75 18q-98 0 -141 -78q-26 -47 -26 -133v-249h-39v479h38z" />
    <glyph glyph-name="Omacron" unicode="&#x14c;" horiz-adv-x="729" 
d="M368 682q138 0 226 -99t88 -254q0 -154 -88 -249t-231 -95q-141 0 -228 96t-87 252q0 157 88 253t232 96zM368 647q-125 0 -202 -86t-77 -227q0 -140 76 -227t199 -87q124 0 200.5 85.5t76.5 224.5t-76.5 228t-196.5 89zM506 797v-31h-282v31h282z" />
    <glyph glyph-name="omacron" unicode="&#x14d;" horiz-adv-x="531" 
d="M269 493q98 0 158 -70.5t60 -185.5t-60 -183t-162 -68q-101 0 -161.5 69t-60.5 184t61.5 184.5t164.5 69.5zM268 460q-85 0 -136 -60t-51 -161q0 -100 50.5 -160t134.5 -60q83 0 133 59.5t50 158.5q0 100 -50 161.5t-131 61.5zM391 631v-29h-252v29h252z" />
    <glyph glyph-name="Ohungarumlaut" unicode="&#x150;" horiz-adv-x="729" 
d="M368 682q138 0 226 -99t88 -254q0 -154 -88 -249t-231 -95q-141 0 -228 96t-87 252q0 157 88 253t232 96zM368 647q-125 0 -202 -86t-77 -227q0 -140 76 -227t199 -87q124 0 200.5 85.5t76.5 224.5t-76.5 228t-196.5 89zM410 845l-104 -122h-33l90 122h47zM550 845
l-104 -122h-33l90 122h47z" />
    <glyph glyph-name="ohungarumlaut" unicode="&#x151;" horiz-adv-x="531" 
d="M269 493q98 0 158 -70.5t60 -185.5t-60 -183t-162 -68q-101 0 -161.5 69t-60.5 184t61.5 184.5t164.5 69.5zM268 460q-85 0 -136 -60t-51 -161q0 -100 50.5 -160t134.5 -60q83 0 133 59.5t50 158.5q0 100 -50 161.5t-131 61.5zM426 687l-90 -132h-29l77 132h42zM313 687
l-90 -132h-29l76 132h43z" />
    <glyph glyph-name="OE" unicode="&#x152;" horiz-adv-x="1034" 
d="M993 667v-35h-396v-267h356v-35h-356v-295h398v-35h-437v67q-83 -82 -199 -82q-136 0 -224 97t-88 248q0 156 88.5 254t229.5 98q113 0 193 -74v59h435zM556 124v424q0 22 -49 57q-61 42 -139 42q-125 0 -202.5 -87.5t-77.5 -228.5q0 -138 76 -224.5t197 -86.5
q93 0 158 53q37 30 37 51z" />
    <glyph glyph-name="oe" unicode="&#x153;" horiz-adv-x="859" 
d="M779 158h37q-42 -172 -204 -172q-145 0 -181 144q-39 -144 -181 -144q-95 0 -151 68t-56 183q0 117 56.5 186.5t151.5 69.5q91 0 142 -62q23 -27 39 -80q45 142 184 142q55 0 99.5 -24t68.5 -66q36 -63 36 -169h-371v-22q0 -87 45.5 -140t121.5 -53q126 0 163 139z
M448 267h334q-4 82 -31 122q-47 71 -136 71q-96 0 -140 -79q-23 -40 -27 -114zM253 460q-82 0 -127 -59t-45 -166q0 -101 45 -158.5t125 -57.5q78 0 121 58t43 163t-42.5 162.5t-119.5 57.5z" />
    <glyph glyph-name="Racute" unicode="&#x154;" horiz-adv-x="637" 
d="M81 667h275q91 0 139 -31q74 -48 74 -146q0 -66 -37 -109.5t-105 -57.5q60 -8 93 -41q22 -27 28.5 -55.5t11.5 -115.5q2 -77 15 -102l5 -9h-45q-11 17 -14 103q-4 84 -13 116.5t-34 53.5q-40 33 -145 33h-207v-306h-41v667zM122 632v-291h201q97 0 141 27q64 38 64 120
q0 81 -61 118q-42 26 -124 26h-221zM412 845l-137 -122h-36l123 122h50z" />
    <glyph glyph-name="racute" unicode="&#x155;" horiz-adv-x="296" 
d="M302 483v-38h-14q-82 0 -132 -65q-23 -31 -31 -67t-8 -106v-207h-39v479h38v-126q43 133 186 130zM300 687l-123 -132h-34l110 132h47z" />
    <glyph glyph-name="Rcommaaccent" unicode="&#x156;" horiz-adv-x="637" 
d="M81 667h275q91 0 139 -31q74 -48 74 -146q0 -66 -37 -109.5t-105 -57.5q60 -8 93 -41q22 -27 28.5 -55.5t11.5 -115.5q2 -77 15 -102l5 -9h-45q-11 17 -14 103q-4 84 -13 116.5t-34 53.5q-40 33 -145 33h-207v-306h-41v667zM122 632v-291h201q97 0 141 27q64 38 64 120
q0 81 -61 118q-42 26 -124 26h-221zM338 -54v-58q0 -79 -55 -104v27q15 13 21 27.5t8 40.5h-20v67h46z" />
    <glyph glyph-name="rcommaaccent" unicode="&#x157;" horiz-adv-x="296" 
d="M302 483v-38h-14q-82 0 -132 -65q-23 -31 -31 -67t-8 -106v-207h-39v479h38v-126q43 133 186 130zM119 -54v-58q0 -81 -56 -104v27q27 22 30 68h-17v67h43z" />
    <glyph glyph-name="Rcaron" unicode="&#x158;" horiz-adv-x="637" 
d="M81 667h275q91 0 139 -31q74 -48 74 -146q0 -66 -37 -109.5t-105 -57.5q60 -8 93 -41q22 -27 28.5 -55.5t11.5 -115.5q2 -77 15 -102l5 -9h-45q-11 17 -14 103q-4 84 -13 116.5t-34 53.5q-40 33 -145 33h-207v-306h-41v667zM122 632v-291h201q97 0 141 27q64 38 64 120
q0 81 -61 118q-42 26 -124 26h-221zM151 848h42l104 -101l105 101h38l-124 -125h-41z" />
    <glyph glyph-name="rcaron" unicode="&#x159;" horiz-adv-x="296" 
d="M302 483v-38h-14q-82 0 -132 -65q-23 -31 -31 -67t-8 -106v-207h-39v479h38v-126q43 133 186 130zM53 687h41l89 -108l90 108h37l-109 -132h-39z" />
    <glyph glyph-name="Sacute" unicode="&#x15a;" horiz-adv-x="588" 
d="M526 477h-40q-6 69 -38 107q-54 62 -172 62q-88 0 -137.5 -37t-49.5 -103q0 -76 73 -107q34 -15 162 -44q111 -26 153 -51q66 -41 66 -128q0 -89 -66.5 -139.5t-184.5 -50.5q-156 0 -223 90q-40 55 -41 145h39q2 -98 59.5 -149t167.5 -51q98 0 153 40.5t55 112.5
q0 74 -68 108q-40 18 -155 44q-77 18 -111 29.5t-59 27.5q-61 39 -61 122q0 82 61.5 129t168.5 47q139 0 205 -78q37 -46 43 -126zM407 845l-137 -122h-36l123 122h50z" />
    <glyph glyph-name="sacute" unicode="&#x15b;" horiz-adv-x="449" 
d="M396 340h-39q-5 62 -40.5 91t-105.5 29q-62 0 -97 -25.5t-35 -70.5q0 -29 16 -47q16 -16 42 -26t95 -26q85 -18 123 -40q56 -32 56 -98q0 -63 -52 -102t-137 -39q-95 0 -145.5 45t-51.5 130h38q1 -55 23 -85q41 -57 136 -57q68 0 109.5 29.5t41.5 77.5q0 40 -32 62.5
t-117 41.5q-97 22 -130 40q-53 29 -53 92q0 61 46 96t127 35q100 0 148 -54q29 -32 34 -99zM330 687l-124 -132h-34l110 132h48z" />
    <glyph glyph-name="Scircumflex" unicode="&#x15c;" horiz-adv-x="588" 
d="M526 477h-40q-6 69 -38 107q-54 62 -172 62q-88 0 -137.5 -37t-49.5 -103q0 -76 73 -107q34 -15 162 -44q111 -26 153 -51q66 -41 66 -128q0 -89 -66.5 -139.5t-184.5 -50.5q-156 0 -223 90q-40 55 -41 145h39q2 -98 59.5 -149t167.5 -51q98 0 153 40.5t55 112.5
q0 74 -68 108q-40 18 -155 44q-77 18 -111 29.5t-59 27.5q-61 39 -61 122q0 82 61.5 129t168.5 47q139 0 205 -78q37 -46 43 -126zM431 723h-41l-105 101l-104 -101h-38l123 125h41z" />
    <glyph glyph-name="scircumflex" unicode="&#x15d;" horiz-adv-x="449" 
d="M396 340h-39q-5 62 -40.5 91t-105.5 29q-62 0 -97 -25.5t-35 -70.5q0 -29 16 -47q16 -16 42 -26t95 -26q85 -18 123 -40q56 -32 56 -98q0 -63 -52 -102t-137 -39q-95 0 -145.5 45t-51.5 130h38q1 -55 23 -85q41 -57 136 -57q68 0 109.5 29.5t41.5 77.5q0 40 -32 62.5
t-117 41.5q-97 22 -130 40q-53 29 -53 92q0 61 46 96t127 35q100 0 148 -54q29 -32 34 -99zM343 555h-41l-89 108l-90 -108h-37l109 132h39z" />
    <glyph glyph-name="Scedilla" unicode="&#x15e;" horiz-adv-x="588" 
d="M294 -14l-31 -41q24 4 35 4q31 0 51 -16.5t20 -41.5q0 -33 -27.5 -54t-69.5 -21q-37 0 -87 20l10 22q43 -17 74 -17q27 0 45 13t18 33q0 17 -14.5 28t-36.5 11q-19 0 -45 -10l-15 12l45 59q-116 7 -177.5 67.5t-60.5 166.5h39q2 -98 59.5 -149t167.5 -51q98 0 153 40.5
t55 112.5q0 75 -68 108q-36 17 -155 45q-77 17 -110 28t-60 28q-61 39 -61 122q0 82 61.5 129t168.5 47q139 0 205 -78q37 -46 43 -126h-40q-6 69 -38 107q-54 62 -172 62q-88 0 -137.5 -37t-49.5 -103q0 -76 73 -107q34 -15 162 -44q111 -26 153 -51q66 -41 66 -128
q0 -89 -65.5 -139t-183.5 -51z" />
    <glyph glyph-name="scedilla" unicode="&#x15f;" horiz-adv-x="449" 
d="M224 -14l-31 -39q23 4 36 4q32 0 52 -16.5t20 -41.5q0 -34 -27 -54t-72 -20q-37 0 -86 18l10 23q40 -17 73 -17q29 0 47 12.5t18 32.5q0 18 -15 29t-38 11q-16 0 -45 -10l-14 12l46 57q-83 6 -128.5 51.5t-44.5 122.5h38q1 -55 23 -85q41 -57 136 -57q68 0 109.5 29.5
t41.5 77.5q0 40 -32 62.5t-117 41.5q-97 22 -130 40q-53 29 -53 92q0 61 46 96t127 35q100 0 148 -54q29 -32 34 -99h-39q-5 62 -40.5 91t-105.5 29q-62 0 -97 -25.5t-35 -70.5q0 -29 16 -47q16 -16 42 -26t95 -26q85 -18 123 -40q56 -32 56 -98q0 -63 -51 -101t-136 -40z
" />
    <glyph glyph-name="Scaron" unicode="&#x160;" horiz-adv-x="588" 
d="M526 477h-40q-6 69 -38 107q-54 62 -172 62q-88 0 -137.5 -37t-49.5 -103q0 -76 73 -107q34 -15 162 -44q111 -26 153 -51q66 -41 66 -128q0 -89 -66.5 -139.5t-184.5 -50.5q-156 0 -223 90q-40 55 -41 145h39q2 -98 59.5 -149t167.5 -51q98 0 153 40.5t55 112.5
q0 74 -68 108q-40 18 -155 44q-77 18 -111 29.5t-59 27.5q-61 39 -61 122q0 82 61.5 129t168.5 47q139 0 205 -78q37 -46 43 -126zM136 848h42l104 -101l104 101h39l-124 -125h-41z" />
    <glyph glyph-name="scaron" unicode="&#x161;" horiz-adv-x="449" 
d="M396 340h-39q-5 62 -40.5 91t-105.5 29q-62 0 -97 -25.5t-35 -70.5q0 -29 16 -47q16 -16 42 -26t95 -26q85 -18 123 -40q56 -32 56 -98q0 -63 -52 -102t-137 -39q-95 0 -145.5 45t-51.5 130h38q1 -55 23 -85q41 -57 136 -57q68 0 109.5 29.5t41.5 77.5q0 40 -32 62.5
t-117 41.5q-97 22 -130 40q-53 29 -53 92q0 61 46 96t127 35q100 0 148 -54q29 -32 34 -99zM86 687h41l89 -108l90 108h37l-109 -132h-39z" />
    <glyph glyph-name="Tcommaaccent" unicode="&#x162;" horiz-adv-x="540" 
d="M527 667v-35h-236v-632h-41v632h-236v35h513zM293 -54v-58q0 -79 -55 -104v27q15 13 21 27.5t8 40.5h-20v67h46z" />
    <glyph glyph-name="tcommaaccent" unicode="&#x163;" horiz-adv-x="251" 
d="M221 479v-33h-104v-324q0 -52 8 -67q14 -26 55 -26q14 0 41 6v-34q-25 -4 -46 -4q-65 0 -84 37q-12 22 -12 103v309h-87v33h87v150h38v-150h104zM169 -54v-58q0 -81 -56 -104v27q27 22 30 68h-17v67h43z" />
    <glyph glyph-name="Tcaron" unicode="&#x164;" horiz-adv-x="540" 
d="M527 667v-35h-236v-632h-41v632h-236v35h513zM126 848h42l104 -101l104 101h39l-124 -125h-41z" />
    <glyph glyph-name="tcaron" unicode="&#x165;" horiz-adv-x="300" 
d="M221 477v-33h-104v-325q0 -51 8 -66q12 -26 55 -26q16 0 41 6v-34q-25 -4 -46 -4q-65 0 -84 37q-12 20 -12 102v310h-87v33h87v150h38v-150h104zM246 713v-58q0 -79 -55 -104v27q26 24 29 68h-17v67h43z" />
    <glyph glyph-name="Tbar" unicode="&#x166;" horiz-adv-x="540" 
d="M527 667v-35h-236v-197h153v-35h-153v-400h-41v400h-153v35h153v197h-236v35h513z" />
    <glyph glyph-name="tbar" unicode="&#x167;" horiz-adv-x="251" 
d="M221 479v-33h-104v-93h94v-33h-94v-198q0 -52 8 -67q14 -26 55 -26q16 0 41 6v-34q-25 -4 -46 -4q-65 0 -84 37q-12 22 -12 103v183h-77v33h77v93h-87v33h87v150h38v-150h104z" />
    <glyph glyph-name="utilde" unicode="&#x169;" horiz-adv-x="529" 
d="M452 479v-479h-37v101q-51 -115 -172 -115q-82 0 -125.5 47.5t-43.5 136.5v309h38v-286q0 -74 16 -106q14 -32 47.5 -50.5t75.5 -18.5q74 0 118.5 54.5t44.5 146.5v260h38zM360 659h26q-4 -37 -21 -59t-42 -22q-24 0 -58 22q-29 20 -37 24t-19 4q-35 0 -40 -51h-27
q4 38 23 60t45 22q22 0 56 -23q39 -27 56 -27q30 0 38 50z" />
    <glyph glyph-name="Umacron" unicode="&#x16a;" horiz-adv-x="663" 
d="M589 667v-408q0 -112 -40 -174q-65 -100 -213 -100q-164 0 -228 111q-34 57 -34 165v406h41v-408q0 -105 39 -161q56 -78 182 -78q121 0 175 78q37 54 37 162v407h41zM473 797v-31h-282v31h282z" />
    <glyph glyph-name="umacron" unicode="&#x16b;" horiz-adv-x="529" 
d="M452 479v-479h-37v101q-51 -115 -172 -115q-82 0 -125.5 47.5t-43.5 136.5v309h38v-286q0 -74 16 -106q14 -32 47.5 -50.5t75.5 -18.5q74 0 118.5 54.5t44.5 146.5v260h38zM390 631v-29h-252v29h252z" />
    <glyph glyph-name="ubreve" unicode="&#x16d;" horiz-adv-x="529" 
d="M452 479v-479h-37v101q-51 -115 -172 -115q-82 0 -125.5 47.5t-43.5 136.5v309h38v-286q0 -74 16 -106q14 -32 47.5 -50.5t75.5 -18.5q74 0 118.5 54.5t44.5 146.5v260h38zM356 674h28q-9 -53 -40.5 -81.5t-80.5 -28.5t-81.5 30t-37.5 80h28q17 -79 93 -79q74 0 91 79z
" />
    <glyph glyph-name="Uring" unicode="&#x16e;" horiz-adv-x="663" 
d="M589 667v-408q0 -112 -40 -174q-65 -100 -213 -100q-164 0 -228 111q-34 57 -34 165v406h41v-408q0 -105 39 -161q56 -78 182 -78q121 0 175 78q37 54 37 162v407h41zM333 896q38 0 65.5 -28t27.5 -67t-27.5 -66.5t-66.5 -27.5t-67 27.5t-28 66.5q0 40 28 67.5t68 27.5z
M332 870q-29 0 -49 -20t-20 -49q0 -28 20.5 -48t48.5 -20t48 20t20 48t-20 48.5t-48 20.5z" />
    <glyph glyph-name="uring" unicode="&#x16f;" horiz-adv-x="529" 
d="M452 479v-479h-37v101q-51 -115 -172 -115q-82 0 -125.5 47.5t-43.5 136.5v309h38v-286q0 -74 16 -106q14 -32 47.5 -50.5t75.5 -18.5q74 0 118.5 54.5t44.5 146.5v260h38zM265 713q34 0 59 -25.5t25 -60.5t-25 -60t-60 -25t-60 25t-25 60q0 36 25 61t61 25zM265 689
q-26 0 -44 -18t-18 -44q0 -25 18 -43t43 -18q26 0 44 18t18 43q0 26 -18 44t-43 18z" />
    <glyph glyph-name="Uhungarumlaut" unicode="&#x170;" horiz-adv-x="663" 
d="M589 667v-408q0 -112 -40 -174q-65 -100 -213 -100q-164 0 -228 111q-34 57 -34 165v406h41v-408q0 -105 39 -161q56 -78 182 -78q121 0 175 78q37 54 37 162v407h41zM377 845l-104 -122h-33l90 122h47zM517 845l-104 -122h-33l90 122h47z" />
    <glyph glyph-name="uhungarumlaut" unicode="&#x171;" horiz-adv-x="529" 
d="M452 479v-479h-37v101q-51 -115 -172 -115q-82 0 -125.5 47.5t-43.5 136.5v309h38v-286q0 -74 16 -106q14 -32 47.5 -50.5t75.5 -18.5q74 0 118.5 54.5t44.5 146.5v260h38zM418 687l-90 -132h-28l76 132h42zM305 687l-90 -132h-29l77 132h42z" />
    <glyph glyph-name="Uogonek" unicode="&#x172;" horiz-adv-x="663" 
d="M74 667h41v-408q0 -105 39 -161q56 -78 182 -78q124 0 176 78q36 53 36 162v407h41v-408q0 -88 -21 -139q-16 -38 -38.5 -62.5t-62.5 -47.5q-65 -36 -65 -87q0 -24 19.5 -39t50.5 -15q18 0 45 9v-28q-29 -10 -54 -10q-42 0 -68 21.5t-26 56.5q0 38 38 73q-35 -6 -72 -6
q-163 0 -227 111q-34 57 -34 165v406z" />
    <glyph glyph-name="uogonek" unicode="&#x173;" horiz-adv-x="529" 
d="M74 479h38v-286q0 -74 16 -106q14 -32 47.5 -50.5t75.5 -18.5q74 0 118.5 54.5t44.5 146.5v260h38v-479q-56 -42 -56 -83q0 -25 19 -40t51 -15q20 0 46 10v-29q-29 -10 -54 -10q-43 0 -69 22t-26 58q0 43 52 87v101q-51 -115 -172 -115q-82 0 -125.5 47.5t-43.5 136.5
v309z" />
    <glyph glyph-name="Wcircumflex" unicode="&#x174;" horiz-adv-x="877" 
d="M860 667l-191 -667h-46l-156 526q-16 56 -28 104q-7 -26 -29 -105l-153 -525h-46l-194 667h44l147 -512l8 -31q4 -16 7 -29q8 -28 12 -51q1 5 2.5 10.5t2.5 9t1 4.5q0 3 7 26q0 5 7 28q8 28 9 31l150 514h50l155 -518q3 -14 13 -50t14 -55q3 12 5 21.5t3 13t1.5 6.5
t1.5 5q9 34 16 59l147 518h40zM583 723h-42l-104 101l-104 -101h-39l124 125h41z" />
    <glyph glyph-name="Ycircumflex" unicode="&#x176;" horiz-adv-x="573" 
d="M578 667l-270 -389v-278h-41v278l-269 389h49l212 -307q5 -8 16 -25t14 -22q1 2 28 45l214 309h47zM432 723h-42l-104 101l-105 -101h-38l124 125h41z" />
    <glyph glyph-name="ycircumflex" unicode="&#x177;" horiz-adv-x="436" 
d="M432 479l-206 -529q-29 -76 -53 -97q-30 -27 -79 -25l-22 1h-14v34q15 -2 31 -2q31 0 49.5 11t31.5 39q3 6 21 48q2 7 11 26q6 11 6 15v4l-203 475h43l158 -376q5 -11 22 -59q18 56 22 64l142 371h40zM347 555h-41l-89 108l-90 -108h-37l109 132h39z" />
    <glyph glyph-name="Ydieresis" unicode="&#x178;" horiz-adv-x="573" 
d="M578 667l-270 -389v-278h-41v278l-269 389h49l212 -307q5 -8 16 -25t14 -22q1 2 28 45l214 309h47zM404 833v-94h-41v94h41zM211 833v-94h-41v94h41z" />
    <glyph glyph-name="Zacute" unicode="&#x179;" horiz-adv-x="561" 
d="M528 667v-39l-426 -558q-8 -10 -12 -16q-2 -2 -16 -20q56 1 70 1h393v-35h-507v40l429 560q5 7 13 17l12 16q-36 -1 -59 -1h-366v35h469zM415 845l-137 -122h-37l123 122h51z" />
    <glyph glyph-name="zacute" unicode="&#x17a;" horiz-adv-x="415" 
d="M390 479v-32l-297 -381q-20 -25 -27 -33h41h298v-33h-382v36l295 377q4 6 27 33h-16h-16h-266v33h343zM333 687l-124 -132h-34l110 132h48z" />
    <glyph glyph-name="Zdotaccent" unicode="&#x17b;" horiz-adv-x="561" 
d="M528 667v-39l-426 -558q-8 -10 -12 -16q-2 -2 -16 -20q56 1 70 1h393v-35h-507v40l429 560q5 7 13 17l12 16q-36 -1 -59 -1h-366v35h469zM314 833v-94h-41v94h41z" />
    <glyph glyph-name="zdotaccent" unicode="&#x17c;" horiz-adv-x="415" 
d="M390 479v-32l-297 -381q-20 -25 -27 -33h41h298v-33h-382v36l295 377q4 6 27 33h-16h-16h-266v33h343zM239 668v-96h-39v96h39z" />
    <glyph glyph-name="Zcaron" unicode="&#x17d;" horiz-adv-x="561" 
d="M528 667v-39l-426 -558q-8 -10 -12 -16q-2 -2 -16 -20q56 1 70 1h393v-35h-507v40l429 560q5 7 13 17l12 16q-36 -1 -59 -1h-366v35h469zM150 848h42l104 -101l105 101h38l-124 -125h-41z" />
    <glyph glyph-name="zcaron" unicode="&#x17e;" horiz-adv-x="415" 
d="M390 479v-32l-297 -381q-20 -25 -27 -33h41h298v-33h-382v36l295 377q4 6 27 33h-16h-16h-266v33h343zM92 687h41l89 -108l90 108h37l-109 -132h-39z" />
    <glyph glyph-name="florin" unicode="&#x192;" horiz-adv-x="560" 
d="M437 455l-5 -31h-112l-73 -414q-18 -101 -49.5 -142t-92.5 -41q-23 0 -48 5l6 34q24 -4 41 -4q45 0 69 38q19 32 38 131l69 393h-103l6 31h102l19 105q16 90 41 119q34 43 102 43q19 0 56 -5l-6 -34q-30 6 -49 6q-49 0 -75 -35q-17 -25 -28 -90l-20 -109h112z" />
    <glyph glyph-name="uni01CD" unicode="&#x1cd;" horiz-adv-x="601" 
d="M324 667l265 -667h-44l-84 214h-322l-84 -214h-44l270 667h43zM448 249l-122 309q0 1 -16 46l-3 8q0 1 -1 3t-2 6t-2 7q-15 -42 -25 -67l-125 -312h296zM156 848h42l104 -101l104 101h39l-124 -125h-41z" />
    <glyph glyph-name="uni01CE" unicode="&#x1ce;" horiz-adv-x="491" 
d="M475 34v-31q-16 -6 -33 -6q-36 0 -48.5 17t-12.5 68v20q-58 -116 -187 -116q-75 0 -117 35.5t-42 98.5q0 94 90 128q28 11 53.5 14.5t132.5 12.5q41 4 54.5 17t13.5 47q0 60 -27 86q-37 35 -109 35q-133 0 -145 -128h-37q5 78 53.5 119.5t133.5 41.5q56 0 98 -19.5
t59 -53.5q8 -19 10 -37.5t2 -88.5v-215q0 -28 7 -38.5t27 -10.5q9 0 24 4zM379 187v85q-19 -23 -108 -31q-103 -11 -142 -28q-57 -25 -57 -88q0 -49 34 -78t91 -29q79 0 130.5 47.5t51.5 121.5zM117 687h41l89 -108l90 108h37l-108 -132h-40z" />
    <glyph glyph-name="uni01D1" unicode="&#x1d1;" horiz-adv-x="241" 
d="M90 0l7 498h27l7 -498h-41zM90 576v91h40v-91h-40z" />
    <glyph glyph-name="uni01D3" unicode="&#x1d3;" horiz-adv-x="663" 
d="M589 667v-408q0 -112 -40 -174q-65 -100 -213 -100q-164 0 -228 111q-34 57 -34 165v406h41v-408q0 -105 39 -161q56 -78 182 -78q121 0 175 78q37 54 37 162v407h41zM187 848h42l104 -101l105 101h38l-123 -125h-42z" />
    <glyph glyph-name="Gcaron" unicode="&#x1e6;" horiz-adv-x="720" 
d="M653 326v-326h-30l-4 162q-28 -85 -94.5 -131t-161.5 -46q-141 0 -228 94.5t-87 246.5q0 159 87 257.5t228 98.5q109 0 185.5 -60.5t93.5 -160.5h-39q-17 84 -83 135t-157 51q-124 0 -199 -87.5t-75 -233.5q0 -137 75.5 -221.5t199.5 -84.5q113 0 183 71.5t70 187.5v12
h-246v35h282zM216 848h41l105 -101l104 101h38l-123 -125h-41z" />
    <glyph glyph-name="gcaron" unicode="&#x1e7;" horiz-adv-x="542" 
d="M464 479v-440q0 -91 -28 -138q-49 -84 -181 -84q-87 0 -136 38t-54 110h38q15 -115 152 -115q90 0 130.5 44.5t40.5 143.5v100q-15 -35 -28 -52q-55 -69 -152 -69q-92 0 -147.5 63t-55.5 169q0 110 57.5 177t152.5 67q62 0 107.5 -32.5t66.5 -91.5v110h37zM256 460
q-80 0 -127.5 -55.5t-47.5 -149.5q0 -95 45.5 -150t123.5 -55q79 0 127 56t48 149q0 92 -46.5 148.5t-122.5 56.5zM129 687h40l90 -108l90 108h37l-109 -132h-39z" />
    <glyph glyph-name="uni01F4" unicode="&#x1f4;" horiz-adv-x="720" 
d="M653 326v-326h-30l-4 162q-28 -85 -94.5 -131t-161.5 -46q-141 0 -228 94.5t-87 246.5q0 159 87 257.5t228 98.5q109 0 185.5 -60.5t93.5 -160.5h-39q-17 84 -83 135t-157 51q-124 0 -199 -87.5t-75 -233.5q0 -137 75.5 -221.5t199.5 -84.5q113 0 183 71.5t70 187.5v12
h-246v35h282zM487 845l-137 -122h-37l124 122h50z" />
    <glyph glyph-name="Scommaaccent" unicode="&#x218;" horiz-adv-x="588" 
d="M526 477h-40q-6 69 -38 107q-54 62 -172 62q-88 0 -137.5 -37t-49.5 -103q0 -76 73 -107q34 -15 162 -44q111 -26 153 -51q66 -41 66 -128q0 -89 -66.5 -139.5t-184.5 -50.5q-156 0 -223 90q-40 55 -41 145h39q2 -98 59.5 -149t167.5 -51q98 0 153 40.5t55 112.5
q0 74 -68 108q-40 18 -155 44q-77 18 -111 29.5t-59 27.5q-61 39 -61 122q0 82 61.5 129t168.5 47q139 0 205 -78q37 -46 43 -126zM307 -54v-58q0 -79 -55 -104v27q15 13 21 27.5t8 40.5h-20v67h46z" />
    <glyph glyph-name="scommaaccent" unicode="&#x219;" horiz-adv-x="449" 
d="M396 340h-39q-5 62 -40.5 91t-105.5 29q-62 0 -97 -25.5t-35 -70.5q0 -29 16 -47q16 -16 42 -26t95 -26q85 -18 123 -40q56 -32 56 -98q0 -63 -52 -102t-137 -39q-95 0 -145.5 45t-51.5 130h38q1 -55 23 -85q41 -57 136 -57q68 0 109.5 29.5t41.5 77.5q0 40 -32 62.5
t-117 41.5q-97 22 -130 40q-53 29 -53 92q0 61 46 96t127 35q100 0 148 -54q29 -32 34 -99zM235 -54v-58q0 -81 -56 -104v27q27 22 30 68h-17v67h43z" />
    <glyph glyph-name="uni021A" unicode="&#x21a;" horiz-adv-x="540" 
d="M527 667v-35h-236v-632h-41v632h-236v35h513zM293 -54v-58q0 -79 -55 -104v27q15 13 21 27.5t8 40.5h-20v67h46z" />
    <glyph glyph-name="uni021B" unicode="&#x21b;" horiz-adv-x="251" 
d="M221 479v-33h-104v-324q0 -52 8 -67q14 -26 55 -26q14 0 41 6v-34q-25 -4 -46 -4q-65 0 -84 37q-12 22 -12 103v309h-87v33h87v150h38v-150h104zM169 -54v-58q0 -81 -56 -104v27q27 22 30 68h-17v67h43z" />
    <glyph glyph-name="afii57929" unicode="&#x2bc;" horiz-adv-x="200" 
d="M124 667v-80q0 -59 -13.5 -89t-47.5 -47v32q34 19 32 88h-18v96h47z" />
    <glyph glyph-name="circumflex" unicode="&#x2c6;" 
d="M378 555h-40l-90 108l-90 -108h-37l109 132h39z" />
    <glyph glyph-name="caron" unicode="&#x2c7;" 
d="M121 687h41l89 -108l90 108h37l-109 -132h-39z" />
    <glyph glyph-name="uni02C9" unicode="&#x2c9;" 
d="M376 631v-29h-252v29h252z" />
    <glyph glyph-name="breve" unicode="&#x2d8;" 
d="M342 674h28q-9 -53 -40.5 -81.5t-80.5 -28.5t-81.5 30t-37.5 80h28q17 -79 93 -79q74 0 91 79z" />
    <glyph glyph-name="dotaccent" unicode="&#x2d9;" 
d="M269 668v-96h-39v96h39z" />
    <glyph glyph-name="ring" unicode="&#x2da;" 
d="M251 713q34 0 59 -25.5t25 -60.5t-25 -60t-60 -25t-60 25t-25 60q0 36 25 61t61 25zM251 689q-26 0 -44 -18t-18 -44q0 -25 18 -43t43 -18q26 0 44 18t18 43q0 26 -18 44t-43 18z" />
    <glyph glyph-name="ogonek" unicode="&#x2db;" 
d="M288 0h35q-55 -42 -55 -83q0 -25 19 -40t51 -15q19 0 45 10v-29q-29 -10 -54 -10q-42 0 -68 21.5t-26 56.5q0 46 53 89z" />
    <glyph glyph-name="tilde" unicode="&#x2dc;" 
d="M346 659h27q-4 -37 -21.5 -59t-42.5 -22t-57 22q-29 20 -37.5 24t-19.5 4q-34 0 -40 -51h-27q5 38 23.5 60t44.5 22q22 0 57 -23q37 -27 55 -27q30 0 38 50z" />
    <glyph glyph-name="hungarumlaut" unicode="&#x2dd;" 
d="M404 687l-90 -132h-29l77 132h42zM291 687l-90 -132h-29l77 132h42z" />
    <glyph glyph-name="uni0387" unicode="&#x387;" horiz-adv-x="200" 
d="M124 294v-95h-47v95h47z" />
    <glyph glyph-name="Wacute" unicode="&#x1e82;" horiz-adv-x="276" 
d="M244 264v-34h-213v34h213z" />
    <glyph glyph-name="Wdieresis" unicode="&#x1e84;" horiz-adv-x="877" 
d="M860 667l-191 -667h-46l-156 526q-16 56 -28 104q-7 -26 -29 -105l-153 -525h-46l-194 667h44l147 -512l8 -31q4 -16 7 -29q8 -28 12 -51q1 5 2.5 10.5t2.5 9t1 4.5q0 3 7 26q0 5 7 28q8 28 9 31l150 514h50l155 -518q3 -14 13 -50t14 -55q3 12 5 21.5t3 13t1.5 6.5
t1.5 5q9 34 16 59l147 518h40zM555 833v-94h-41v94h41zM362 833v-94h-41v94h41z" />
    <glyph glyph-name="uni2002" unicode="&#x2002;" 
 />
    <glyph glyph-name="uni2003" unicode="&#x2003;" horiz-adv-x="1000" 
 />
    <glyph glyph-name="uni2004" unicode="&#x2004;" horiz-adv-x="333" 
 />
    <glyph glyph-name="uni2005" unicode="&#x2005;" horiz-adv-x="250" 
 />
    <glyph glyph-name="uni2006" unicode="&#x2006;" horiz-adv-x="67" 
 />
    <glyph glyph-name="uni2007" unicode="&#x2007;" horiz-adv-x="560" 
 />
    <glyph glyph-name="uni2009" unicode="&#x2009;" horiz-adv-x="125" 
 />
    <glyph glyph-name="uni200A" unicode="&#x200a;" horiz-adv-x="33" 
 />
    <glyph glyph-name="uni2011" unicode="&#x2011;" horiz-adv-x="213" 
d="M213 264v-34h-213v34h213z" />
    <glyph glyph-name="figuredash" unicode="&#x2012;" horiz-adv-x="560" 
d="M490 264v-34h-420v34h420z" />
    <glyph glyph-name="endash" unicode="&#x2013;" horiz-adv-x="560" 
d="M490 264v-34h-420v34h420z" />
    <glyph glyph-name="emdash" unicode="&#x2014;" horiz-adv-x="640" 
d="M640 272v-34h-640v34h640z" />
    <glyph glyph-name="afii00208" unicode="&#x2015;" horiz-adv-x="640" 
d="M640 272v-34h-640v34h640z" />
    <glyph glyph-name="underscoredbl" unicode="&#x2017;" 
d="M0 -64h500v-25h-500v25zM0 -179h500v-26h-500v26z" />
    <glyph glyph-name="quoteleft" unicode="&#x2018;" horiz-adv-x="200" 
d="M77 461v80q0 59 13.5 89t47.5 47v-32q-34 -21 -32 -88h18v-96h-47z" />
    <glyph glyph-name="quoteright" unicode="&#x2019;" horiz-adv-x="200" 
d="M124 667v-80q0 -59 -13.5 -89t-47.5 -47v32q34 19 32 88h-18v96h47z" />
    <glyph glyph-name="quotesinglbase" unicode="&#x201a;" horiz-adv-x="200" 
d="M124 95v-79q0 -59 -13.5 -89t-47.5 -47v32q34 19 32 88h-18v95h47z" />
    <glyph glyph-name="quotedblleft" unicode="&#x201c;" horiz-adv-x="316" 
d="M193 461v80q0 59 13.5 89t47.5 47v-32q-34 -21 -32 -88h18v-96h-47zM77 461v80q0 59 13.5 89t47.5 47v-32q-34 -21 -32 -88h18v-96h-47z" />
    <glyph glyph-name="quotedblright" unicode="&#x201d;" horiz-adv-x="316" 
d="M124 667v-80q0 -59 -13.5 -89t-47.5 -47v32q34 19 32 88h-18v96h47zM240 667v-80q0 -59 -13.5 -89t-47.5 -47v32q34 19 32 88h-18v96h47z" />
    <glyph glyph-name="quotedblbase" unicode="&#x201e;" horiz-adv-x="316" 
d="M124 95v-79q0 -59 -13.5 -89t-47.5 -47v32q34 19 32 88h-18v95h47zM240 95v-79q0 -59 -13.5 -89t-47.5 -47v32q34 19 32 88h-18v95h47z" />
    <glyph glyph-name="dagger" unicode="&#x2020;" horiz-adv-x="560" 
d="M490 449v-33h-192v-589h-37v589h-192v33h192v218h37v-218h192z" />
    <glyph glyph-name="daggerdbl" unicode="&#x2021;" horiz-adv-x="560" 
d="M490 471v-33h-191v-382h191v-33h-191v-196h-37v196h-192v33h192v382h-192v33h192v196h37v-196h191z" />
    <glyph glyph-name="bullet" unicode="&#x2022;" horiz-adv-x="667" 
d="M337 477q55 0 95.5 -41t40.5 -97q0 -58 -40.5 -98.5t-97.5 -40.5t-98 40.5t-41 97.5q0 58 41 98.5t100 40.5z" />
    <glyph glyph-name="ellipsis" unicode="&#x2026;" horiz-adv-x="600" 
d="M124 95v-95h-47v95h47zM324 95v-95h-47v95h47zM524 95v-95h-47v95h47z" />
    <glyph glyph-name="perthousand" unicode="&#x2030;" horiz-adv-x="1048" 
d="M523 306q65 0 102.5 -41.5t37.5 -112.5q0 -76 -37 -118.5t-103 -42.5q-69 0 -106 40.5t-37 116.5q0 75 37.5 116.5t105.5 41.5zM523 278q-109 0 -109 -133q0 -61 28 -94t80 -33t80 34.5t28 98.5q0 59 -28.5 93t-78.5 34zM864 307q65 0 102.5 -41.5t37.5 -114.5
q0 -74 -38 -117t-103 -43q-68 0 -105.5 41t-37.5 116t38 117t106 42zM863 279q-52 0 -81 -34.5t-29 -95.5q0 -62 28.5 -96.5t80.5 -34.5q51 0 79 34.5t28 97.5q0 61 -28 95t-78 34zM186 662q65 0 102.5 -42t37.5 -116q0 -73 -38.5 -116t-104.5 -43t-103 42t-37 117
q0 74 38 116t105 42zM185 634q-52 0 -80.5 -35t-28.5 -97q0 -61 28 -94.5t79 -33.5q52 0 80.5 34.5t28.5 95.5t-28.5 95.5t-78.5 34.5zM576 665l-416 -688h-33l416 688h33z" />
    <glyph glyph-name="guilsinglleft" unicode="&#x2039;" horiz-adv-x="225" 
d="M160 107l-109 120v36l109 124v-44l-83 -98l83 -94v-44z" />
    <glyph glyph-name="guilsinglright" unicode="&#x203a;" horiz-adv-x="225" 
d="M65 387l109 -121v-36l-109 -123v43l83 98l-83 95v44z" />
    <glyph glyph-name="exclamdbl" unicode="&#x203c;" horiz-adv-x="366" 
d="M111 667v-177l-7 -313h-28l-7 312v178h42zM112 101v-101h-43v101h43zM295 667v-177l-7 -313h-28l-7 312v178h42zM296 101v-101h-43v101h43z" />
    <glyph glyph-name="uni203E" unicode="&#x203e;" 
d="M0 841h500v-30h-500v30z" />
    <glyph glyph-name="fraction" unicode="&#x2044;" horiz-adv-x="137" 
d="M287 652l-405 -652h-32l406 652h31z" />
    <glyph glyph-name="zerosuperior" unicode="&#x2070;" horiz-adv-x="359" 
d="M182 660q68 0 106.5 -53t38.5 -148q0 -96 -38.5 -148t-109.5 -52t-108.5 50.5t-37.5 144.5q0 98 39 152t110 54zM182 633q-56 0 -86.5 -47t-30.5 -134q0 -80 30 -123t85 -43t85.5 45t30.5 128q0 82 -30 128t-84 46z" />
    <glyph glyph-name="foursuperior" unicode="&#x2074;" horiz-adv-x="359" 
d="M322 391v-27h-65v-97h-31v97h-190v28l192 263h29v-264h65zM226 391v219l-158 -219h158z" />
    <glyph glyph-name="fivesuperior" unicode="&#x2075;" horiz-adv-x="358" 
d="M300 652v-29h-183l-29 -130q40 36 93 36q59 0 98 -38t39 -96q0 -59 -39.5 -97.5t-100.5 -38.5q-64 0 -100 34.5t-38 96.5h30q3 -37 14 -56q27 -48 94 -48q48 0 78.5 30.5t30.5 77.5t-30.5 77t-78.5 30q-60 0 -98 -51h-29l42 202h207z" />
    <glyph glyph-name="sixsuperior" unicode="&#x2076;" horiz-adv-x="358" 
d="M314 552h-31q-7 38 -32 59.5t-63 21.5q-56 0 -84 -41.5t-33 -133.5q38 66 116 66q57 0 95.5 -38t38.5 -94q0 -58 -39.5 -96t-98.5 -38q-75 0 -114 58q-28 43 -28 129q0 103 38 159t109 56q109 0 126 -108zM185 497q-46 0 -77 -30t-31 -75q0 -46 30.5 -76.5t76.5 -30.5
t76 30t30 76q0 45 -30.5 75.5t-74.5 30.5z" />
    <glyph glyph-name="sevensuperior" unicode="&#x2077;" horiz-adv-x="358" 
d="M318 652v-26q-2 -3 -6 -7q-2 -3 -3 -4l-21 -21q-63 -69 -99.5 -155t-38.5 -172h-33q1 92 47.5 191t118.5 165h-226v29h261z" />
    <glyph glyph-name="eightsuperior" unicode="&#x2078;" horiz-adv-x="359" 
d="M114 476q-61 26 -61 84q0 46 34 73t92 27q59 0 93 -26.5t34 -72.5q0 -59 -60 -85q76 -23 76 -98q0 -56 -38 -88t-104 -32t-104.5 31.5t-38.5 86.5q0 76 77 100zM180 633q-46 0 -71 -19t-25 -54q0 -34 25.5 -53t70.5 -19q44 0 69.5 19t25.5 53q0 35 -24.5 54t-70.5 19z
M179 462q-52 0 -81 -23t-29 -63q0 -43 29.5 -67t81.5 -24t81 24t29 67q0 41 -29.5 63.5t-81.5 22.5z" />
    <glyph glyph-name="ninesuperior" unicode="&#x2079;" horiz-adv-x="359" 
d="M48 365h30q6 -37 32 -58t64 -21q115 0 115 179q-35 -71 -116 -71q-59 0 -97.5 37.5t-38.5 94.5t39.5 95.5t97.5 38.5q88 0 125 -75q20 -40 20 -114q0 -212 -145 -212q-53 0 -86.5 28.5t-39.5 77.5zM176 633q-46 0 -76.5 -30t-30.5 -76q0 -45 30 -75t76 -30t76.5 30
t30.5 75q0 44 -31 75t-75 31z" />
    <glyph glyph-name="zeroinferior" unicode="&#x2080;" horiz-adv-x="359" 
d="M182 393q68 0 106.5 -53t38.5 -148q0 -96 -38.5 -148t-109.5 -52t-108.5 50.5t-37.5 144.5q0 98 39 152t110 54zM182 366q-56 0 -86.5 -47t-30.5 -134q0 -80 30 -123t85 -43t85.5 45t30.5 128q0 82 -30 128t-84 46z" />
    <glyph glyph-name="oneinferior" unicode="&#x2081;" horiz-adv-x="358" 
d="M217 387v-387h-32v333q-40 -38 -105 -44v27q39 6 64.5 22.5t45.5 48.5h27z" />
    <glyph glyph-name="twoinferior" unicode="&#x2082;" horiz-adv-x="358" 
d="M315 29v-29h-271q4 50 29 80.5t104 80.5q57 37 78.5 64t21.5 60q0 38 -25 60t-69 22q-98 0 -99 -115h-31q2 142 131 142q56 0 90 -30t34 -79q0 -44 -27.5 -76.5t-111.5 -87.5q-47 -31 -64 -48.5t-25 -43.5h235z" />
    <glyph glyph-name="threeinferior" unicode="&#x2083;" horiz-adv-x="358" 
d="M77 260h-30q5 134 136 134q56 0 90.5 -28t34.5 -73q0 -64 -64 -85q74 -22 74 -95q0 -54 -39 -87.5t-101 -33.5q-64 0 -102.5 34.5t-38.5 91.5v16h31q-1 -5 -1 -11q0 -49 29.5 -76.5t82.5 -27.5q48 0 78 25.5t30 65.5q0 84 -116 84q-9 0 -17 -1v27h21q49 0 75 18.5
t26 53.5q0 34 -25.5 54.5t-68.5 20.5q-102 0 -105 -107z" />
    <glyph glyph-name="fourinferior" unicode="&#x2084;" horiz-adv-x="359" 
d="M322 124v-27h-65v-97h-31v97h-190v28l192 263h29v-264h65zM226 124v219l-158 -219h158z" />
    <glyph glyph-name="fiveinferior" unicode="&#x2085;" horiz-adv-x="358" 
d="M300 385v-29h-183l-29 -130q39 36 92 36q60 0 99 -38t39 -96q0 -59 -39.5 -97.5t-100.5 -38.5q-64 0 -100 34.5t-38 96.5h30q3 -37 14 -56q27 -48 94 -48q47 0 78 30.5t31 77.5t-30.5 77t-78.5 30q-62 0 -98 -51h-29l42 202h207z" />
    <glyph glyph-name="sixinferior" unicode="&#x2086;" horiz-adv-x="358" 
d="M314 285h-31q-7 38 -32 59.5t-63 21.5q-56 0 -84 -41.5t-33 -133.5q37 67 116 67q57 0 95.5 -38t38.5 -94q0 -58 -39.5 -96t-98.5 -38q-75 0 -114 58q-28 43 -28 129q0 103 38 158.5t109 55.5q109 0 126 -108zM185 231q-46 0 -77 -30t-31 -75q0 -46 30.5 -76.5
t76.5 -30.5t76 30.5t30 75.5t-30 75.5t-75 30.5z" />
    <glyph glyph-name="seveninferior" unicode="&#x2087;" horiz-adv-x="358" 
d="M318 385v-26q-2 -3 -6 -7q-2 -4 -3 -4l-21 -21q-63 -69 -99.5 -155t-38.5 -172h-33q2 92 48 191t118 165h-226v29h261z" />
    <glyph glyph-name="eightinferior" unicode="&#x2088;" horiz-adv-x="359" 
d="M114 210q-61 25 -61 83q0 46 34 73t92 27q59 0 93 -26t34 -72q0 -61 -60 -85q76 -24 76 -98q0 -56 -38 -88t-104 -32t-104.5 31.5t-38.5 86.5q0 76 77 100zM180 366q-46 0 -71 -19t-25 -54q0 -33 25.5 -52t70.5 -19q44 0 69.5 19t25.5 52q0 35 -25 54t-70 19zM179 196
q-52 0 -81 -23t-29 -63q0 -43 29.5 -67t81.5 -24t81 24t29 67q0 41 -29.5 63.5t-81.5 22.5z" />
    <glyph glyph-name="nineinferior" unicode="&#x2089;" horiz-adv-x="359" 
d="M48 98h30q6 -37 32 -58t64 -21q113 0 115 179q-35 -71 -116 -71q-59 0 -97.5 37.5t-38.5 94.5t39.5 95.5t97.5 38.5q88 0 125 -75q20 -40 20 -114q0 -212 -145 -212q-53 0 -86.5 28.5t-39.5 77.5zM176 366q-46 0 -76.5 -30t-30.5 -76q0 -45 30 -75t76 -30t76.5 30
t30.5 75q0 44 -31 75t-75 31z" />
    <glyph glyph-name="franc" unicode="&#x20a3;" horiz-adv-x="560" 
d="M388 642v-34h-274v-269h208v-34h-208v-305h-37v642h311zM388 339v-113q37 119 167 116v-34q-42 0 -68.5 -10t-50.5 -34q-27 -28 -37.5 -65t-10.5 -105v-94h-34v339h34z" />
    <glyph glyph-name="lira" unicode="&#x20a4;" horiz-adv-x="560" 
d="M150 373h174v-23h-162q5 -10 7 -12q5 -10 10.5 -20.5t8.5 -16.5l4 -8q0 -1 1 -3l2.5 -5t2.5 -6h126v-23h-119q6 -32 6 -52q0 -59 -40 -115q-15 -22 -57 -63q40 21 57 26t44 5q23 0 41.5 -5t79.5 -27q26 -9 52 -9q31 0 67 17.5t60 45.5l21 -28q-69 -69 -148 -69
q-23 0 -41.5 4.5t-80.5 25.5q-32 12 -65 12q-49 0 -110 -41l-24 33q51 38 79.5 86t28.5 96q0 26 -9 58h-93v23h86q-8 18 -30 55l-9 16h-47v23h34q-33 65 -33 112q0 76 59 123.5t154 47.5q106 0 161 -56t55 -165h-37q-3 188 -179 188q-78 0 -126 -38.5t-48 -101.5
q0 -26 7 -46t30 -64z" />
    <glyph glyph-name="peseta" unicode="&#x20a7;" horiz-adv-x="927" 
d="M84 642h194q95 0 141 -31q75 -52 75 -153q0 -88 -54.5 -137.5t-150.5 -49.5h-168v-271h-37v642zM121 608v-303h147q80 0 119 22q70 41 70 129q0 86 -60 126q-38 26 -124 26h-152zM617 290v-27h-62v-187q0 -31 6.5 -40t27.5 -9q2 0 28 2v-28q-15 -2 -31 -2q-40 0 -54 23
q-8 14 -8 63v178h-54v27h54v88h31v-88h62zM890 200h-31q-3 38 -23 54.5t-63 16.5q-35 0 -55.5 -14t-20.5 -38q0 -22 17 -32.5t73 -22.5q54 -12 76 -24q36 -19 36 -61q0 -39 -33 -63t-87 -24q-121 0 -123 111h30q3 -84 94 -84q39 0 63.5 16.5t24.5 42.5q0 22 -18.5 34
t-68.5 23q-60 13 -81 24q-34 18 -34 58q0 38 29 59.5t80 21.5q56 0 84 -24t31 -74z" />
    <glyph glyph-name="Euro" unicode="&#x20ac;" horiz-adv-x="617" 
d="M111 390h358l-17 -31h-344v-26q0 -15 1 -36h308l-17 -31h-288q16 -112 87.5 -179t175.5 -67q118 0 189 88v-54q-74 -69 -190 -69q-122 0 -203.5 75.5t-99.5 205.5h-71l17 31h51q-1 15 -1 38v24h-67l17 31h53q16 134 99.5 213t208.5 79t206 -81l-20 -37q-67 83 -189 83
q-105 0 -178 -71t-86 -186z" />
    <glyph glyph-name="uni2101" unicode="&#x2101;" horiz-adv-x="933" 
d="M627 667l-287 -667h-30l288 667h29zM223 667l165 -400h-36l-51 125h-191l-52 -125h-35l168 400h32zM290 421l-72 176q-1 1 -2 4t-3 7.5t-3 8.5l-4 11l-4 -12q-4 -8 -7 -17l-74 -178h169zM861 281h-32q-7 98 -124 98q-52 0 -81 -20.5t-29 -57.5q0 -42 42 -59q17 -7 98 -26
q71 -16 95 -30q42 -25 42 -78q0 -55 -41.5 -85.5t-115.5 -30.5q-164 0 -166 146h32q1 -117 135 -117q58 0 90.5 22.5t32.5 63.5q0 40 -39 59q-22 11 -94 26q-77 17 -105 34q-39 23 -39 75q0 50 39 78.5t106 28.5q148 0 154 -127z" />
    <glyph glyph-name="afii61248" unicode="&#x2105;" horiz-adv-x="280" 
d="M141 367q18 0 31.5 -13.5t13.5 -32.5t-13.5 -32.5t-32.5 -13.5t-32.5 13.5t-13.5 32.5t13.5 32.5t33.5 13.5z" />
    <glyph glyph-name="afii61289" unicode="&#x2113;" 
d="M240 269q-34 -174 -34 -220q0 -26 21 -26q15 0 27.5 13.5t28.5 46.5q7 16 17 16t10 -10q0 -14 -15 -42q-35 -62 -82 -62q-28 0 -45 20t-17 54t17 154q-49 -49 -62 -49q-4 0 -7 3.5t-3 7.5q0 7 24 26q22 20 55 55q42 218 87.5 320t100.5 102q25 0 39.5 -20t14.5 -53
q0 -84 -57 -185q-37 -65 -120 -151zM248 313q89 96 120 188q21 60 21 105t-27 45q-32 0 -56 -71.5t-58 -266.5z" />
    <glyph glyph-name="uni2117" unicode="&#x2117;" horiz-adv-x="130" 
d="M80 667v-63h-31v63h31zM80 557v-290h-31v290h31z" />
    <glyph glyph-name="trademark" unicode="&#x2122;" horiz-adv-x="802" 
d="M316 667v-27h-138v-353h-31v353h-137v27h306zM732 667v-380h-31v283q0 25 1 47q-6 -17 -8 -20l-138 -310h-28l-138 306q-4 8 -9 23l1 -46v-283h-31v380h39l137 -303l6 -16q3 -7 9 -22q11 27 15 37l136 304h39z" />
    <glyph glyph-name="uni2126" unicode="&#x2126;" horiz-adv-x="666" 
d="M27 0v36h206q-101 56 -154 139.5t-53 184.5q0 136 88.5 229.5t217.5 93.5t217.5 -93.5t88.5 -229.5q0 -101 -53 -184.5t-153 -139.5h206v-36h-256v34q75 42 120 90q95 101 95 232q0 122 -76.5 206t-187.5 84q-113 0 -189.5 -83.5t-76.5 -206.5q0 -148 115 -252
q39 -35 101 -70v-34h-256z" />
    <glyph glyph-name="onethird" unicode="&#x2153;" horiz-adv-x="853" 
d="M217 654v-387h-32v333q-40 -38 -105 -44v27q39 6 64.5 22.5t45.5 48.5h27zM645 652l-405 -652h-32l406 652h31zM572 260h-30q5 134 136 134q56 0 90.5 -28t34.5 -73q0 -64 -64 -85q74 -22 74 -95q0 -54 -39 -87.5t-101 -33.5q-64 0 -102.5 34.5t-38.5 91.5v16h31
q-1 -5 -1 -11q0 -49 29.5 -76.5t82.5 -27.5q48 0 78 25.5t30 65.5q0 84 -116 84q-9 0 -17 -1v27h21q49 0 75 18.5t26 53.5q0 34 -25.5 54.5t-68.5 20.5q-102 0 -105 -107z" />
    <glyph glyph-name="twothirds" unicode="&#x2154;" horiz-adv-x="854" 
d="M315 295v-29h-271q4 50 29 80.5t104 80.5q57 38 78.5 64.5t21.5 59.5q0 38 -25 60t-69 22q-98 0 -99 -115h-31q2 142 131 142q56 0 90 -30t34 -79q0 -44 -27.5 -76.5t-111.5 -87.5q-47 -31 -64.5 -49t-24.5 -43h235zM646 652l-406 -652h-32l406 652h32zM572 260h-30
q5 134 136 134q56 0 90.5 -28t34.5 -73q0 -64 -64 -85q74 -22 74 -95q0 -54 -39 -87.5t-101 -33.5q-64 0 -102.5 34.5t-38.5 91.5v16h31q-1 -5 -1 -11q0 -49 29.5 -76.5t82.5 -27.5q48 0 78 25.5t30 65.5q0 84 -116 84q-9 0 -17 -1v27h21q49 0 75 18.5t26 53.5
q0 34 -25.5 54.5t-68.5 20.5q-102 0 -105 -107z" />
    <glyph glyph-name="oneeighth" unicode="&#x215b;" horiz-adv-x="854" 
d="M217 654v-387h-32v333q-40 -38 -105 -44v27q39 6 64.5 22.5t45.5 48.5h27zM645 652l-405 -652h-32l406 652h31zM609 210q-60 24 -60 83q0 46 33.5 73t92.5 27t92.5 -26t33.5 -72q0 -61 -60 -85q76 -24 76 -98q0 -56 -38 -88t-104 -32t-104.5 31.5t-38.5 86.5q0 76 77 100
zM675 366q-45 0 -70 -19t-25 -54q0 -33 25.5 -52t69.5 -19q45 0 70 19t25 52q0 35 -24.5 54t-70.5 19zM674 196q-52 0 -81 -23t-29 -63q0 -43 29.5 -67t81.5 -24t81 24t29 67q0 41 -29.5 63.5t-81.5 22.5z" />
    <glyph glyph-name="threeeighths" unicode="&#x215c;" horiz-adv-x="854" 
d="M77 527h-30q5 133 136 133q56 0 90.5 -28t34.5 -73q0 -63 -64 -85q74 -22 74 -96q0 -53 -39 -86.5t-101 -33.5q-64 0 -102.5 34.5t-38.5 91.5v16h31q-1 -5 -1 -11q0 -49 29.5 -76.5t82.5 -27.5q48 0 78 25.5t30 65.5q0 83 -116 83h-17v27h21q101 0 101 73q0 34 -25.5 54
t-68.5 20q-102 0 -105 -106zM646 652l-406 -652h-32l406 652h32zM609 210q-60 24 -60 83q0 46 33.5 73t92.5 27t92.5 -26t33.5 -72q0 -61 -60 -85q77 -24 77 -98q0 -56 -38 -88t-104 -32q-67 0 -105.5 31.5t-38.5 86.5q0 76 77 100zM675 366q-45 0 -70 -19t-25 -54
q0 -33 25.5 -52t69.5 -19q45 0 70 19t25 52q0 35 -24.5 54t-70.5 19zM674 196q-52 0 -81 -23t-29 -63q0 -43 29.5 -67t82.5 -24q51 0 80.5 24t29.5 67q0 41 -29.5 63.5t-82.5 22.5z" />
    <glyph glyph-name="fiveeighths" unicode="&#x215d;" horiz-adv-x="854" 
d="M300 652v-29h-183l-29 -130q40 36 93 36q59 0 98 -38t39 -96q0 -59 -39.5 -97.5t-100.5 -38.5q-64 0 -100 34.5t-38 96.5h30q3 -37 14 -56q27 -48 94 -48q48 0 78.5 30.5t30.5 77.5t-30.5 77t-78.5 30q-60 0 -98 -51h-29l42 202h207zM646 652l-406 -652h-32l406 652h32z
M609 210q-60 26 -60 83q0 46 33.5 73t92.5 27t92.5 -26t33.5 -72q0 -61 -60 -85q77 -24 77 -98q0 -56 -38 -88t-104 -32t-104.5 31.5t-38.5 86.5q0 76 76 100zM675 366q-45 0 -70 -19t-25 -54q0 -33 25.5 -52t69.5 -19q45 0 70 19t25 52q0 35 -24.5 54t-70.5 19zM675 196
q-52 0 -81 -23t-29 -63q0 -43 29.5 -67t81.5 -24t81 24t29 67q0 41 -29.5 63.5t-81.5 22.5z" />
    <glyph glyph-name="seveneighths" unicode="&#x215e;" horiz-adv-x="854" 
d="M318 652v-26q-2 -3 -6 -7q-2 -3 -3 -4l-21 -21q-63 -69 -99.5 -155t-38.5 -172h-33q1 92 47.5 191t118.5 165h-226v29h261zM646 652l-406 -652h-31l405 652h32zM610 210q-61 24 -61 83q0 46 34 73t92 27q59 0 93 -26t34 -72q0 -61 -61 -85q77 -24 77 -98q0 -56 -38 -88
t-104 -32t-104.5 31.5t-38.5 86.5q0 76 77 100zM676 366q-46 0 -71 -19t-25 -54q0 -33 25.5 -52t70.5 -19q44 0 69.5 19t25.5 52q0 35 -25 54t-70 19zM675 196q-52 0 -81 -23t-29 -63q0 -43 29.5 -67t81.5 -24t81 24t29 67q0 41 -29.5 63.5t-81.5 22.5z" />
    <glyph glyph-name="arrowleft" unicode="&#x2190;" horiz-adv-x="667" 
d="M653 363v-51h-500q16 -19 34 -56t18 -48q0 -14 -14 -14q-9 0 -23 17q-46 54 -132 104q-23 13 -23 21q0 9 16 19q61 36 86.5 56.5t58.5 59.5q8 9 16 9q15 0 15 -15q0 -28 -52 -102h500z" />
    <glyph glyph-name="arrowup" unicode="&#x2191;" horiz-adv-x="669" 
d="M361 13h-53v500q-19 -16 -55.5 -34t-47.5 -18q-14 0 -14 15q0 8 17 23q55 47 103 132q13 23 22 23t19 -16q7 -12 8 -13l9 -16q44 -71 99 -117q9 -8 9 -16q0 -15 -15 -15q-28 0 -101 52v-500z" />
    <glyph glyph-name="arrowright" unicode="&#x2192;" horiz-adv-x="667" 
d="M13 310v51h500q-16 22 -34 58t-18 47q0 14 15 14q8 0 23 -17q45 -55 131 -104q23 -12 23 -21t-16 -18q-63 -39 -88 -58.5t-57 -57.5q-8 -10 -16 -10q-15 0 -15 15q0 27 52 101h-500z" />
    <glyph glyph-name="arrowdown" unicode="&#x2193;" horiz-adv-x="667" 
d="M306 653h53v-500q19 16 56 34t48 18q14 0 14 -15q0 -8 -17 -22q-53 -45 -104 -132q-12 -23 -21 -23q-10 0 -19 16q-1 1 -2 3l-2.5 5t-3.5 5q-4 6 -10 16q-26 43 -45 65t-53 51q-10 8 -10 16q0 15 15 15q30 0 101 -52v500z" />
    <glyph glyph-name="arrowboth" unicode="&#x2194;" horiz-adv-x="667" 
d="M513 310h-361q22 -29 37.5 -59t15.5 -42q0 -15 -15 -15q-7 0 -24 19q-28 33 -54.5 53.5t-88.5 57.5q-10 6 -10 15t23 20q87 51 132 104q14 17 22 17q15 0 15 -14q0 -12 -18 -47t-35 -58h361q-16 22 -34 58t-18 47q0 14 15 14q7 0 23 -17q46 -54 131 -104q23 -11 23 -20
q0 -10 -16 -19q-62 -38 -87.5 -58t-57.5 -58q-8 -10 -16 -10q-15 0 -15 15q0 30 52 101z" />
    <glyph glyph-name="arrowupdn" unicode="&#x2195;" horiz-adv-x="667" 
d="M360 513v-361q71 53 101 53q15 0 15 -15q0 -6 -2.5 -9t-16.5 -15q-48 -42 -89 -108q-1 -1 -4.5 -6.5t-5.5 -9.5q-2 -3 -7 -13q-11 -16 -20 -16t-21 23q-50 86 -104 132q-17 14 -17 22q0 15 14 15q11 0 48 -18.5t56 -34.5v361q-20 -15 -56.5 -33.5t-47.5 -18.5
q-14 0 -14 15q0 6 4 10.5t27 24.5q45 42 90 120q13 23 21 23q10 0 20 -16q5 -10 7 -13q8 -12 10 -16q26 -43 45 -65.5t54 -51.5q9 -8 9 -16q0 -15 -15 -15q-29 0 -101 52z" />
    <glyph glyph-name="arrowupdnbse" unicode="&#x21a8;" horiz-adv-x="667" 
d="M361 513v-361q69 53 99 53q15 0 15 -15q0 -6 -2.5 -9t-15.5 -15q-47 -41 -87 -108q-7 -9 -10 -16q-1 -1 -8 -13l-4 -6q-6 -10 -15 -10q-8 0 -22 23q-49 86 -103 132q-17 15 -17 22q0 15 14 15q11 0 47 -18.5t56 -34.5v361q-20 -15 -56.5 -33.5t-47.5 -18.5q-14 0 -14 15
q0 6 4 10.5t27 24.5q44 41 90 120q13 23 21 23q10 0 20 -16q4 -7 8 -13q1 -2 9 -16q26 -43 45 -66t52 -51q9 -8 9 -16q0 -15 -15 -15q-27 0 -99 52zM201 -64h264v-47h-264v47z" />
    <glyph glyph-name="partialdiff" unicode="&#x2202;" 
d="M98 638l5 36q142 -22 227 -105q61 -60 96 -150.5t35 -188.5q0 -89 -37 -146q-29 -44 -75 -70t-98 -26q-88 0 -150 66t-62 158q0 94 61 159.5t149 65.5q71 0 118 -39q20 -15 44 -52l-5 12q-24 75 -51.5 120t-74.5 84q-81 62 -182 76zM259 404q-77 0 -129.5 -55.5
t-52.5 -137.5q0 -77 51.5 -133t122.5 -56q74 0 123 55.5t49 140.5q0 96 -59 146q-46 40 -105 40z" />
    <glyph glyph-name="emptyset" unicode="&#x2205;" horiz-adv-x="618" 
d="M439 667l48 -25l-48 -88q113 -80 113 -204q0 -102 -72 -172.5t-176 -70.5q-46 0 -79 16l-63 -123l-48 25l61 122q-108 79 -108 202q0 102 71 172.5t173 70.5q39 0 81 -14zM416 502l-165 -330q32 -8 58 -8q77 0 132 54.5t55 130.5q0 47 -21.5 89t-58.5 64zM200 198
l166 329q-28 8 -54 8q-78 0 -133.5 -54.5t-55.5 -130.5q0 -90 77 -152z" />
    <glyph glyph-name="Delta" unicode="&#x2206;" horiz-adv-x="608" 
d="M5 0l278 667h42l278 -667h-598zM60 36h487l-243 585z" />
    <glyph glyph-name="product" unicode="&#x220f;" horiz-adv-x="667" 
d="M31 750h605v-35h-75v-930h75v-35h-195v35h82v930h-379v-930h80v-35h-193v35h75v930h-75v35z" />
    <glyph glyph-name="summation" unicode="&#x2211;" horiz-adv-x="667" 
d="M585 750v-216h-38l-3 177h-464l253 -440l-253 -483h473l2 176h40v-214h-560v45l249 476l-249 437v42h550z" />
    <glyph glyph-name="minus" unicode="&#x2212;" horiz-adv-x="560" 
d="M54 337h452v-32h-452v32z" />
    <glyph glyph-name="uni2218" unicode="&#x2218;" 
d="M253 480q56 0 95.5 -41t39.5 -99t-40 -99t-97 -41t-97.5 41t-40.5 99t40.5 99t99.5 41zM252 433q-39 0 -65.5 -27t-26.5 -66q0 -38 27 -65.5t64 -27.5t63.5 27.5t26.5 65.5t-26 65.5t-63 27.5z" />
    <glyph glyph-name="radical" unicode="&#x221a;" horiz-adv-x="667" 
d="M667 827v-35h-205l-249 -792h-40l-98 314h-75v35h102l50 -157q21 -70 39 -132h1q42 140 117 378l122 389h236z" />
    <glyph glyph-name="infinity" unicode="&#x221e;" horiz-adv-x="667" 
d="M334 316q-43 -67 -82.5 -95t-88.5 -28q-64 0 -103.5 41.5t-39.5 107.5q0 64 40.5 104.5t103.5 40.5q47 0 87.5 -29.5t81.5 -93.5q43 67 83 95t90 28q63 0 102.5 -41.5t39.5 -106.5t-39.5 -105.5t-102.5 -40.5q-50 0 -89.5 28t-82.5 95zM351 340q40 -62 75.5 -89.5
t78.5 -27.5q48 0 78.5 32.5t30.5 84.5q0 51 -31 84t-79 33q-43 0 -76.5 -26t-76.5 -91zM316 340q-40 63 -75 90t-78 27q-48 0 -78.5 -32.5t-30.5 -84.5q0 -51 31 -84t79 -33q43 0 76 25.5t76 91.5z" />
    <glyph glyph-name="orthogonal" unicode="&#x221f;" horiz-adv-x="345" 
d="M25 460h295v-31h-295v31z" />
    <glyph glyph-name="intersection" unicode="&#x2229;" horiz-adv-x="521" 
d="M487 0h-41v325q0 106 -6.5 150t-25.5 73q-25 37 -66.5 59.5t-86.5 22.5q-48 0 -91.5 -25t-66.5 -65q-16 -28 -21.5 -73.5t-5.5 -141.5v-325h-41v322q0 124 7.5 168t33.5 82q65 95 185 95q62 0 114 -29.5t82 -81.5q19 -33 24.5 -76.5t5.5 -157.5v-322z" />
    <glyph glyph-name="union" unicode="&#x222a;" horiz-adv-x="521" 
d="M35 667h41v-325q0 -106 6.5 -150t25.5 -73q24 -37 66 -59.5t87 -22.5q48 0 91.5 25t66.5 65q16 29 21.5 73.5t5.5 141.5v325h41v-322q0 -123 -7.5 -167.5t-33.5 -82.5q-67 -95 -185 -95q-62 0 -114 29.5t-82 81.5q-19 33 -24.5 76.5t-5.5 157.5v322z" />
    <glyph glyph-name="integral" unicode="&#x222b;" 
d="M124 -239l12 38q19 -10 38 -10q41 0 50 34q5 15 5 80v688q1 64 2 77t6 27q8 25 32 40t56 15q25 0 52 -11l-12 -38q-21 11 -38 11q-41 0 -50 -34q-5 -14 -5 -73v-695q0 -93 -13 -114q-10 -20 -35.5 -32.5t-55.5 -12.5q-22 0 -44 10z" />
    <glyph glyph-name="uni222E" unicode="&#x222e;" 
d="M122 -239l12 38q22 -11 39 -11q40 0 51 34q5 17 5 74v208q-58 6 -97 50.5t-39 103.5t38 101.5t98 50.5v196q0 74 12 97q21 47 81 47q25 0 53 -11l-11 -38q-23 11 -40 11q-41 0 -50 -34q-5 -15 -5 -71v-197q62 -7 100.5 -49t38.5 -103t-39.5 -104.5t-99.5 -49.5v-208
q0 -78 -10 -99q-22 -47 -87 -47q-26 0 -50 11zM269 384v-254q49 6 80 41.5t31 85.5t-31.5 86t-79.5 41zM229 131v253q-46 -5 -77 -41t-31 -85t31 -85.5t77 -41.5z" />
    <glyph glyph-name="uni2236" unicode="&#x2236;" horiz-adv-x="280" 
d="M141 491q17 0 29 -12.5t12 -29.5t-12.5 -29.5t-29.5 -12.5t-29.5 12.5t-12.5 29.5q0 18 12.5 30t30.5 12zM141 235q17 0 29 -12.5t12 -29.5t-12.5 -29.5t-29.5 -12.5t-29.5 12.5t-12.5 29.5t12.5 29.5t30.5 12.5z" />
    <glyph glyph-name="similar" unicode="&#x223c;" 
d="M39 273l-27 19q53 101 129 101q40 0 117 -42q70 -37 102 -37q30 0 53 18t49 62l27 -19q-51 -100 -130 -100q-23 0 -46.5 9t-86.5 42q-54 29 -87 29q-28 0 -51.5 -19t-48.5 -63z" />
    <glyph glyph-name="approxequal" unicode="&#x2248;" 
d="M39 347l-27 18q53 100 129 100q40 0 117 -42q70 -37 102 -37q30 0 52.5 17.5t49.5 62.5l27 -18q-52 -100 -132 -100q-23 0 -46.5 9t-84.5 41q-54 29 -87 29q-29 0 -52 -18.5t-48 -61.5zM39 200l-27 17q53 101 129 101q38 0 117 -42q71 -38 102 -38t53 17.5t49 62.5
l27 -17q-51 -101 -132 -101q-22 0 -46 9.5t-85 41.5q-54 29 -87 29q-29 0 -52 -18.5t-48 -61.5z" />
    <glyph glyph-name="notequal" unicode="&#x2260;" 
d="M277 420l57 119l34 -8l-53 -111h152v-36h-168l-51 -109h219v-36h-235l-60 -129l-34 9l57 120h-162v36h177l51 109h-228v36h244z" />
    <glyph glyph-name="equivalence" unicode="&#x2261;" 
d="M33 497h433v-38h-433v38zM33 352h433v-38h-433v38zM33 207h433v-38h-433v38z" />
    <glyph glyph-name="lessequal" unicode="&#x2264;" 
d="M466 570v-42l-386 -160l386 -160v-42l-433 183v38zM466 137v-38h-433v38h433z" />
    <glyph glyph-name="greaterequal" unicode="&#x2265;" 
d="M33 166v42l386 160l-386 160v42l433 -183v-38zM33 99v38h433v-38h-433z" />
    <glyph glyph-name="dotmath" unicode="&#x22c5;" horiz-adv-x="200" 
d="M124 294v-95h-47v95h47z" />
    <glyph glyph-name="house" unicode="&#x2302;" horiz-adv-x="753" 
d="M84 0v400l292 329l293 -329v-400h-585zM137 51h479v328l-240 270l-239 -270v-328z" />
    <glyph glyph-name="revlogicalnot" unicode="&#x2310;" 
d="M75 0h-42v271h433v-38h-391v-233z" />
    <glyph glyph-name="uni2319" unicode="&#x2319;" 
d="M75 271v-233h391v-38h-433v271h42z" />
    <glyph glyph-name="integraltp" unicode="&#x2320;" 
d="M272 -250h-43v841q1 64 2 77t6 27q8 25 32 40t56 15q25 0 52 -11l-12 -38q-21 11 -38 11q-41 0 -50 -34q-5 -14 -5 -73v-855z" />
    <glyph glyph-name="integralbt" unicode="&#x2321;" 
d="M228 750h43v-841q0 -83 -7 -104q-9 -25 -33 -40t-56 -15q-25 0 -52 11l12 38q21 -11 38 -11q41 0 50 34q5 15 5 73v855z" />
    <glyph glyph-name="filledbox" unicode="&#x25a0;" horiz-adv-x="667" 
d="M667 0h-667v667h667v-667z" />
    <glyph glyph-name="uni25A1" unicode="&#x25a1;" horiz-adv-x="667" 
d="M667 0h-667v667h667v-667zM620 47v573h-573v-573h573z" />
    <glyph glyph-name="H18551" unicode="&#x25ab;" horiz-adv-x="345" 
d="M25 460h130v128h33v-128h132v-31h-132v-128h-33v128h-130v31z" />
    <glyph glyph-name="filledrect" unicode="&#x25ac;" horiz-adv-x="667" 
d="M667 333v-333h-667v333h667z" />
    <glyph glyph-name="uni25AE" unicode="&#x25ae;" horiz-adv-x="667" 
d="M500 0h-333v667h333v-667z" />
    <glyph glyph-name="uni25AF" unicode="&#x25af;" horiz-adv-x="667" 
d="M333 589q108 0 184 -74.5t76 -180.5t-76.5 -181.5t-183.5 -75.5q-109 0 -184.5 75.5t-75.5 184.5q0 103 76.5 177.5t183.5 74.5z" />
    <glyph glyph-name="triagup" unicode="&#x25b2;" horiz-adv-x="667" 
d="M633 67h-600l300 561z" />
    <glyph glyph-name="uni25B4" unicode="&#x25b4;" 
d="M466 147h-433l217 405z" />
    <glyph glyph-name="uni25B8" unicode="&#x25b8;" 
d="M71 119v433l405 -217z" />
    <glyph glyph-name="triagdn" unicode="&#x25bc;" horiz-adv-x="667" 
d="M33 600h600l-300 -561z" />
    <glyph glyph-name="uni25BE" unicode="&#x25be;" 
d="M33 520h433l-216 -405z" />
    <glyph glyph-name="uni25C2" unicode="&#x25c2;" 
d="M428 552v-433l-405 216z" />
    <glyph glyph-name="lozenge" unicode="&#x25ca;" horiz-adv-x="667" 
d="M334 693l259 -359l-259 -360l-260 360zM334 586l-184 -252l184 -252l183 252z" />
    <glyph glyph-name="circle" unicode="&#x25cb;" horiz-adv-x="667" 
d="M333 589q108 0 184 -74.5t76 -180.5t-76.5 -181.5t-183.5 -75.5q-109 0 -184.5 75.5t-75.5 184.5q0 103 76.5 177.5t183.5 74.5zM333 542q-87 0 -150 -60.5t-63 -145.5q0 -89 62 -150.5t151 -61.5q88 0 150.5 61.5t62.5 148.5q0 86 -62.5 147t-150.5 61z" />
    <glyph glyph-name="invbullet" unicode="&#x25d8;" horiz-adv-x="667" 
d="M0 0v667h667v-667h-667zM336 474q-59 0 -99.5 -41t-40.5 -100q0 -58 40.5 -99t97.5 -41t97 41t40 100q0 57 -40 98.5t-95 41.5z" />
    <glyph glyph-name="invcircle" unicode="&#x25d9;" horiz-adv-x="667" 
d="M334 543q88 0 150.5 -61.5t62.5 -147.5q0 -87 -62.5 -149t-150.5 -62q-90 0 -152 62t-62 151q0 85 63 146t151 61zM667 0h-667v667h667v-667zM334 590q-107 0 -184 -74t-77 -178q0 -110 75.5 -185.5t185.5 -75.5q107 0 183.5 75.5t76.5 181.5t-76.5 181t-183.5 75z" />
    <glyph glyph-name="openbullet" unicode="&#x25e6;" 
d="M253 480q56 0 95.5 -41t39.5 -99t-40 -99t-97 -41t-97.5 41t-40.5 99t40.5 99t99.5 41zM252 433q-39 0 -65.5 -27t-26.5 -66q0 -38 27 -65.5t64 -27.5t63.5 27.5t26.5 65.5t-26 65.5t-63 27.5z" />
    <glyph glyph-name="smileface" unicode="&#x263a;" horiz-adv-x="667" 
d="M241 466q17 0 30 -13t13 -31t-13 -31t-31 -13t-31 13t-13 31q0 19 13 31.5t32 12.5zM435 465q17 0 30 -13t13 -31t-13 -31t-31 -13t-31 13t-13 31q0 19 13 31.5t32 12.5zM540 372q-4 -60 -15 -95t-35 -66q-56 -70 -156 -70q-110 0 -164 83q-20 29 -28.5 60t-13.5 88
q13 -55 42 -88q61 -70 164 -70q102 0 165 70q28 33 41 88zM339 650q127 0 219 -93.5t92 -222.5q0 -131 -92.5 -224t-223.5 -93q-132 0 -224.5 93t-92.5 226q0 131 94 222.5t228 91.5zM339 608q-126 0 -208 -91q-71 -79 -71 -181q0 -116 80 -196.5t195 -80.5
q113 0 193.5 80.5t80.5 194.5q0 112 -80 193t-190 81z" />
    <glyph glyph-name="invsmileface" unicode="&#x263b;" horiz-adv-x="667" 
d="M339 650q127 0 219 -93.5t92 -223.5q0 -131 -93 -223.5t-223 -92.5q-132 0 -224.5 93t-92.5 226q0 131 94 222.5t228 91.5zM241 465q-19 0 -32 -12.5t-13 -30.5t13 -31t31 -13t31 12.5t13 31.5q0 17 -13 30t-30 13zM434 465q-18 0 -31 -12.5t-13 -31.5q0 -18 12.5 -31
t31.5 -13q18 0 30.5 13t12.5 31t-12.5 31t-30.5 13zM540 372q-13 -55 -41 -89q-61 -70 -165 -70q-103 0 -164 70q-29 33 -42 89q5 -61 15.5 -95.5t35.5 -65.5q55 -69 155 -69q110 0 165 82q20 29 28.5 61t12.5 87z" />
    <glyph glyph-name="sun" unicode="&#x263c;" horiz-adv-x="667" 
d="M159 472l-75 75l36 35l75 -75q49 40 113 48v105h50v-105q66 -8 114 -48l74 75l35 -35l-74 -75q38 -46 47 -113h105v-51h-105q-7 -63 -47 -114l74 -74l-35 -35l-74 74q-54 -40 -114 -47v-105h-50v105q-57 6 -113 47l-75 -74l-36 35l75 74q-41 51 -47 114h-105v51h105
q9 63 47 113zM336 493q-68 0 -115 -46t-47 -112q0 -67 46.5 -114t112.5 -47t112.5 47t46.5 113q0 65 -46 112t-110 47z" />
    <glyph glyph-name="female" unicode="&#x2640;" horiz-adv-x="667" 
d="M308 209v105q-69 11 -112 62t-43 120q0 76 52.5 129.5t126.5 53.5q75 0 128 -53.5t53 -129.5q0 -70 -44 -121t-114 -61v-105h164v-43h-164v-166h-47v166h-161v43h161zM335 632q-56 0 -95.5 -39.5t-39.5 -96.5q0 -56 39 -95.5t94 -39.5t94 39.5t39 95.5q0 55 -39 95.5
t-92 40.5z" />
    <glyph glyph-name="male" unicode="&#x2642;" horiz-adv-x="667" 
d="M569 499l-151 -151q35 -49 35 -110q0 -76 -53 -129.5t-127 -53.5t-127 53.5t-53 129.5t53 129.5t128 53.5q62 0 111 -39l151 151q-55 13 -106 40q-21 11 -21 23t14 12q3 0 19 -3q41 -8 83 -8q58 0 106 13q4 1 10 1q10 0 10 -10q0 -4 -5 -23q-10 -41 -10 -88q0 -43 9 -83
q3 -15 3 -19q0 -14 -12 -14q-10 0 -24 21q-28 42 -43 104zM275 374q-57 0 -96 -39.5t-39 -96.5q0 -56 39 -96t94 -40t94 40t39 96t-38.5 96t-92.5 40z" />
    <glyph glyph-name="spade" unicode="&#x2660;" horiz-adv-x="667" 
d="M107 0v18q71 14 103.5 29t62.5 49q53 61 57 159q-12 -24 -14 -27q-19 -34 -55.5 -54.5t-76.5 -20.5q-49 0 -85 37t-36 88q0 82 103 169q140 112 164 239q27 -80 51.5 -116t99.5 -106q73 -66 97.5 -103t24.5 -84q0 -52 -35 -87.5t-87 -35.5q-32 0 -63.5 17t-51.5 45
q-9 11 -25 39q7 -106 59 -163q30 -31 62 -45t105 -29v-18h-460z" />
    <glyph glyph-name="club" unicode="&#x2663;" horiz-adv-x="667" 
d="M561 0h-455v18q113 16 167 78.5t54 177.5q-22 -38 -34 -52q-27 -35 -66.5 -55t-79.5 -20q-59 0 -101.5 44.5t-42.5 107.5q0 62 38.5 104.5t93.5 42.5q30 0 71 -21l15 -8q-35 53 -35 100q0 59 43.5 101t104.5 42t104 -42t43 -101q0 -48 -35 -100l19 10q39 19 67 19
q55 0 93.5 -42.5t38.5 -104.5q0 -64 -42.5 -108t-103.5 -44q-37 0 -76 19t-64 50q-8 10 -38 58q2 -65 15 -106t44 -76q32 -32 62.5 -46.5t99.5 -27.5v-18z" />
    <glyph glyph-name="heart" unicode="&#x2665;" horiz-adv-x="667" 
d="M332 -11q-17 67 -53 129t-133 192q-54 74 -72 113t-18 82q0 56 37.5 95t91.5 39q76 0 120 -68q13 -19 27 -62q38 131 147 131q55 0 93.5 -38.5t38.5 -92.5q0 -50 -24 -100.5t-86 -128.5q-143 -178 -169 -291z" />
    <glyph glyph-name="diamond" unicode="&#x2666;" horiz-adv-x="667" 
d="M333 693q22 -47 111.5 -173t142.5 -186q-71 -85 -141.5 -184.5t-112.5 -175.5q-71 135 -253 360q180 226 253 359z" />
    <glyph glyph-name="musicalnote" unicode="&#x266a;" horiz-adv-x="667" 
d="M306 156v511h47v-61q3 -4 15 -18l52 -63q91 -109 91 -225q0 -93 -57 -162h-28q38 77 38 149q0 65 -32.5 116t-78.5 57v-304q0 -72 -43 -118.5t-110 -46.5q-32 0 -50.5 16t-18.5 45q0 46 36.5 81t84.5 35q30 0 54 -12z" />
    <glyph glyph-name="uni266C" unicode="&#x266c;" horiz-adv-x="667" 
d="M616 694v-502q0 -47 -17 -81q-19 -38 -55.5 -61t-78.5 -23q-32 0 -50 16t-18 45q0 45 36 80t83 35q30 0 54 -11v270l-329 -90v-236q0 -72 -42.5 -117.5t-109.5 -45.5q-32 0 -50.5 16t-18.5 44q0 45 36.5 79.5t84.5 34.5q29 0 54 -11v451zM241 448l329 90v70l-329 -90v-70
z" />
    <glyph glyph-name="dotlessj" unicode="&#xf6be;" horiz-adv-x="187" 
d="M111 479v-530q0 -70 -24 -97t-86 -27q-13 0 -22 1v33q9 -1 19 -1q28 0 40 4t21 17q14 21 14 68v532h38z" />
    <glyph glyph-name="commaaccent" unicode="&#xf6c3;" 
d="M274 -54v-58q0 -81 -56 -104v27q27 22 30 68h-17v67h43z" />
    <glyph glyph-name="Acute" unicode="&#xf6c9;" 
d="M383 845l-136 -122h-37l123 122h50z" />
    <glyph glyph-name="Caron" unicode="&#xf6ca;" 
d="M106 848h42l104 -101l104 101h39l-124 -125h-41z" />
    <glyph glyph-name="Dieresis" unicode="&#xf6cb;" 
d="M367 833v-94h-41v94h41zM174 833v-94h-41v94h41z" />
    <glyph glyph-name="Grave" unicode="&#xf6ce;" 
d="M117 845h50l123 -122h-36z" />
    <glyph glyph-name="Hungarumlaut" unicode="&#xf6cf;" 
d="M288 845l-103 -122h-34l90 122h47zM428 845l-103 -122h-34l90 122h47z" />
    <glyph glyph-name="Macron" unicode="&#xf6d0;" 
d="M391 797v-31h-282v31h282z" />
    <glyph glyph-name="commasuperior" unicode="&#xf6e2;" horiz-adv-x="139" 
d="M88 341v-62q0 -46 -10.5 -70t-36.5 -36v25q25 14 25 69h-14v74h36z" />
    <glyph glyph-name="periodsuperior" unicode="&#xf6e8;" horiz-adv-x="139" 
d="M88 341v-75h-36v75h36z" />
    <glyph glyph-name="Dbreve" horiz-adv-x="660" 
d="M84 667h225q134 0 209 -69q95 -89 95 -254q0 -176 -94 -269q-40 -40 -89 -57.5t-120 -17.5h-226v667zM125 632v-597h171q70 0 113.5 14t78.5 47q84 81 84 245q0 146 -75 224q-66 67 -190 67h-182zM398 841h30q-8 -52 -43 -81.5t-89 -29.5q-55 0 -91 30.5t-40 80.5h31
q16 -80 101 -80q83 0 101 80z" />
    <glyph glyph-name="Adotaccent" horiz-adv-x="601" 
d="M324 667l265 -667h-44l-84 214h-322l-84 -214h-44l270 667h43zM448 249l-122 309q0 1 -16 46l-3 8q0 1 -1 3t-2 6t-2 7q-15 -42 -25 -67l-125 -312h296zM322 833v-94h-41v94h41z" />
    <glyph glyph-name="Fdotaccent" horiz-adv-x="523" 
d="M504 667v-35h-379v-268h340v-35h-340v-329h-41v667h420zM318 833v-94h-41v94h41z" />
    <glyph glyph-name="ahungarumlaut" horiz-adv-x="491" 
d="M475 34v-31q-16 -6 -33 -6q-36 0 -48.5 17t-12.5 68v20q-58 -116 -187 -116q-75 0 -117 35.5t-42 98.5q0 94 90 128q28 11 53.5 14.5t132.5 12.5q41 4 54.5 17t13.5 47q0 60 -27 86q-37 35 -109 35q-133 0 -145 -128h-37q5 78 53.5 119.5t133.5 41.5q56 0 98 -19.5
t59 -53.5q8 -19 10 -37.5t2 -88.5v-215q0 -28 7 -38.5t27 -10.5q9 0 24 4zM379 187v85q-19 -23 -108 -31q-103 -11 -142 -28q-57 -25 -57 -88q0 -49 34 -78t91 -29q79 0 130.5 47.5t51.5 121.5zM400 687l-90 -132h-29l77 132h42zM287 687l-90 -132h-29l76 132h43z" />
    <glyph glyph-name="adotaccent" horiz-adv-x="491" 
d="M475 34v-31q-16 -6 -33 -6q-36 0 -48.5 17t-12.5 68v20q-58 -116 -187 -116q-75 0 -117 35.5t-42 98.5q0 94 90 128q28 11 53.5 14.5t132.5 12.5q41 4 54.5 17t13.5 47q0 60 -27 86q-37 35 -109 35q-133 0 -145 -128h-37q5 78 53.5 119.5t133.5 41.5q56 0 98 -19.5
t59 -53.5q8 -19 10 -37.5t2 -88.5v-215q0 -28 7 -38.5t27 -10.5q9 0 24 4zM379 187v85q-19 -23 -108 -31q-103 -11 -142 -28q-57 -25 -57 -88q0 -49 34 -78t91 -29q79 0 130.5 47.5t51.5 121.5zM264 668v-96h-39v96h39z" />
    <glyph glyph-name="one.numerator" horiz-adv-x="275" 
d="M168 658v-265h-29v221q-32 -24 -79 -27v23q56 8 84 48h24z" />
    <glyph glyph-name="two.numerator" horiz-adv-x="274" 
d="M242 418v-25h-209q2 36 21 57t80 56q42 25 58 42.5t16 38.5q0 24 -18.5 38t-49.5 14q-72 0 -72 -77h-28q0 101 101 101q44 0 70 -21t26 -55q0 -31 -21 -53t-85 -60q-34 -19 -47 -30t-18 -26h176z" />
    <glyph glyph-name="three.numerator" horiz-adv-x="274" 
d="M61 567h-27q3 96 105 96q43 0 69.5 -19.5t26.5 -51.5q0 -38 -41 -57q49 -18 49 -64q0 -37 -30 -60t-77 -23q-50 0 -79.5 23.5t-29.5 63.5v13h28q1 -34 10 -47q21 -30 71 -30q34 0 56 16t22 42q0 53 -84 53h-15v24q8 -1 18 -1q73 0 73 46q0 22 -18 35t-50 13
q-74 0 -77 -72z" />
    <glyph glyph-name="four.numerator" horiz-adv-x="275" 
d="M248 482v-24h-49v-65h-28v65h-144v23l147 178h25v-177h49zM171 482v137l-112 -137h112z" />
    <glyph glyph-name="five.numerator" horiz-adv-x="275" 
d="M230 657v-24h-139l-19 -79q27 20 66 20q46 0 76 -26t30 -66t-30.5 -67t-77.5 -27t-75 22t-31 62h27q9 -61 79 -61q35 0 57 19.5t22 50.5t-22.5 50.5t-57.5 19.5q-44 0 -72 -35h-26l33 141h160z" />
    <glyph glyph-name="six.numerator" horiz-adv-x="274" 
d="M240 597h-29q-16 42 -67 42q-76 0 -85 -106q30 38 84 38q44 0 74 -26t30 -65q0 -40 -30.5 -66t-76.5 -26q-109 0 -109 128q0 70 29.5 108.5t83.5 38.5q78 0 96 -66zM142 548q-34 0 -56.5 -19.5t-22.5 -48.5t22.5 -49t55.5 -20q34 0 56 19.5t22 49.5q0 29 -22 48.5
t-55 19.5z" />
    <glyph glyph-name="seven.numerator" horiz-adv-x="274" 
d="M243 657v-21l-8 -8q-5 -4 -15 -14q-101 -98 -104 -221h-29q1 62 34 128t87 112h-166v24h201z" />
    <glyph glyph-name="eight.numerator" horiz-adv-x="274" 
d="M79 537q-39 18 -39 56q0 32 26 51t71 19t71 -18.5t26 -50.5q0 -39 -39 -57q51 -17 51 -66q0 -38 -29.5 -60.5t-79.5 -22.5q-51 0 -80.5 22t-29.5 60q0 49 52 67zM137 639q-68 0 -68 -46q0 -21 18 -33t50 -12t50 12t18 33q0 46 -68 46zM136 525q-37 0 -58.5 -14.5
t-21.5 -40.5q0 -28 22 -43.5t60 -15.5t59 15.5t21 43.5q0 26 -21.5 40.5t-60.5 14.5z" />
    <glyph glyph-name="nine.numerator" horiz-adv-x="274" 
d="M35 454h28q18 -43 68 -43q40 0 60.5 26.5t23.5 82.5q-30 -42 -84 -42q-46 0 -75.5 26t-29.5 66t30.5 66.5t75.5 26.5q111 0 111 -131q0 -144 -112 -144q-78 0 -96 66zM133 639q-34 0 -56.5 -19.5t-22.5 -49.5q0 -29 22 -48.5t56 -19.5t56 19.5t22 48.5t-22.5 49t-54.5 20
z" />
    <glyph glyph-name="zero.numerator" horiz-adv-x="274" 
d="M138 663q53 0 82.5 -36t29.5 -101q0 -66 -29.5 -102t-84.5 -36q-54 0 -83 34.5t-29 99.5q0 67 30 104t84 37zM139 639q-41 0 -63.5 -31t-22.5 -88q0 -53 22 -81t62 -28q41 0 63 29.5t22 84.5q0 54 -21.5 84t-61.5 30z" />
    <glyph glyph-name="one.denominator" horiz-adv-x="275" 
d="M168 265v-265h-29v221q-32 -24 -79 -27v23q56 8 84 48h24z" />
    <glyph glyph-name="two.denominator" horiz-adv-x="274" 
d="M242 25v-25h-209q2 35 21.5 57t79.5 56q41 24 57.5 42t16.5 39q0 24 -18.5 38t-49.5 14q-72 0 -72 -77h-28q0 101 101 101q44 0 70 -21t26 -55q0 -31 -21 -53t-85 -60q-33 -19 -46 -30t-19 -26h176z" />
    <glyph glyph-name="three.denominator" horiz-adv-x="274" 
d="M61 174h-27q3 95 105 95q43 0 69.5 -19.5t26.5 -51.5q0 -37 -41 -56q49 -18 49 -64q0 -37 -30 -60t-77 -23q-50 0 -79.5 23.5t-29.5 63.5v13h28q1 -34 10 -47q21 -30 71 -30q34 0 56 16t22 42q0 53 -84 53h-15v24q8 -1 18 -1q73 0 73 46q0 22 -18.5 34.5t-49.5 12.5
q-74 0 -77 -71z" />
    <glyph glyph-name="four.denominator" horiz-adv-x="275" 
d="M248 89v-24h-49v-65h-28v65h-144v23l147 177h25v-176h49zM171 89v136l-112 -136h112z" />
    <glyph glyph-name="five.denominator" horiz-adv-x="275" 
d="M230 263v-24h-139l-19 -78q29 20 66 20q46 0 76 -26.5t30 -66.5t-31 -66.5t-77 -26.5q-47 0 -75 21.5t-31 61.5h27q9 -60 79 -60q35 0 57 19.5t22 50.5t-22.5 50.5t-57.5 19.5q-44 0 -72 -35h-26l33 140h160z" />
    <glyph glyph-name="six.denominator" horiz-adv-x="274" 
d="M240 204h-29q-16 42 -67 42q-76 0 -85 -106q30 38 84 38q44 0 74 -26t30 -65q0 -40 -30.5 -66t-76.5 -26q-53 0 -81 33t-28 95q0 70 29.5 108.5t83.5 38.5q78 0 96 -66zM142 155q-34 0 -56.5 -19.5t-22.5 -48.5t22.5 -49t55.5 -20q34 0 56 19.5t22 49.5q0 29 -22 48.5
t-55 19.5z" />
    <glyph glyph-name="seven.denominator" horiz-adv-x="274" 
d="M243 263v-21l-8 -8q-5 -4 -15 -14q-101 -98 -104 -220h-29q1 61 34 127.5t87 111.5h-166v24h201z" />
    <glyph glyph-name="eight.denominator" horiz-adv-x="274" 
d="M79 144q-39 16 -39 55q0 32 26 51t71 19t71 -18.5t26 -50.5q0 -38 -39 -56q51 -19 51 -66q0 -38 -29.5 -60.5t-79.5 -22.5q-51 0 -80.5 22t-29.5 60q0 49 52 67zM137 245q-68 0 -68 -46q0 -21 18 -33t50 -12t50 12t18 33q0 46 -68 46zM136 131q-38 0 -59 -14.5t-21 -40.5
q0 -27 22 -42.5t60 -15.5q37 0 58.5 15.5t21.5 42.5q0 26 -21.5 40.5t-60.5 14.5z" />
    <glyph glyph-name="nine.denominator" horiz-adv-x="274" 
d="M35 60h28q18 -42 68 -42q40 0 60.5 26t23.5 82q-29 -41 -84 -41q-45 0 -75 26t-30 65q0 40 30.5 66.5t75.5 26.5q111 0 111 -130q0 -144 -112 -144q-79 0 -96 65zM133 245q-34 0 -56.5 -19.5t-22.5 -49.5q0 -29 22 -48t56 -19t56 19.5t22 48.5q0 28 -22.5 48t-54.5 20z
" />
    <glyph glyph-name="zero.denominator" horiz-adv-x="274" 
d="M138 269q53 0 82.5 -36t29.5 -101t-29.5 -101t-84.5 -36q-54 0 -83 34.5t-29 98.5q0 67 30 104t84 37zM139 245q-41 0 -63.5 -31t-22.5 -87q0 -53 22 -81t62 -28q41 0 63 29.5t22 83.5q0 55 -21.5 84.5t-61.5 29.5z" />
    <glyph glyph-name="oneone" horiz-adv-x="853" 
d="M217 654v-387h-32v333q-40 -38 -105 -44v27q39 6 64.5 22.5t45.5 48.5h27zM645 652l-405 -652h-32l406 652h31zM712 387v-387h-32v333q-40 -38 -105 -44v27q39 6 64.5 22.5t45.5 48.5h27z" />
    <glyph glyph-name="onefifth" horiz-adv-x="854" 
d="M217 654v-387h-32v333q-40 -38 -105 -44v27q39 6 64.5 22.5t45.5 48.5h27zM645 652l-405 -652h-32l406 652h31zM795 385v-29h-183l-29 -130q39 36 92 36q60 0 99 -38t39 -96q0 -59 -39.5 -97.5t-100.5 -38.5q-64 0 -100 34.5t-38 96.5h30q3 -37 14 -56q27 -48 94 -48
q47 0 78 30.5t31 77.5t-30.5 77t-78.5 30q-62 0 -98 -51h-29l42 202h207z" />
    <glyph glyph-name="twofifth" horiz-adv-x="854" 
d="M315 295v-29h-271q4 50 29 80.5t104 80.5q57 38 78.5 64.5t21.5 59.5q0 38 -25 60t-69 22q-98 0 -99 -115h-31q2 142 131 142q56 0 90 -30t34 -79q0 -44 -27.5 -76.5t-111.5 -87.5q-47 -31 -64.5 -49t-24.5 -43h235zM646 652l-406 -652h-32l406 652h32zM795 385v-29h-183
l-29 -130q39 36 92 36q60 0 99 -38t39 -96q0 -59 -39.5 -97.5t-100.5 -38.5q-64 0 -100 34.5t-38 96.5h30q3 -37 14 -56q27 -48 94 -48q47 0 78 30.5t31 77.5t-30.5 77t-78.5 30q-62 0 -98 -51h-29l42 202h207z" />
    <glyph glyph-name="threefifth" horiz-adv-x="854" 
d="M77 527h-30q5 133 136 133q56 0 90.5 -28t34.5 -73q0 -63 -64 -85q74 -22 74 -96q0 -53 -39 -86.5t-101 -33.5q-64 0 -102.5 34.5t-38.5 91.5v16h31q-1 -5 -1 -11q0 -49 29.5 -76.5t82.5 -27.5q48 0 78 25.5t30 65.5q0 83 -116 83h-17v27h21q101 0 101 73q0 34 -25.5 54
t-68.5 20q-102 0 -105 -106zM646 652l-406 -652h-32l406 652h32zM795 385v-29h-183l-29 -130q39 36 92 36q60 0 99 -38t39 -96q0 -59 -39.5 -97.5t-100.5 -38.5q-64 0 -100 34.5t-38 96.5h30q3 -37 14 -56q27 -48 94 -48q47 0 78 30.5t31 77.5t-30.5 77t-78.5 30
q-62 0 -98 -51h-29l42 202h207z" />
    <glyph glyph-name="fourfifth" horiz-adv-x="854" 
d="M322 391v-27h-65v-97h-31v97h-190v28l192 263h29v-264h65zM226 391v219l-158 -219h158zM646 652l-405 -652h-32l406 652h31zM796 385v-29h-183l-29 -130q39 36 92 36q60 0 99 -38t39 -96q0 -59 -39.5 -97.5t-100.5 -38.5q-64 0 -100 34.5t-38 96.5h30q3 -37 14 -56
q27 -48 94 -48q47 0 78 30.5t31 77.5t-30.5 77t-78.5 30q-62 0 -98 -51h-29l42 202h207z" />
    <glyph glyph-name="onesixth" horiz-adv-x="853" 
d="M217 654v-387h-32v333q-40 -38 -105 -44v27q39 6 64.5 22.5t45.5 48.5h27zM645 652l-405 -652h-32l406 652h31zM810 285h-32q-6 38 -31 59.5t-64 21.5q-55 0 -83 -41.5t-33 -133.5q37 67 116 67q57 0 95.5 -38t38.5 -94q0 -58 -39.5 -96t-98.5 -38q-76 0 -114 58
q-29 42 -29 129q0 103 38 158.5t109 55.5q108 0 127 -108zM681 231q-47 0 -78 -30t-31 -75q0 -46 30.5 -76.5t76.5 -30.5t76.5 30.5t30.5 75.5t-30.5 75.5t-74.5 30.5z" />
    <glyph glyph-name="fivesixth" horiz-adv-x="853" 
d="M300 652v-29h-183l-29 -130q40 36 93 36q59 0 98 -38t39 -96q0 -59 -39.5 -97.5t-100.5 -38.5q-64 0 -100 34.5t-38 96.5h30q3 -37 14 -56q27 -48 94 -48q48 0 78.5 30.5t30.5 77.5t-30.5 77t-78.5 30q-60 0 -98 -51h-29l42 202h207zM646 652l-406 -652h-32l406 652h32z
M810 285h-31q-7 38 -32 59.5t-63 21.5q-56 0 -84 -41.5t-33 -133.5q37 67 116 67q57 0 95.5 -38t38.5 -94q0 -58 -39.5 -96t-98.5 -38q-75 0 -114 58q-28 43 -28 129q0 103 38 158.5t109 55.5q109 0 126 -108zM681 231q-46 0 -77 -30t-31 -75q0 -46 30.5 -76.5t76.5 -30.5
t76 30.5t30 75.5t-30 75.5t-75 30.5z" />
    <glyph glyph-name="Dotaccent" 
d="M270 833v-94h-41v94h41z" />
    <glyph glyph-name="Ring" 
d="M251 896q38 0 65.5 -28t27.5 -67t-27.5 -66.5t-66.5 -27.5t-67 27.5t-28 66.5q0 40 28 67.5t68 27.5zM250 870q-29 0 -49 -20t-20 -49q0 -28 20.5 -48t48.5 -20t48 20t20 48t-20 48.5t-48 20.5z" />
    <glyph glyph-name="Circumflex" 
d="M395 723h-42l-104 101l-105 -101h-38l123 125h42z" />
    <glyph glyph-name="Breve" 
d="M351 841h30q-8 -52 -43 -81.5t-89 -29.5q-55 0 -91 30.5t-40 80.5h31q7 -38 33.5 -59t67.5 -21q83 0 101 80z" />
    <glyph glyph-name="Tilde" 
d="M360 825h27q-17 -81 -72 -81q-27 0 -64 22q-30 19 -40 23.5t-23 4.5q-35 0 -47 -51h-27q7 39 27 60.5t49 21.5q24 0 63 -23q41 -26 62 -26q32 0 45 49z" />
    <glyph glyph-name="Cedilla" 
d="M275 0l-42 -55q23 4 35 4q31 0 51 -16.5t20 -41.5q0 -33 -27.5 -54t-70.5 -21q-37 0 -86 20l10 22q41 -17 74 -17q27 0 45 13t18 33q0 17 -14.5 28t-36.5 11q-20 0 -45 -10l-15 12l55 72h29z" />
    <glyph glyph-name="Ogonek" 
d="M435 0h35q-55 -42 -55 -83q0 -25 19.5 -40t50.5 -15q19 0 45 10v-29q-29 -10 -54 -10q-42 0 -68 21.5t-26 56.5q0 46 53 89z" />
    <glyph glyph-name="commaaccent.sc" 
d="M270 -54v-58q0 -82 -56 -104v27q27 21 30 68h-20v67h46z" />
    <glyph glyph-name="Comma.high" 
d="M373 667v-58q0 -82 -56 -104v27q27 21 30 68h-20v67h46z" />
    <glyph glyph-name="Dieresis.alt" 
d="M334 833v-94h-41v94h41zM207 833v-94h-41v94h41z" />
    <glyph glyph-name="comma.high" 
d="M361 667v-58q0 -81 -56 -104v27q27 22 30 68h-17v67h43z" />
    <glyph glyph-name="dieresis.alt" 
d="M324 668v-96h-39v96h39zM214 668v-96h-39v96h39z" />
    <glyph glyph-name="commareversed" 
d="M209 554v58q0 81 56 104v-27q-27 -22 -30 -68h17v-67h-43z" />
    <glyph glyph-name="zerozero.afrac" horiz-adv-x="274" 
d="M274 338v-24h-274v24h274zM138 663q53 0 82.5 -36t29.5 -101q0 -66 -29.5 -102t-84.5 -36q-54 0 -83 34.5t-29 99.5q0 67 30 104t84 37zM139 639q-41 0 -63.5 -31t-22.5 -88q0 -53 22 -81t62 -28q41 0 63 29.5t22 84.5q0 54 -21.5 84t-61.5 30zM138 269q53 0 82.5 -36
t29.5 -101t-29.5 -101t-84.5 -36q-54 0 -83 34.5t-29 98.5q0 67 30 104t84 37zM139 245q-41 0 -63.5 -31t-22.5 -87q0 -53 22 -81t62 -28q41 0 63 29.5t22 83.5q0 55 -21.5 84.5t-61.5 29.5z" />
    </font>
</defs>
</svg>
