<svg xmlns="http://www.w3.org/2000/svg" xmlns:xlink="http://www.w3.org/1999/xlink" preserveAspectRatio="xMidYMid" width="450" height="36" viewBox="0 0 450 36">
  <defs>
    <style>
      .cls-1 {
        fill: #fff;
        fill-rule: evenodd;
      }
    </style>
  </defs>
  <path d="M449.602,16.767 L449.602,13.941 L448.318,15.810 L448.298,15.810 L447.015,13.947 L447.015,16.767 L446.628,16.767 L446.628,13.278 L447.030,13.278 L448.314,15.183 L449.596,13.278 L449.999,13.278 L449.999,16.767 L449.602,16.767 ZM444.702,16.767 L444.300,16.767 L444.300,13.642 L443.117,13.642 L443.117,13.278 L445.885,13.278 L445.885,13.642 L444.702,13.642 L444.702,16.767 ZM434.574,24.954 C432.748,24.954 430.904,24.341 429.455,23.099 L431.024,21.292 C432.110,22.154 433.247,22.701 434.626,22.701 C435.712,22.701 436.367,22.287 436.367,21.607 L436.367,21.574 C436.367,20.928 435.954,20.596 433.936,20.099 C431.506,19.502 429.938,18.856 429.938,16.552 L429.938,16.520 C429.938,14.415 431.696,13.023 434.161,13.023 C435.919,13.023 437.419,13.553 438.643,14.498 L437.264,16.420 C436.195,15.707 435.144,15.276 434.127,15.276 C433.110,15.276 432.575,15.724 432.575,16.288 L432.575,16.321 C432.575,17.083 433.093,17.332 435.178,17.845 C437.626,18.458 439.005,19.303 439.005,21.326 L439.005,21.359 C439.005,23.662 437.177,24.954 434.574,24.954 ZM419.409,24.954 C417.582,24.954 415.737,24.341 414.290,23.099 L415.858,21.292 C416.945,22.154 418.082,22.701 419.461,22.701 C420.547,22.701 421.202,22.287 421.202,21.607 L421.202,21.574 C421.202,20.928 420.788,20.596 418.772,20.099 C416.341,19.502 414.773,18.856 414.773,16.552 L414.773,16.520 C414.773,14.415 416.531,13.023 418.996,13.023 C420.754,13.023 422.253,13.553 423.477,14.498 L422.098,16.420 C421.029,15.707 419.978,15.276 418.961,15.276 C417.944,15.276 417.410,15.724 417.410,16.288 L417.410,16.321 C417.410,17.083 417.927,17.332 420.013,17.845 C422.460,18.458 423.839,19.303 423.839,21.326 L423.839,21.359 C423.839,23.662 422.012,24.954 419.409,24.954 ZM399.262,13.189 L408.363,13.189 L408.363,15.459 L401.899,15.459 L401.899,17.812 L407.587,17.812 L407.587,20.083 L401.899,20.083 L401.899,22.519 L408.449,22.519 L408.449,24.789 L399.262,24.789 L399.262,13.189 ZM383.959,17.414 L383.959,24.789 L381.338,24.789 L381.338,13.189 L383.786,13.189 L389.440,20.331 L389.440,13.189 L392.060,13.189 L392.060,24.789 L389.801,24.789 L383.959,17.414 ZM371.359,13.189 L374.014,13.189 L374.014,24.789 L371.359,24.789 L371.359,13.189 ZM360.193,24.954 C358.366,24.954 356.521,24.341 355.073,23.099 L356.642,21.292 C357.728,22.154 358.866,22.701 360.245,22.701 C361.330,22.701 361.986,22.287 361.986,21.607 L361.986,21.574 C361.986,20.928 361.571,20.596 359.556,20.099 C357.125,19.502 355.556,18.856 355.556,16.552 L355.556,16.520 C355.556,14.415 357.314,13.023 359.779,13.023 C361.537,13.023 363.037,13.553 364.261,14.498 L362.882,16.420 C361.813,15.707 360.761,15.276 359.745,15.276 C358.727,15.276 358.193,15.724 358.193,16.288 L358.193,16.321 C358.193,17.083 358.710,17.332 360.796,17.845 C363.244,18.458 364.623,19.303 364.623,21.326 L364.623,21.359 C364.623,23.662 362.795,24.954 360.193,24.954 ZM343.596,24.972 C340.356,24.972 338.374,23.231 338.374,19.818 L338.374,13.189 L341.029,13.189 L341.029,19.751 C341.029,21.640 342.011,22.618 343.631,22.618 C345.251,22.618 346.234,21.674 346.234,19.834 L346.234,13.189 L348.888,13.189 L348.888,19.734 C348.888,23.248 346.837,24.972 343.596,24.972 ZM327.552,24.789 L321.812,24.789 L321.812,13.189 L327.414,13.189 C329.879,13.189 331.396,14.365 331.396,16.188 L331.396,16.221 C331.396,17.530 330.671,18.260 329.809,18.724 C331.206,19.237 332.068,20.016 332.068,21.574 L332.068,21.607 C332.068,23.728 330.275,24.789 327.552,24.789 ZM328.759,16.619 C328.759,15.856 328.138,15.426 327.017,15.426 L324.398,15.426 L324.398,17.878 L326.846,17.878 C328.018,17.878 328.759,17.514 328.759,16.652 L328.759,16.619 ZM329.431,21.259 C329.431,20.480 328.827,19.999 327.466,19.999 L324.398,19.999 L324.398,22.552 L327.552,22.552 C328.724,22.552 329.431,22.154 329.431,21.292 L329.431,21.259 ZM302.890,24.789 L300.305,21.077 L298.220,21.077 L298.220,24.789 L295.565,24.789 L295.565,13.189 L301.081,13.189 C303.925,13.189 305.631,14.630 305.631,17.017 L305.631,17.050 C305.631,18.922 304.580,20.099 303.046,20.646 L305.994,24.789 L302.890,24.789 ZM302.943,17.149 C302.943,16.056 302.150,15.492 300.857,15.492 L298.220,15.492 L298.220,18.823 L300.909,18.823 C302.201,18.823 302.943,18.160 302.943,17.182 L302.943,17.149 ZM282.468,24.988 C278.745,24.988 276.073,22.320 276.073,19.022 L276.073,18.989 C276.073,15.691 278.779,12.990 282.502,12.990 C286.225,12.990 288.897,15.658 288.897,18.956 L288.897,18.989 C288.897,22.287 286.191,24.988 282.468,24.988 ZM286.122,18.989 C286.122,17.000 284.605,15.343 282.468,15.343 C280.331,15.343 278.848,16.967 278.848,18.956 L278.848,18.989 C278.848,20.978 280.365,22.635 282.502,22.635 C284.640,22.635 286.122,21.011 286.122,19.022 L286.122,18.989 ZM263.648,17.978 L269.405,17.978 L269.405,20.298 L263.648,20.298 L263.648,24.789 L260.993,24.789 L260.993,13.189 L270.181,13.189 L270.181,15.508 L263.648,15.508 L263.648,17.978 ZM241.982,0.002 L244.004,0.002 L244.004,35.993 L241.982,35.993 L241.982,0.002 ZM145.000,33.000 C135.879,33.000 130.000,26.206 130.000,18.000 C130.000,9.794 135.892,3.000 145.000,3.000 C154.118,3.000 160.000,9.797 160.000,18.000 C160.000,26.203 154.118,33.000 145.000,33.000 ZM145.000,8.000 C139.106,8.000 135.000,12.318 135.000,18.000 C135.000,23.681 139.105,28.000 145.000,28.000 C150.901,28.000 155.000,23.678 155.000,18.000 C155.000,12.322 150.894,8.000 145.000,8.000 ZM96.124,32.000 L96.124,31.343 C96.124,30.425 96.599,29.934 97.050,29.559 C97.498,29.193 98.000,28.721 98.000,28.000 L98.000,8.000 C98.000,7.351 97.498,6.790 97.050,6.425 C96.599,6.060 96.124,5.533 96.124,4.637 L96.124,4.000 L113.247,4.000 C120.120,5.651 125.000,11.176 125.000,18.000 C125.000,24.841 120.097,30.344 113.194,32.000 L96.124,32.000 ZM109.000,8.000 L103.000,8.000 L103.000,28.000 L109.000,28.000 C115.238,28.000 120.000,23.714 120.000,18.000 C120.000,12.275 115.238,8.000 109.000,8.000 ZM34.966,6.405 C34.508,6.040 34.053,5.539 34.053,4.637 C34.053,4.395 34.053,4.179 34.053,4.000 L42.122,4.000 L54.645,32.000 L49.186,32.000 L46.000,25.000 L33.000,25.000 L29.655,32.000 L24.361,32.000 L35.538,6.984 C35.438,6.757 35.242,6.642 34.966,6.405 ZM34.000,21.000 L45.000,21.000 L39.415,9.529 L34.000,21.000 ZM0.919,6.425 C0.465,6.049 -0.000,5.533 -0.000,4.637 L-0.000,4.000 L17.413,4.000 C21.913,5.227 25.000,9.346 25.000,14.000 C25.000,20.551 19.531,23.000 13.000,23.000 L7.000,23.000 L7.000,28.000 C7.000,28.586 7.087,29.210 7.515,29.559 C7.976,29.934 8.424,30.451 8.424,31.343 L8.424,32.000 L-0.000,32.000 L-0.000,31.343 C-0.000,30.477 0.458,29.934 0.919,29.559 C1.371,29.190 2.000,28.582 2.000,28.000 L2.000,8.000 C2.000,7.381 1.378,6.813 0.919,6.425 ZM7.000,19.000 L13.000,19.000 C16.941,19.000 20.000,17.101 20.000,14.000 C20.000,10.554 16.904,8.000 13.000,8.000 L7.000,8.000 L7.000,19.000 ZM82.000,32.000 L67.000,12.000 L67.000,28.000 C67.000,28.467 67.813,29.240 68.227,29.559 C68.682,29.928 69.000,30.098 69.000,31.000 L69.000,32.000 L60.000,32.000 L60.000,31.000 C60.000,30.105 60.245,29.974 60.697,29.582 C61.080,29.263 62.000,28.649 62.000,28.000 L62.000,8.000 C62.000,7.483 61.145,6.774 60.767,6.468 C60.309,6.096 59.814,5.575 59.814,4.637 L59.814,4.000 L66.659,4.000 L82.000,24.000 L82.000,8.000 C82.000,7.404 81.930,6.806 81.472,6.431 C81.014,6.060 80.559,5.533 80.559,4.641 L80.559,4.000 L88.882,4.000 L88.882,4.641 C88.882,5.569 88.417,6.060 87.959,6.435 C87.592,6.744 87.000,7.418 87.000,8.000 L87.000,32.000 L82.000,32.000 ZM221.322,32.000 L218.000,25.000 L205.000,25.000 L201.797,32.000 L196.504,32.000 L207.681,6.984 C207.573,6.757 207.385,6.632 207.102,6.405 C206.640,6.040 206.000,5.902 206.000,5.000 C206.000,4.335 206.000,4.000 206.000,4.000 L214.000,4.000 L226.779,32.000 L221.322,32.000 ZM211.555,9.529 L207.000,21.000 L216.000,21.000 L211.555,9.529 ZM166.076,6.448 C165.618,6.073 165.140,5.539 165.140,4.637 L165.140,4.000 L184.145,4.000 C188.473,5.171 191.008,8.283 191.008,12.689 C191.008,17.501 188.085,20.398 183.921,21.517 L188.963,28.423 C189.533,29.223 190.378,29.081 191.167,29.658 C191.601,29.983 191.938,30.632 191.938,31.481 L191.938,32.000 L185.424,32.000 L178.000,22.000 L172.000,22.000 L171.971,28.397 C171.971,29.023 172.210,29.174 172.654,29.559 C173.089,29.928 173.567,30.401 173.567,31.343 L173.567,32.000 L165.140,32.000 L165.140,31.356 C165.140,30.451 165.611,29.934 166.066,29.559 C166.514,29.193 167.000,28.698 167.000,28.000 L167.000,8.000 C167.000,7.358 166.447,6.751 166.076,6.448 ZM172.000,18.000 L180.000,18.000 C183.725,18.000 185.707,15.967 185.707,12.982 C185.707,9.789 183.856,8.000 180.000,8.000 L172.000,8.000 L172.000,18.000 Z" class="cls-1"/>
</svg>
