<?xml version="1.0" standalone="no"?>
<!DOCTYPE svg PUBLIC "-//W3C//DTD SVG 1.1//EN" "http://www.w3.org/Graphics/SVG/1.1/DTD/svg11.dtd" >
<!--
2015-12-2: Created with FontForge (http://fontforge.org)
-->
<svg xmlns="http://www.w3.org/2000/svg" xmlns:xlink="http://www.w3.org/1999/xlink" version="1.1">
<metadata>
Created by FontForge 20150504 at Wed Dec  2 10:42:32 2015
 By David Lim
Copyright (c) 2015, David Lim
</metadata>
<defs>
<font id="fontcustom" horiz-adv-x="512" >
  <font-face 
    font-family="fontcustom"
    font-weight="400"
    font-stretch="normal"
    units-per-em="512"
    panose-1="2 0 5 3 0 0 0 0 0 0"
    ascent="448"
    descent="-64"
    bbox="-0.0102539 -92.8174 1536 448.037"
    underline-thickness="25.6"
    underline-position="-51.2"
    unicode-range="U+0020-F1F3"
  />
    <missing-glyph />
    <glyph glyph-name="space" unicode=" " horiz-adv-x="200" 
 />
    <glyph glyph-name="uniF10C" unicode="&#xf10c;" 
d="M490.947 346.947c7.44434 0 14.3154 -6.03613 14.3154 -13.4736v-107.789c0 -7.4375 -6.87109 -13.4736 -14.3154 -13.4736h-19.3682v-235.79h-26.9473v235.79h-21.0527c-7.4375 0 -12.6318 6.03613 -12.6318 13.4736v107.789c0 7.4375 5.19434 13.4736 12.6318 13.4736
h21.0527v101.053h26.9473v-101.053h19.3682zM356.211 212.211c7.44336 0 14.3154 -6.03711 14.3154 -13.4736v-107.79c0 -7.4375 -6.87207 -13.4736 -14.3154 -13.4736h-19.3691v-101.053h-26.9473v101.053h-21.0527c-7.4375 0 -12.6309 6.03613 -12.6309 13.4736v107.79
c0 7.43652 5.19336 13.4736 12.6309 13.4736h21.0527v235.789h26.9473v-235.789h19.3691zM221.48 279.579c7.4375 0 14.3086 -6.03613 14.3086 -13.4736v-107.79c0 -7.4375 -6.87109 -13.4736 -14.3086 -13.4736h-19.375v-168.421h-26.9473v168.421h-21.0459
c-7.44434 0 -12.6387 6.03613 -12.6387 13.4736v107.79c0 7.4375 5.19434 13.4736 12.6387 13.4736h21.0459v168.421h26.9473v-168.421h19.375zM86.7432 346.947c7.4375 0 14.3096 -6.03613 14.3096 -13.4736v-107.789c0 -7.4375 -6.87207 -13.4736 -14.3096 -13.4736
h-19.375v-235.79h-26.9473v235.79h-21.0459c-7.44434 0 -12.6377 6.03613 -12.6377 13.4736v107.789c0 7.4375 5.19336 13.4736 12.6377 13.4736h21.0459v101.053h26.9473v-101.053h19.375z" />
    <glyph glyph-name="uniF139" unicode="&#xf139;" 
d="M450.56 427.52h-389.119c-22.5898 0 -40.96 -18.3701 -40.96 -40.96v-389.119c0 -22.5898 18.3701 -40.96 40.96 -40.96h389.119c22.5898 0 40.96 18.3701 40.96 40.96v389.119c0 22.5898 -18.3701 40.96 -40.96 40.96zM450.56 448v0
c33.9258 0 61.4404 -27.5146 61.4404 -61.4404v-389.119c0 -33.9258 -27.5146 -61.4404 -61.4404 -61.4404h-389.119c-33.9258 0 -61.4404 27.5146 -61.4404 61.4404v389.119c0 33.9258 27.5146 61.4404 61.4404 61.4404h389.119z" />
    <glyph glyph-name="uniF167" unicode="&#xf167;" 
d="M469.351 432h-426.701c-14.7002 0 -26.6494 -11.9619 -26.6494 -26.6885v-298.649c0 -14.7129 11.9492 -26.6621 26.6494 -26.6621h69.3506v-51.376l83.4756 51.376h273.875c14.7002 0 26.6494 11.9492 26.6494 26.6621v298.649
c0 14.7266 -11.9492 26.6885 -26.6494 26.6885zM469.351 448v0c23.5488 0 42.6494 -19.126 42.6494 -42.6885v-298.649c0 -23.5361 -19.1006 -42.6621 -42.6494 -42.6621h-269.351l-104 -64v64h-53.3506c-23.5488 0 -42.6494 19.126 -42.6494 42.6621v298.649
c0 23.5625 19.1006 42.6885 42.6494 42.6885h426.701z" />
    <glyph glyph-name="uniF144" unicode="&#xf144;" 
d="M317.44 292.874l-83.3027 -70.1543h-39.5781v-61.4395h39.5781l83.3027 -70.1445v201.738zM327.68 314.88v0v-245.76l-97.2793 81.9199h-46.0801v81.9199h46.0801z" />
    <glyph glyph-name="uniF14E" unicode="&#xf14e;" 
d="M97.2803 289.26v-194.52l107.612 97.2695zM87.04 312.32v0l133.12 -120.311l-133.12 -120.33v240.641zM414.72 304.64h-30.7197v-225.279h30.7197v225.279zM424.96 314.88v0v-245.76h-51.2002v245.76h51.2002zM240.64 289.26v-194.52l107.612 97.2695zM230.4 312.32v0
l133.119 -120.311l-133.119 -120.33v240.641z" />
    <glyph glyph-name="uniF181" unicode="&#xf181;" 
d="M307.2 422.4h-281.601v-434.409l125.189 96.3096l15.6113 12.0088l15.6104 -12.0088l125.189 -96.3096v434.409zM332.8 448v0v-512l-166.399 128.01l-166.4 -128.01v512h332.8z" />
    <glyph glyph-name="uniF1BA" unicode="&#xf1ba;" 
d="M493.379 398.658h-474.758v-48.0898h474.758v48.0898zM512 417.28v0v-85.334h-512v85.334h512zM493.379 57.3252h-474.758v-48.0908h474.758v48.0908zM512 75.9463v0v-85.333h-512v85.333h512zM493.379 227.992h-474.758v-48.0908h474.758v48.0908zM512 246.613v0
v-85.333h-512v85.333h512z" />
    <glyph glyph-name="uniF14D" unicode="&#xf14d;" 
d="M512 192l-54.8545 -54.8447l-201.146 201.114l-201.146 -201.114l-54.8545 54.8447l201.132 201.132l54.8682 54.8682l54.8682 -54.8682z" />
    <glyph glyph-name="uniF1E6" unicode="&#xf1e6;" 
d="M256 437.333l60.9492 -182.698h195.051l-150.4 -116.48l59.0938 -191.487l-164.693 114.111l-164.672 -114.111l55.2529 194.026l-146.581 113.941h195.051zM256 369.664l45.5254 -136.448h147.861l-112.619 -87.2109l45.2061 -146.453l-125.974 87.2754
l-127.68 -88.4912l42.8154 150.4l-108.693 84.4795h148.032l45.5254 136.448z" />
    <glyph glyph-name="uniF1D1" unicode="&#xf1d1;" 
d="M362.667 277.333l64 106.667h-341.334v-405.333h21.334v192h320l-64 106.666z" />
    <glyph glyph-name="uniF152" unicode="&#xf152;" 
d="M256 299.52c-59.2793 0 -107.52 -48.2295 -107.52 -107.52s48.2402 -107.52 107.52 -107.52s107.52 48.2295 107.52 107.52s-48.2402 107.52 -107.52 107.52zM256 304.64v0c62.208 0 112.64 -50.4316 112.64 -112.64s-50.4316 -112.64 -112.64 -112.64
s-112.64 50.4316 -112.64 112.64s50.4316 112.64 112.64 112.64zM245.76 125.491v87.04h20.4805v-87.04h-20.4805zM240.64 248.371c0 8.4834 6.87695 15.3604 15.3604 15.3604s15.3604 -6.87695 15.3604 -15.3604s-6.87695 -15.3604 -15.3604 -15.3604
s-15.3604 6.87695 -15.3604 15.3604z" />
    <glyph glyph-name="uniF18F" unicode="&#xf18f;" 
d="M298.811 41.6914c31.7441 -17.8428 69.5146 -44.3389 85.1934 -69.9941h-347.429c15.6855 25.6553 66.1719 52.1514 97.8867 69.9941c36.6562 20.6006 56.8281 31.9414 57.542 50.9219c0.584961 16.4102 -8.45508 27.4219 -17.2002 38.0527
c-10.4004 12.6719 -23.3721 28.4268 -29.1143 62.3252c-5.08301 29.6992 -7.47168 94.4785 19.6865 127.086c12.0322 14.4453 28.7891 21.4492 51.2734 21.4492c22.4727 0 39.2441 -7.00391 51.2725 -21.4346c27.1436 -32.5928 24.7734 -97.4014 19.6719 -127.13
c-5.72656 -33.8691 -18.6982 -49.624 -29.0996 -62.2959c-8.74414 -10.6309 -17.7842 -21.6426 -17.1992 -38.0527c0.716797 -18.9844 20.8857 -30.3213 57.5156 -50.9219zM316.595 74.0059c49.6465 -27.9072 117.644 -66.1611 116.688 -119.859l-0.329102 -18.1465
h-432.629l-0.314453 18.1611c-0.943359 53.6836 67.0576 91.9258 116.699 119.834c13.1553 7.40918 30.4717 17.1631 37.6143 22.9375c-1.57227 2.73535 -4.62988 6.44727 -7.62891 10.1045c-11.8164 14.3438 -29.6562 36.0557 -37.043 79.6855
c-1.78516 10.5 -16.2852 104.32 27.7578 157.191c19.1416 22.9561 45.7725 34.6006 79.2422 34.6006c33.4453 0 60.1016 -11.6445 79.2285 -34.6006c44.0137 -52.8271 29.5723 -146.691 27.7725 -157.221c-7.3877 -43.6006 -25.2305 -65.3125 -37.0576 -79.6562
c-2.98438 -3.65723 -6.02734 -7.36914 -7.61426 -10.1045c7.14258 -5.77832 24.4551 -15.5137 37.6133 -22.9268zM36.582 -28.2988h347.437c-15.6855 25.6543 -53.457 52.1504 -85.2012 69.9941c-36.6299 20.6006 -56.8027 31.9414 -57.5156 50.9219
c-0.584961 16.4092 8.45508 27.4209 17.2002 38.0527c10.4004 12.6719 23.3721 28.4268 29.0996 62.2959c5.09766 29.7285 7.47168 94.5371 -19.6719 127.129c-12.0322 14.4316 -28.7998 21.4346 -51.2734 21.4346c-22.4873 0 -39.2441 -7.00293 -51.2725 -21.4492
c-27.1582 -32.6064 -24.7744 -97.3857 -19.6865 -127.085c5.74121 -33.8984 18.7129 -49.6533 29.1143 -62.3252c8.74414 -10.6318 17.7842 -21.6436 17.1992 -38.0527c-0.712891 -18.9844 -20.8857 -30.3213 -57.541 -50.9219
c-31.7148 -17.8438 -82.2021 -44.3398 -97.8877 -69.9941zM388.355 114.502c82.8164 -47.335 123.645 -105.97 123.645 -178.502h-36.5713c0 58.2324 -34.9844 106.471 -106.932 147.452c-10.2139 6.79883 -18.5264 13.1514 -20.5127 23.9033
c-1.9707 10.6748 3.38672 18.3223 8.14453 25.0771c5.65723 8.07129 15.1592 21.5918 22.1289 51.4229c14.5264 62.2705 -1.94531 109.659 -20.458 131.32c-8.51367 9.95898 -14.7705 11.7803 -16.1133 11.6045l-16.5557 32.834
c14.0986 7.5625 31.3857 4.69238 47.4697 -7.84863c33.5986 -26.1484 60.8145 -92.5039 41.2422 -176.38c-7.6875 -32.8555 -18.4727 -50.6221 -25.4873 -60.8838z" />
    <glyph glyph-name="uniF1A8" unicode="&#xf1a8;" 
d="M434.424 378.182h77.5762v-372.363h-77.5762v372.363zM217.212 9.69727v364.605l201.697 -182.292zM0 9.69727v364.605l201.697 -182.292z" />
    <glyph glyph-name="uniF160" unicode="&#xf160;" 
d="M276.48 314.88v-245.76l-97.2803 81.9199h-46.0801v81.9199h46.0801zM266.24 91.126v201.748l-83.3027 -70.1543h-39.5771v-61.4395h39.5771zM363.52 192c0 16.7422 -6.53223 32.625 -18.083 44.5137l4.76172 9.54297
c14.9707 -14.0283 23.5615 -33.4541 23.5615 -54.0566s-8.59082 -40.0176 -23.5615 -54.0674l-4.77246 9.54395c11.5615 11.9092 18.0938 27.7812 18.0938 44.5234z" />
    <glyph glyph-name="uniF149" unicode="&#xf149;" 
d="M256.01 448l60.9424 -182.067h195.048l-150.392 -114.505l59.0947 -189.811l-164.696 113.105l-164.676 -113.105l55.2568 192.344l-146.588 111.972h195.048z" />
    <glyph glyph-name="uniF17E" unicode="&#xf17e;" 
d="M256 420.174c92.0684 -0.0175781 166.956 -74.1221 166.956 -165.164c0 -117.01 -152.427 -276.131 -158.913 -282.836l-8.04297 -8.34766l-8.04297 8.34766c-6.48633 6.70508 -158.913 165.828 -158.913 282.836c0 91.0781 74.8877 165.164 166.956 165.164z
M256 175.305c43.0352 0 77.9131 34.8779 77.9131 77.9131c0 43.0342 -34.8779 77.9131 -77.9131 77.9131s-77.9131 -34.8789 -77.9131 -77.9131c0 -43.0352 34.8779 -77.9131 77.9131 -77.9131z" />
    <glyph glyph-name="uniF1EA" unicode="&#xf1ea;" 
d="M85.333 149.333v-149.333h42.667v149.333h-42.667zM64 -21.333v192h85.333v-192h-85.333zM234.667 277.333v-277.333h42.666v277.333h-42.666zM213.333 -21.333v320h85.334v-320h-85.334zM384 384v-384h42.667v384h-42.667zM362.667 -21.333v426.666h85.333v-426.666
h-85.333z" />
    <glyph glyph-name="uniF14A" unicode="&#xf14a;" 
d="M215.04 304.64h-40.96v-225.279h40.96v225.279zM225.28 314.88v0v-245.76h-61.4404v245.76h61.4404zM337.92 304.64h-40.96v-225.279h40.96v225.279zM348.16 314.88v0v-245.76h-61.4404v245.76h61.4404z" />
    <glyph glyph-name="uniF1C6" unicode="&#xf1c6;" 
d="M0 447.992h511.881v-51.1875h-511.881v51.1875zM0 268.834h511.881v-51.1885h-511.881v51.1885zM0 89.6758h511.881v-51.1885h-511.881v51.1885z" />
    <glyph glyph-name="uniF141" unicode="&#xf141;" 
d="M59.0771 241.23c27.1934 0 49.2305 -22.0371 49.2305 -49.2305s-22.0371 -49.2305 -49.2305 -49.2305s-49.2314 22.0371 -49.2314 49.2305s22.0381 49.2305 49.2314 49.2305zM256 241.23c27.1934 0 49.2305 -22.0371 49.2305 -49.2305
s-22.0371 -49.2305 -49.2305 -49.2305s-49.2305 22.0371 -49.2305 49.2305s22.0371 49.2305 49.2305 49.2305zM452.923 241.23c27.1934 0 49.2314 -22.0371 49.2314 -49.2305s-22.0381 -49.2305 -49.2314 -49.2305s-49.2305 22.0371 -49.2305 49.2305
s22.0371 49.2305 49.2305 49.2305z" />
    <glyph glyph-name="uniF16E" unicode="&#xf16e;" 
d="M384 98.4619c27.1934 0 49.2305 -22.0537 49.2305 -49.2314c0 -27.1982 -22.0371 -49.2305 -49.2305 -49.2305s-49.2305 22.0322 -49.2305 49.2305c0 3.31641 0.34668 6.5459 0.984375 9.67676l-169.354 97.708c-9.01562 -11.3525 -22.7764 -18.7695 -38.4004 -18.7695
c-27.1934 0 -49.2305 22.0322 -49.2305 49.2314c0 27.1768 22.0371 49.2305 49.2305 49.2305c14.6611 0 27.6777 -6.53809 36.6924 -16.709l172.801 99.708c-1.63086 4.87793 -2.72363 10.0156 -2.72363 15.4629c0 27.1768 22.0371 49.2305 49.2305 49.2305
s49.2305 -22.0537 49.2305 -49.2305c0 -27.1992 -22.0371 -49.2314 -49.2305 -49.2314c-14.6533 0 -27.6777 6.52246 -36.6924 16.6934l-172.801 -99.6924c1.63086 -4.90137 2.72363 -10.0332 2.72363 -15.4619c0 -4.48438 -0.783203 -8.74707 -1.91602 -12.8691
l168.208 -97.0459c8.87695 12.8438 23.6777 21.2998 40.4775 21.2998z" />
    <glyph glyph-name="uniF19F" unicode="&#xf19f;" 
d="M293.547 396.8v-409.6l-162.134 136.533h-76.7998v136.533h76.7998zM276.48 23.8799v336.233l-138.841 -116.913h-65.96v-102.4h65.96zM438.613 192c0 27.8799 -10.8936 54.3467 -30.1465 74.2012l7.94629 15.8916c24.9463 -23.3789 39.2666 -55.7598 39.2666 -90.0928
s-14.3203 -66.7344 -39.2666 -90.1201l-7.94629 15.9189c19.2529 19.8281 30.1465 46.2939 30.1465 74.2012z" />
    <glyph glyph-name="uniF1DF" unicode="&#xf1df;" 
d="M256.004 405.333v0c121.619 -1.74121 104.254 -151.292 99.1982 -179.156c-12.2881 -68.5713 -34.8369 -77.2783 -33.9199 -101.66c0.959961 -24.3809 189.374 -75.1016 190.718 -145.85h-511.993c-1.34375 70.748 189.758 121.469 190.718 145.85
c0.916992 24.3818 -21.6104 33.0889 -33.9414 101.66c-5.0127 27.8643 -22.3994 177.415 99.2207 179.156z" />
    <glyph glyph-name="uniF163" unicode="&#xf163;" 
d="M238.934 396.797v-409.601l-162.134 136.533h-76.7998v136.534h76.7998zM512 191.997c0 -76.2002 -37.4668 -146.967 -100.294 -190.039l-11.5664 23.1592c54.0928 38.4805 86.2607 100.34 86.2607 166.88c0 66.5391 -32.168 128.398 -86.2607 166.881l11.5664 23.1592
c62.8271 -43.0742 100.294 -113.841 100.294 -190.04zM409.6 191.997c0 -37.2812 -16.2266 -72.4268 -44.46 -96.8057l-11.9121 23.8584c19.585 19.2207 30.7725 45.3398 30.7725 72.9473c0 27.6064 -11.1875 53.7275 -30.7725 72.9473l11.9121 23.8594
c28.2334 -24.3799 44.46 -59.5264 44.46 -96.8066z" />
    <glyph glyph-name="uniF165" unicode="&#xf165;" 
d="M0.0302734 -35.5195l483.42 483.557l28.498 -28.4902l-483.42 -483.557zM0.00195312 419.506l28.498 28.498l483.497 -483.498l-28.498 -28.498z" />
    <glyph glyph-name="uniF1D3" unicode="&#xf1d3;" 
d="M437.096 222.706c15.3555 -3.88477 27.4482 -16.1387 31.1006 -31.584c24.8438 -4.51953 43.8037 -26.3701 43.8037 -52.4766v-64c0 -26.1104 -18.9648 -47.9639 -43.8145 -52.4785v0c-4.46289 -18.7822 -21.4102 -32.834 -41.5186 -32.834
c-23.4912 0 -42.667 19.1758 -42.667 42.667v149.333c0 19.7158 13.5078 36.3926 31.7373 41.2432c-4.78809 84.0586 -74.4795 150.757 -159.737 150.757s-154.949 -66.6982 -159.737 -150.757c18.2295 -4.85059 31.7373 -21.5273 31.7373 -41.2432v-149.333
c0 -23.4912 -19.1758 -42.667 -42.667 -42.667c-20.1084 0 -37.0557 14.0518 -41.5186 32.834c-24.8496 4.51465 -43.8145 26.3682 -43.8145 52.4785v64c0 26.1064 18.96 47.957 43.8037 52.4766v0c3.65234 15.4453 15.7451 27.6992 31.1006 31.584
c4.87793 95.7861 84.0977 171.961 181.096 171.961s176.218 -76.1748 181.096 -171.961z" />
    <glyph glyph-name="uniF13A" unicode="&#xf13a;" 
d="M391.522 262.737l-17.6055 18.585l-160.157 -151.721l-75.6777 71.6816l-17.6045 -18.5859l93.2832 -88.3584zM450.56 427.52h-389.119c-22.5898 0 -40.96 -18.3701 -40.96 -40.96v-389.119c0 -22.5898 18.3701 -40.96 40.96 -40.96h389.119
c22.5898 0 40.96 18.3701 40.96 40.96v389.119c0 22.5898 -18.3701 40.96 -40.96 40.96zM450.56 448v0c33.9258 0 61.4404 -27.5146 61.4404 -61.4404v-389.119c0 -33.9258 -27.5146 -61.4404 -61.4404 -61.4404h-389.119c-33.9258 0 -61.4404 27.5146 -61.4404 61.4404
v389.119c0 33.9258 27.5146 61.4404 61.4404 61.4404h389.119z" />
    <glyph glyph-name="uniF1C5" unicode="&#xf1c5;" 
d="M339.229 447.622h2.26758v-52.5742h-2.26758v52.5742zM48.168 442.11v0h11.0508l18.251 -41.7432h-7.7041l-4.20605 10.002h-19.6055l-4.26953 -10.002h-7.46582l16.0488 36.7158c-0.146484 0.319336 -0.422852 0.489258 -0.819336 0.822266
c-0.633789 0.532227 -1.28027 1.25098 -1.28027 2.55469v1.65039zM48.6211 416.83v0h14.2744l-7.1709 16.5801zM153.45 442.116v0c13.1426 0 22.2275 -9.02637 22.2275 -20.8359c0 -11.8203 -9.08496 -20.958 -22.2275 -20.958h-17.8525v1.66797
c0 1.32812 0.663086 2.03418 1.30566 2.57227c0.625 0.523438 0.964844 0.71582 0.964844 1.74609v29.8564c0 0.935547 -0.339844 1.18848 -0.964844 1.71387c-0.642578 0.533203 -1.30566 1.28516 -1.30566 2.58105v1.65625h17.8525zM153.45 407.01v0
c8.7832 0 14.5156 5.91016 14.5156 14.1484c0 8.24023 -5.73242 14.2656 -14.5156 14.2656h-8.24414v-28.4141h8.24414zM113.658 440.449c0 -1.28516 0.650391 -2.04102 1.29297 -2.57715c0.644531 -0.541992 0.969727 -0.730469 0.969727 -1.58496v-23.0703
l-22.3994 28.8994h-9.07422v-1.66211c0 -1.35254 0.703125 -2.09961 1.35156 -2.63281c0.53125 -0.44043 0.915039 -0.720703 0.915039 -1.47168v-30.1963c0 -0.942383 -0.476562 -1.16113 -1.0166 -1.62109c-0.631836 -0.560547 -1.25 -1.26172 -1.25 -2.55176v-1.6582
h11.7402v1.6582c0 1.29004 -0.645508 2.05371 -1.28613 2.58203c-0.586914 0.462891 -0.955078 0.805664 -0.955078 1.47852v24.001l23.0605 -29.7197h6.14941v35.9912c0 0.84082 0.415039 1.10547 0.938477 1.54688c0.644531 0.535156 1.30273 1.25391 1.30273 2.58887
v1.66699h-11.7393v-1.66699zM18.9717 442.113v0c9.73633 0 15.8916 -5.49414 15.8916 -14.0371c0 -9.43164 -7.53027 -14.3223 -16.7285 -14.3223h-8.30078v-7.61133c0 -0.838867 0.353516 -1.08301 0.958008 -1.58008
c0.646484 -0.538086 1.28613 -1.28418 1.28613 -2.58008v-1.66016h-11.8652v1.66016c0 1.25684 0.645508 2.04199 1.29199 2.58008c0.638672 0.538086 0.97168 0.753906 0.97168 1.58008v30.0723c0 0.900391 -0.321289 1.10547 -0.97168 1.66406
c-0.643555 0.541016 -1.29199 1.28516 -1.29199 2.5791v1.65527h18.7588zM18.374 420.376v0c5.55273 0 9.01855 3.05273 9.01855 7.5166c0 4.95801 -3.52148 7.53125 -9.01855 7.53125h-8.54004v-15.0479h8.54004zM269.454 404.425v0
c0.620117 -0.480469 1.09473 -1.40723 1.09473 -2.62793v-1.47461h-8.66797l-10.2783 14.5703h-9.18652v-8.66309c0 -0.894531 0.347656 -1.11914 0.96875 -1.66699c0.601562 -0.52832 1.28125 -1.21973 1.28125 -2.57227v-1.66797h-11.8662v1.6582
c0 1.29785 0.654297 2.04395 1.30273 2.58203c0.626953 0.523438 0.958984 0.720703 0.958984 1.72852v29.9238c0 0.926758 -0.416992 1.19336 -0.953125 1.63086c-0.645508 0.541992 -1.30859 1.30859 -1.30859 2.61426v1.65625h20.9023
c9.60352 0 15.5254 -5.0791 15.5254 -13.2559c0 -6.92676 -4.12109 -11.1045 -9.96875 -12.7148l7.09863 -9.9502c0.798828 -1.14062 1.98828 -0.942383 3.09668 -1.77051zM242.412 421.393v0h10.751c5.25879 0 8.60059 2.75195 8.60059 7.04492
c0 4.59668 -3.22168 6.98633 -8.66309 6.98633h-10.6885v-14.0312zM204.127 442.829v0c12.8486 0 21.8008 -9.73926 21.8008 -21.5488c0 -11.8203 -9.07617 -21.6719 -21.9209 -21.6719c-12.8408 0 -21.7979 9.7373 -21.7979 21.5498
c0 11.8164 9.0752 21.6709 21.918 21.6709zM204.127 406.362v0c8.30371 0 14.1035 6.61035 14.1035 14.7959c0 8.16992 -5.91895 14.9199 -14.2236 14.9199c-8.29883 0 -14.0908 -6.61621 -14.0908 -14.7979s5.90918 -14.918 14.2109 -14.918zM290.609 442.11v0h11.0586
l18.2461 -41.7432h-7.70508l-4.20117 10.0098h-19.6084l-4.27246 -10.0098h-7.4541l16.0439 36.7158c-0.149414 0.319336 -0.424805 0.489258 -0.817383 0.826172c-0.639648 0.52832 -1.29004 1.24707 -1.29004 2.55078v1.65039zM291.069 416.83v0h14.2793l-7.17285 16.5801
zM403.001 400.355h-5.05957l-4.88086 11.0049h-22.6738l-4.94238 -11.0049h-4.82031l18.9854 41.9307h4.40723l18.9844 -41.9307v0zM381.753 436.814l-9.52246 -21.2344h18.9863l-9.46387 21.2344v0zM431.21 411.774h-0.236328l-15.1787 22.2461v-33.665h-4.58203v41.6377
h4.75977l15.1758 -22.7227l15.1777 22.7227h4.75781v-41.6377h-4.69824v33.7246l-15.1758 -22.3057zM476.058 415.044h-10.1211v-14.6885h-4.69922v41.6377h15.5898c9.4043 0 15.5938 -5.00098 15.5938 -13.2666c0 -9.04004 -7.49707 -13.6826 -16.3633 -13.6826v0z
M476.471 437.649h-10.5342v-18.3213h10.2949c6.90625 0 11.4287 3.68945 11.4287 9.21777c0 6.00586 -4.46484 9.10352 -11.1895 9.10352v0zM499.944 433.861h-0.931641v7.28125h-2.73145v0.851562h6.39258v-0.851562h-2.72949v-7.28125zM507.902 436.092h-0.0429688
l-2.95801 4.35059v-6.58105h-0.900391v8.13281h0.929688l2.96875 -4.43848l2.95996 4.43848h0.927734v-8.13281h-0.916016v6.58496l-2.96875 -4.35449z" />
    <glyph glyph-name="uniF17A" unicode="&#xf17a;" 
d="M145.809 318.441c50.9775 0 92.1602 -41.4053 92.1602 -92.1572c0 -50.9775 -41.1826 -92.1602 -92.1602 -92.1602s-92.1602 41.1826 -92.1602 92.1602c0 50.9746 41.1826 92.1572 92.1602 92.1572zM256 448h100.174v-100.174h-22.2607v62.1074l-84.1465 -84.1455
c25.1553 -26.0459 40.7373 -61.4404 40.7373 -100.396c0 -76.1328 -58.9912 -138.463 -133.564 -144.251v-78.3584h44.5215v-22.2607h-44.5215v-44.5215h-22.2607v44.5215h-44.5225v22.2607h44.5225v78.3584c-74.5742 5.78809 -133.565 68.1182 -133.565 144.251
c0 79.6934 65.002 144.695 144.695 144.695c32.7236 0 62.998 -10.9082 87.2627 -29.3848l85.0361 85.0371h-62.1074v22.2607zM268.243 225.392c0 67.4502 -54.9844 122.435 -122.435 122.435s-122.435 -54.9844 -122.435 -122.435
c0 -67.4512 54.9844 -122.436 122.435 -122.436s122.435 54.9844 122.435 122.436z" />
    <glyph glyph-name="uniF1DB" unicode="&#xf1db;" 
d="M298.667 -21.333v426.666h128v-426.666h-128zM85.333 -21.333v426.666h128v-426.666h-128z" />
    <glyph glyph-name="uniF140" unicode="&#xf140;" 
d="M37.9258 448h474.074v-350.814h-271.741c-1.40723 6.40723 -3.02832 12.7334 -4.88086 18.9629h257.659v312.889h-436.148v-134.4c-6.22168 1.85156 -12.5547 3.47461 -18.9629 4.88184v148.481zM474.074 410.074v-274.963h-245.053
c-26.9102 70.3262 -82.8359 126.259 -153.17 153.169v121.794h398.223zM0 266.889c110.518 -9.14258 198.504 -97.1191 207.629 -207.63h-37.9258c-8.92578 89.4453 -80.251 160.776 -169.703 169.704v37.9258zM0 190.681
c68.5928 -8.5625 122.852 -62.8359 131.423 -131.423h-38.3184c-8.03125 47.54 -45.5645 85.0752 -93.1045 93.1035v38.3193zM0 113.658c26.6299 -6.86035 47.54 -27.7764 54.4062 -54.3994h-54.4062v54.3994z" />
    <glyph glyph-name="uniF1DA" unicode="&#xf1da;" 
d="M167.838 182.621h95.918c62.3174 0 101.187 34.21 101.187 84.3066c0 55.7441 -39.5283 84.5439 -101.187 84.5439h-95.918v-168.851zM59.9463 426.667h210.53c109.285 0 178.226 -61.7227 178.226 -157.647c0 -105.882 -84.4922 -160.738 -187.724 -160.738h-93.1406
v-85.4629c0 -9.49316 4.00586 -12.1104 10.7461 -17.79c7.3418 -6.05078 14.5664 -14.3809 14.5664 -28.9756v-18.7197h-133.204v18.7197c0 14.0908 7.26465 22.9248 14.4736 28.9756c7.22168 6.04004 10.9805 8.47363 10.9805 17.79v337.683
c0 10.0908 -3.69629 12.3701 -10.9805 18.626c-7.20898 6.14453 -14.4736 14.4092 -14.4736 28.9121v18.6279z" />
    <glyph glyph-name="uniF13F" unicode="&#xf13f;" 
d="M0 266.887c110.518 -9.14258 198.504 -97.1191 207.629 -207.629h-37.9258c-8.92578 89.4443 -80.251 160.775 -169.703 169.703v37.9258zM0 190.679c68.5928 -8.5625 122.852 -62.8359 131.423 -131.421h-38.3184c-8.03125 47.5381 -45.5645 85.0732 -93.1045 93.1016
v38.3193zM0 113.656c26.6299 -6.8584 47.54 -27.7764 54.4062 -54.3975h-54.4062v54.3975zM37.9258 448h474.074v-350.814h-271.741c-1.40723 6.40527 -3.02832 12.7314 -4.88086 18.9629h257.659v312.889h-436.148v-134.4
c-6.22168 1.85156 -12.5547 3.47461 -18.9629 4.88184v148.481z" />
    <glyph glyph-name="uniF175" unicode="&#xf175;" 
d="M176.208 94.7832l-176.208 166.931l33.248 35.0898l142.96 -135.405l302.544 286.602l33.248 -35.1045z" />
    <glyph glyph-name="uniF130" unicode="&#xf130;" 
d="M0 132.39l256 315.61l256 -315.57h-512v-0.0400391z" />
    <glyph glyph-name="uniF1E8" unicode="&#xf1e8;" horiz-adv-x="511" 
d="M448 213.333h-213.333v213.334h-21.333v-213.334h-213.334v-21.333h213.334v-213.333h21.333v213.333h213.333z" />
    <glyph glyph-name="uniF153" unicode="&#xf153;" 
d="M153.6 217.661c14.1416 0 25.6006 -11.458 25.6006 -25.5996s-11.459 -25.5996 -25.6006 -25.5996c-14.1406 0 -25.5996 11.458 -25.5996 25.5996s11.459 25.5996 25.5996 25.5996zM256 217.661c14.1416 0 25.5996 -11.458 25.5996 -25.5996
s-11.458 -25.5996 -25.5996 -25.5996s-25.5996 11.458 -25.5996 25.5996s11.458 25.5996 25.5996 25.5996zM358.4 217.661c14.1406 0 25.5996 -11.458 25.5996 -25.5996s-11.459 -25.5996 -25.5996 -25.5996c-14.1416 0 -25.6006 11.458 -25.6006 25.5996
s11.459 25.5996 25.6006 25.5996z" />
    <glyph glyph-name="uniF162" unicode="&#xf162;" 
d="M245.76 314.88v-245.76l-97.2793 81.9199h-46.0801v81.9199h46.0801zM235.52 91.126v201.748l-83.3018 -70.1543h-39.5781v-61.4395h39.5781zM407.04 192c0 -44.749 -21.9951 -86.2617 -58.7979 -111.646l-4.64941 9.29785
c33.3105 23.5625 53.207 61.4707 53.207 102.349s-19.8965 78.7861 -53.207 102.349l4.64941 9.29785c36.8027 -25.3848 58.7979 -66.8975 58.7979 -111.646zM345.6 192c0 -21.4014 -9.23633 -41.5645 -25.3125 -55.7061l-4.76172 9.54395
c12.6152 12.0625 19.835 28.6104 19.835 46.1523c0 17.5303 -7.22949 34.0889 -19.835 46.1611l4.77148 9.54395c16.0664 -14.1211 25.3027 -34.2939 25.3027 -55.6953z" />
    <glyph glyph-name="uniF1CE" unicode="&#xf1ce;" 
d="M298.667 -42.667v213.334h72.9014l10.6895 85.251h-83.5908v53.415c1.48633 23.5283 8.15234 39.8877 42.5781 39.1113h42.7549v74.9551c-6.44531 1.00879 -32.5059 3.26758 -62.8291 3.26758c-63.3027 0 -106.642 -38.6396 -107.838 -109.602v-61.1475h-70.3994v-85.251
h70.3994v-213.334z" />
    <glyph glyph-name="uniF1EB" unicode="&#xf1eb;" 
d="M64 0v384h384v-384h-384z" />
    <glyph glyph-name="uniF15D" unicode="&#xf15d;" 
d="M314.468 132.918c0.851562 -21.5254 169.592 -66.0088 170.786 -128.142h-458.5c-1.19434 62.1328 169.937 106.614 170.802 128.142c0.819336 21.3008 -19.374 29.0234 -30.3955 89.1797c-4.50098 24.3594 -20.0752 155.521 88.8398 157.126
c108.922 -1.60449 93.3486 -132.767 88.8477 -157.126c-11.0234 -60.1582 -31.209 -67.8809 -30.3799 -89.1797z" />
    <glyph glyph-name="uniF155" unicode="&#xf155;" 
d="M34.7119 192c-0.00683594 -9.5752 -7.78223 -17.3506 -17.3633 -17.3555c-9.56641 0.00488281 -17.3486 7.78711 -17.3486 17.3555c0 9.59277 7.77051 17.3682 17.3418 17.3555c9.59961 0.00585938 17.3701 -7.7627 17.3701 -17.3555zM42.251 134.726
c2.46875 -9.24219 -3.02344 -18.7812 -12.2773 -21.2471c-9.24023 -2.48242 -18.7725 3.00977 -21.2539 12.2705c-2.48242 9.26758 3.0166 18.7861 12.2637 21.2607c9.26758 2.4873 18.7793 -3.00391 21.2676 -12.2842zM40.6367 87.7148
c8.3125 4.81348 18.9219 1.96484 23.7158 -6.34473c4.78613 -8.29785 1.94531 -18.9287 -6.35254 -23.7275c-8.29102 -4.77246 -18.9141 -1.92676 -23.708 6.37109c-4.80078 8.29102 -1.94531 18.915 6.34473 23.7012zM74.9688 35.5244
c6.78613 6.79297 17.7637 6.79297 24.5498 0.0117188c6.76074 -6.77734 6.77246 -17.7744 0 -24.5547c-6.7666 -6.76562 -17.7705 -6.76562 -24.5498 0c-6.7793 6.78027 -6.77246 17.7773 0 24.543zM145.355 0.371094c8.28418 -4.79199 11.1328 -15.4238 6.35938 -23.708
c-4.78613 -8.29297 -15.4307 -11.1387 -23.7148 -6.35938c-8.3252 4.78711 -11.1533 15.4229 -6.36621 23.6963c4.80762 8.3291 15.417 11.1631 23.7217 6.37109zM198.719 -21.7314c9.24707 -2.4873 14.7588 -12.0186 12.2773 -21.2588
c-2.46777 -9.24805 -12.0068 -14.7598 -21.2607 -12.2783c-9.26172 2.4668 -14.7529 12.0127 -12.2705 21.2334c2.48145 9.29395 11.9922 14.7783 21.2539 12.3037zM255.986 -29.2764c9.57324 -0.0117188 17.3623 -7.7959 17.3691 -17.3574
c0 -9.57129 -7.78906 -17.3623 -17.3623 -17.3682c-9.58594 0 -17.3633 7.79688 -17.3486 17.3418c-0.0078125 9.62793 7.75586 17.3838 17.3418 17.3838zM313.254 -21.7363c9.25391 2.46777 18.7861 -3.04492 21.2656 -12.2656
c2.48242 -9.25391 -3.03027 -18.7998 -12.2773 -21.2666c-9.25391 -2.49414 -18.7861 3.03223 -21.2402 12.252c-2.50098 9.28711 2.99023 18.7979 12.252 21.2803zM366.616 0.366211c8.30664 4.77246 18.9561 1.9248 23.7412 -6.34668
c4.77246 -8.29297 1.9248 -18.9375 -6.35938 -23.7158c-8.31152 -4.80566 -18.9492 -1.93359 -23.7012 6.34082c-4.82617 8.31836 -1.97852 18.9346 6.31934 23.7217zM412.46 35.5244c6.79297 6.7666 17.8037 6.7666 24.5576 -0.00195312
c6.77148 -6.76562 6.7793 -17.7764 0 -24.543c-6.77441 -6.79297 -17.79 -6.76562 -24.5293 -0.00488281c-6.80762 6.78711 -6.80762 17.7842 -0.0283203 24.5498zM471.349 87.6943c8.28613 -4.76562 11.1533 -15.4102 6.3457 -23.6943
c-4.77832 -8.32715 -15.4297 -11.1318 -23.6875 -6.35938c-8.3252 4.79883 -11.1738 15.4092 -6.37305 23.7148c4.80566 8.28418 15.4434 11.1328 23.7148 6.33887zM490.996 146.989c9.24902 -2.46094 14.7666 -12.0068 12.2705 -21.2607
c-2.46094 -9.2666 -12.0195 -14.7461 -21.2334 -12.25c-9.28711 2.46777 -14.7803 11.9785 -12.2842 21.2334c2.48633 9.26074 12.0273 14.7715 21.2471 12.2773zM198.726 405.749c-9.24707 -2.48926 -18.7793 3.00879 -21.2471 12.2705
c-2.48926 9.26074 3.00977 18.7793 12.2705 21.2607c9.24707 2.48242 18.7793 -3.01855 21.2471 -12.2842c2.48926 -9.24707 -3.00293 -18.7656 -12.2705 -21.2471zM128 413.699c8.28418 4.7959 18.9287 1.9541 23.7148 -6.35156
c4.79395 -8.29785 1.94629 -18.915 -6.35938 -23.7158c-8.30469 -4.78613 -18.9141 -1.94531 -23.7148 6.35938c-4.78613 8.30469 -1.94531 18.9229 6.35938 23.708zM74.9756 373.016c6.77441 6.7793 17.7715 6.7793 24.5361 0
c6.79297 -6.7793 6.79297 -17.7627 0.00683594 -24.5498c-6.77344 -6.76758 -17.7705 -6.77246 -24.5498 0.00683594c-6.76562 6.78027 -6.76562 17.7773 0.00683594 24.543zM57.9932 326.359c8.31152 -4.80078 11.1533 -15.4102 6.35938 -23.7148
c-4.79395 -8.28613 -15.4102 -11.1465 -23.7158 -6.35938c-8.2832 4.79883 -11.1318 15.4287 -6.34473 23.7148c4.79199 8.30469 15.4102 11.1533 23.7012 6.35938zM20.9834 237.002c-9.24023 2.48926 -14.7383 12.0137 -12.2637 21.2471
c2.48145 9.27539 12 14.7666 21.2471 12.2861c9.27539 -2.4834 14.7666 -11.9941 12.2842 -21.2607c-2.48828 -9.2627 -12.0068 -14.752 -21.2676 -12.2725zM256 413.288c-9.58594 0 -17.3555 7.76855 -17.3555 17.3564c0 9.58496 7.76953 17.3555 17.3555 17.3555
s17.3555 -7.77051 17.3555 -17.3555c0 -9.58789 -7.76953 -17.3564 -17.3555 -17.3564zM494.645 209.342c9.56641 0.0136719 17.3623 -7.76953 17.3555 -17.3555c0.0136719 -9.58789 -7.80371 -17.3496 -17.3486 -17.3369
c-9.60645 -0.00488281 -17.3701 7.75098 -17.3633 17.3438c0.0136719 9.5791 7.80371 17.3682 17.3564 17.3486zM469.749 249.252c-2.46094 9.26953 3.05078 18.8154 12.2773 21.2607c9.2334 2.49609 18.7793 -3.0166 21.2539 -12.2773
c2.49609 -9.25391 -3.04395 -18.7793 -12.2637 -21.2266c-9.28906 -2.50195 -18.7998 2.98242 -21.2676 12.2432zM471.355 296.304c-8.31836 -4.82129 -18.9209 -1.9873 -23.708 6.32617c-4.77246 8.3125 -1.91895 18.9424 6.35254 23.709
c8.27734 4.79297 18.9209 1.94531 23.708 -6.35254c4.81445 -8.2998 1.92676 -18.9375 -6.35254 -23.6826zM412.488 373.002c6.75293 6.78027 17.7754 6.78027 24.543 0c6.7998 -6.76562 6.76562 -17.7812 -0.00683594 -24.5273
c-6.78809 -6.79395 -17.7715 -6.81445 -24.5498 -0.0146484c-6.76562 6.79297 -6.74707 17.8105 0.0136719 24.542zM384.014 413.688c8.32617 -4.77344 11.1396 -15.4248 6.3457 -23.6895c-4.79883 -8.33203 -15.417 -11.1875 -23.708 -6.37305
c-8.29102 4.8125 -11.1396 15.4521 -6.35254 23.708c4.75879 8.29297 15.417 11.1621 23.7148 6.35449zM313.281 405.734c-9.24707 2.50098 -14.7588 12.042 -12.2725 21.2617c2.4541 9.23828 12.0068 14.7588 21.2549 12.2705
c9.27441 -2.4541 14.752 -12.0195 12.251 -21.2471c-2.46094 -9.28223 -11.9717 -14.7803 -21.2334 -12.2852zM314.971 229.152c20.3438 -0.651367 25.124 -27.4922 19.7139 -36.3281c5.08594 -5.23438 6.35938 -27.8105 -4.45312 -33.7012
c1.59277 -14.0762 -5.72266 -24.5361 -13.6748 -24.875c1.58594 -3.59473 -5.72266 -24.2041 -11.458 -26.4883c-5.71582 -2.28418 -45.4785 -6.875 -53.4307 -6.875c-7.94531 0 -39.4375 17.3506 -42.3047 17.9932c-2.85547 0.650391 -29.8926 -1.62598 -29.8926 -1.62598
c-13.9922 19.9521 -15.9053 61.5127 -13.9922 76.5479l29.8994 3.28223c4.14258 3.26758 10.4951 22.5762 21.9463 41.8711c4.7793 8.06152 20.3584 34.0283 23.8574 42.876c3.49707 8.82031 3.17285 17.6592 4.44629 35.9854
c45.8047 -0.331055 32.7598 -45.4912 28.3057 -57.5801c-4.44824 -12.1123 -5.72852 -30.1064 -5.72852 -30.1064s26.4062 -0.332031 46.7656 -0.975586z" />
    <glyph glyph-name="uniF148" unicode="&#xf148;" 
d="M256 261.898l-15.8818 -47.4629l-2.3457 -6.99316h-7.37207h-51.6406l37.499 -28.6523l5.56055 -4.23926l-1.92578 -6.7168l-15.3291 -53.3613l45.6504 31.3447l5.78516 3.99414l5.7959 -3.99414l44.8203 -30.7705l-16.0361 51.5068l-2.13965 6.83984l5.71387 4.35254
l39.0146 29.6963h-51.5586h-7.37305l-2.34473 6.99316zM256 294.164v0l25.5996 -76.4824h81.9199l-63.1602 -48.0869l24.8223 -79.7178l-69.1816 47.5029l-69.1611 -47.5029l23.2139 80.7832l-61.5723 47.0322h81.9199z" />
    <glyph glyph-name="uniF190" unicode="&#xf190;" 
d="M256 356.286l36.5713 -127.715h128l-96.6875 -68.9443l38.002 -114.187l-105.886 68.0439l-105.871 -68.041l35.5293 115.701l-94.2295 67.4268h128zM433.229 411.429h-354.442c-23.2852 0 -42.2148 -18.9297 -42.2148 -42.2148v-354.442
c0 -23.2705 18.9297 -42.2002 42.2148 -42.2002h354.442c23.2705 0 42.2002 18.9297 42.2002 42.2002v354.442c0 23.2852 -18.9297 42.2148 -42.2002 42.2148zM433.229 448v0c43.498 0 78.7715 -35.2734 78.7715 -78.7861v-354.442
c0 -43.498 -35.2695 -78.7715 -78.7715 -78.7715h-354.442c-43.5127 0 -78.7861 35.2734 -78.7861 78.7715v354.442c0 43.5127 35.2734 78.7861 78.7861 78.7861h354.442z" />
    <glyph glyph-name="uniF1B3" unicode="&#xf1b3;" 
d="M289.136 417.569l-226.642 -225.358l227.368 -226.051l-30.3516 -30.1602l-257.69 256.211l256.933 255.488z" />
    <glyph glyph-name="uniF176" unicode="&#xf176;" 
d="M450.56 427.52h-389.119c-22.5918 0 -40.96 -18.3682 -40.96 -40.96v-389.119c0 -22.5918 18.3682 -40.96 40.96 -40.96h389.119c22.5918 0 40.96 18.3682 40.96 40.96v389.119c0 22.5918 -18.3682 40.96 -40.96 40.96zM450.56 448v0
c33.9277 0 61.4404 -27.5127 61.4404 -61.4404v-389.119c0 -33.9277 -27.5127 -61.4404 -61.4404 -61.4404h-389.119c-33.9277 0 -61.4404 27.5127 -61.4404 61.4404v389.119c0 33.9277 27.5127 61.4404 61.4404 61.4404h389.119z" />
    <glyph glyph-name="uniF1B7" unicode="&#xf1b7;" 
d="M180.419 319.559v-206.443l172.037 103.007zM156.038 362.667v0l243.81 -146.586l-243.81 -145.985v292.571zM461.985 423.619h-411.971c-14.1328 0 -25.6338 -11.498 -25.6338 -25.6318v-363.21c0 -14.1338 11.501 -25.6348 25.6338 -25.6348h411.971
c14.1328 0 25.6338 11.501 25.6338 25.6348v363.21c0 14.1338 -11.501 25.6318 -25.6338 25.6318zM461.985 448v0c27.5107 0 50.0146 -22.5059 50.0166 -50.0127v-363.21c0 -27.5117 -22.5078 -50.0156 -50.0166 -50.0156h-411.971
c-27.5088 0 -50.0146 22.5039 -50.0146 50.0156v363.21c0 27.5068 22.5059 50.0127 50.0146 50.0127h411.971z" />
    <glyph glyph-name="uniF16A" unicode="&#xf16a;" 
d="M194.229 54.1543c11 0 19.8926 -8.81641 19.8926 -19.6865c0 -10.8818 -8.89258 -19.6982 -19.8926 -19.6982c-10.9707 0 -19.8857 8.81641 -19.8857 19.6982c0 10.8701 8.91699 19.6865 19.8857 19.6865zM388.368 54.1543c10.9844 0 19.8926 -8.81641 19.8926 -19.6865
c0 -10.8818 -8.9082 -19.6982 -19.8926 -19.6982s-19.8994 8.81641 -19.8994 19.6982c0 10.8701 8.91504 19.6865 19.8994 19.6865zM110.523 300.308h381.936l-60.7764 -196.923h-280.515l-76.8457 246.153h-48.3838l-6.24609 19.6924h69.2988zM416.961 123.077
l48.6162 157.538h-348.916l49.1758 -157.538h251.124z" />
    <glyph glyph-name="uniF119" unicode="&#xf119;" 
d="M247.312 157.094c13.4922 -11.5957 25.3135 -24.3955 35.4932 -38.3848c9.57715 -14.2012 14.5771 -32.7988 14.9385 -55.7627c0 -32.5879 -13.6885 -61.4404 -41.0654 -86.5889c-28.3857 -26.0361 -69.3457 -39.4688 -122.865 -40.3574
c-44.7998 0.436523 -78.2607 10.4658 -100.367 30.1172c-22.2871 18.3115 -33.4453 40.2529 -33.4453 65.8223c0 12.4092 3.62891 26.293 10.8877 41.5322c7.04785 15.2998 19.7871 28.7021 38.2344 40.2979c20.7207 12.4082 42.4805 20.7363 65.2803 24.8467
c22.5879 3.50879 41.3359 5.48145 56.2598 5.91797c-4.62305 6.33984 -8.73438 13.207 -12.334 20.4355c-4.21582 7.03223 -6.30957 15.4951 -6.30957 25.4189c0 5.93359 0.798828 10.8877 2.41016 14.8477c1.40039 4.17188 2.70996 8.01172 3.91504 11.5352
c-7.27344 -0.873047 -14.125 -1.30957 -20.5557 -1.30957c-34.0479 0.436523 -60.0088 11.7002 -77.8535 33.7764c-18.6885 20.5703 -28.0254 44.5146 -28.0254 71.8457c0 33.0244 13.2373 62.9766 39.7109 89.8711c18.1758 15.7217 37.0742 26.0068 56.6807 30.8105
c19.3965 4.15625 37.5869 6.23438 54.5732 6.23438h127.925l-39.499 -24.2451h-39.4541c4.02051 -2.62012 8.53809 -6.44434 13.5527 -11.4746c4.81934 -5.25488 9.54785 -11.7002 14.1553 -19.3506c4.42773 -7.21289 8.32812 -15.7363 11.7461 -25.585
c2.81641 -9.84863 4.20117 -21.3232 4.20117 -34.4395c-0.361328 -24.0635 -5.40625 -43.2939 -15.1338 -57.7354c-4.75879 -7.00195 -9.81836 -13.4473 -15.1494 -19.3506c-5.90332 -5.90332 -12.1973 -11.9268 -18.8682 -18.04
c-3.81055 -4.15625 -7.33398 -8.85547 -10.5713 -14.1104c-3.81055 -5.4668 -5.72266 -11.8066 -5.72266 -19.0195c0 -7.00195 1.95703 -12.7998 5.87305 -17.3926c3.3125 -4.36719 6.55078 -8.19238 9.68262 -11.5049zM167.363 233.773
c16.8359 0.647461 30.8711 7.00195 42.0898 19.0645c5.4209 8.53809 8.89941 17.3027 10.4355 26.292c0.933594 8.97559 1.40039 16.5352 1.40039 22.6787c0 26.5186 -6.45996 53.248 -19.3506 80.2041c-6.03809 12.9355 -14.0039 23.4463 -23.8828 31.5479
c-10.0742 7.66504 -21.6699 11.7158 -34.7861 12.167c-17.333 -0.436523 -31.7441 -7.78516 -43.2334 -22.0156c-9.68359 -14.9082 -14.3359 -31.5635 -13.915 -49.9648c0 -24.3203 6.76172 -49.6338 20.3145 -75.9268c6.55078 -12.2734 15.0293 -22.6787 25.3896 -31.2168
c10.3604 -8.56836 22.2119 -12.8301 35.5381 -12.8301zM233.321 -14.8936c15.4805 13.3574 23.2363 30.54 23.2363 51.5615c0 17.0615 -5.30078 31.9404 -15.8877 44.6191c-11.2031 12.0176 -28.7168 26.79 -52.54 44.2881
c-4.08105 0.4375 -8.85449 0.647461 -14.3662 0.647461c-3.26758 0.4375 -11.6104 0 -25.0576 -1.3252c-13.252 -1.97266 -26.79 -5.11914 -40.6436 -9.50195c-3.25293 -1.3252 -7.8457 -3.29785 -13.749 -5.91797c-5.91797 -2.87598 -11.9268 -6.91211 -18.0254 -12.167
c-5.91797 -5.4668 -10.9023 -12.2588 -14.9688 -20.3447c-4.69824 -8.56836 -7.03223 -18.8232 -7.03223 -30.8555c0 -23.5977 10.1797 -43.0684 30.5547 -58.3828c19.3506 -15.2998 45.8232 -23.1758 79.4346 -23.6279c30.1484 0.466797 53.1729 7.46973 69.0449 21.0068z
M512 238.381v-41.2305h-68.9092v-70.4453h-39.3789v70.4453h-67.2979v1.52051h-0.421875v40.0713h67.7197v71.8008h39.3789v-71.8008h67.2979v-0.361328h1.61133z" />
    <glyph glyph-name="uniF17C" unicode="&#xf17c;" 
d="M367.305 247.459h77.9131v-289.198h-378.436v289.198h77.9131v67.0518c0 61.3242 49.9316 111.229 111.305 111.229s111.305 -49.9043 111.305 -111.229v-67.0518zM166.956 314.511v-67.0518h178.088v67.0518c0 49.0605 -39.9473 88.9834 -89.0439 88.9834
s-89.0439 -39.9209 -89.0439 -88.9834z" />
    <glyph glyph-name="uniF10B" unicode="&#xf10b;" 
d="M43.0078 37.2734l327.646 327.646l61.4736 -61.4062l-327.68 -327.68l-102.4 -40.9941zM452.59 323.981l-61.4258 61.4258l61.4258 61.4248l61.4248 -61.4248z" />
    <glyph glyph-name="uniF16B" unicode="&#xf16b;" 
d="M452.923 135.385c-31.2217 0 -56.6152 25.3906 -56.6152 56.6152c0 31.2217 25.3936 56.6152 56.6152 56.6152c31.2227 0 56.6152 -25.3936 56.6152 -56.6152c0 -31.2246 -25.3926 -56.6152 -56.6152 -56.6152zM452.923 233.846
c-23.0771 0 -41.8457 -18.7705 -41.8457 -41.8457c0 -23.0771 18.7686 -41.8457 41.8457 -41.8457c23.0781 0 41.8467 18.7686 41.8467 41.8457c0 23.0752 -18.7686 41.8457 -41.8467 41.8457zM256 135.385c-31.2217 0 -56.6152 25.3906 -56.6152 56.6152
c0 31.2217 25.3936 56.6152 56.6152 56.6152s56.6152 -25.3936 56.6152 -56.6152c0 -31.2246 -25.3936 -56.6152 -56.6152 -56.6152zM256 233.846c-23.0771 0 -41.8457 -18.7705 -41.8457 -41.8457c0 -23.0771 18.7686 -41.8457 41.8457 -41.8457
s41.8457 18.7686 41.8457 41.8457c0 23.0752 -18.7686 41.8457 -41.8457 41.8457zM59.0771 135.385c-31.2227 0 -56.6152 25.3906 -56.6152 56.6152c0 31.2217 25.3926 56.6152 56.6152 56.6152c31.2217 0 56.6152 -25.3936 56.6152 -56.6152
c0 -31.2246 -25.3936 -56.6152 -56.6152 -56.6152zM59.0771 233.846c-23.0781 0 -41.8467 -18.7705 -41.8467 -41.8457c0 -23.0771 18.7686 -41.8457 41.8467 -41.8457c23.0771 0 41.8457 18.7686 41.8457 41.8457c0 23.0752 -18.7686 41.8457 -41.8457 41.8457z" />
    <glyph glyph-name="uniF11A" unicode="&#xf11a;" 
d="M512 398.003v0v0zM354.483 448c-58.0098 0 -105.05 -47.7441 -105.05 -106.637c0 -8.3584 0.93457 -16.499 2.71387 -24.3076c-87.2959 4.45508 -164.686 46.9121 -216.499 111.425c-9.0498 -15.7441 -14.2217 -34.0742 -14.2217 -53.6064
c0 -36.9922 18.5479 -69.6328 46.7334 -88.7559c-17.2285 0.550781 -33.4209 5.35059 -47.5781 13.3379v-1.34375c0 -51.6611 36.2119 -94.7715 84.2627 -104.563c-8.81934 -2.43164 -18.0996 -3.7373 -27.6738 -3.7373c-6.77051 0 -13.3506 0.665039 -19.7627 1.90723
c13.3633 -42.3682 52.1602 -73.1904 98.125 -74.0615c-35.9561 -28.5947 -81.2422 -45.6445 -130.458 -45.6445c-8.47363 0 -16.832 0.499023 -25.0625 1.48535c46.4766 -30.2471 101.696 -47.8984 161.012 -47.8984c193.216 0 298.867 162.496 298.867 303.398
c0 4.62109 -0.102539 9.22949 -0.294922 13.7988c20.5186 15.04 38.3232 33.8174 52.4033 55.2061c-18.8418 -8.47363 -39.0781 -14.208 -60.3262 -16.793c21.6826 13.1963 38.3486 34.0986 46.1826 58.9951c-20.2881 -12.2246 -42.7783 -21.0947 -66.7012 -25.8818
c-19.1621 20.7236 -46.4639 33.6768 -76.6719 33.6768z" />
    <glyph glyph-name="uniF128" unicode="&#xf128;" 
d="M256 448c141.382 0 256 -114.618 256 -256s-114.618 -256 -256 -256s-256 114.618 -256 256s114.618 256 256 256zM256 -40.7275c128.535 0 232.728 104.192 232.728 232.728s-104.192 232.728 -232.728 232.728c-128.523 0 -232.728 -104.192 -232.728 -232.728
s104.204 -232.728 232.728 -232.728zM240 205.44h7.5752c4.8877 0 9.6582 0.441406 14.3008 1.34961c4.64355 0.895508 8.7627 2.45508 12.3467 4.6543s6.48145 5.18945 8.66895 8.95996c2.19922 3.77051 3.29297 8.43652 3.29297 13.9873
c0 4.42188 -0.814453 8.38965 -2.43164 11.9033c-1.64062 3.51465 -3.875 6.50488 -6.72559 8.95996c-2.85156 2.45605 -6.10938 4.37598 -9.77539 5.76074c-3.66504 1.39648 -7.52832 2.09375 -11.6123 2.09375c-7.33105 0 -13.5684 -1.87305 -18.6885 -5.62012
c-5.13184 -3.73535 -8.99512 -8.95996 -11.6133 -15.6387l-21.5039 7.5752c4.23535 10.4258 11.0312 18.6182 20.3984 24.5527c9.36719 5.94629 20.1543 8.9248 32.373 8.9248c7.16797 0 13.9746 -1.02441 20.3984 -3.06055
c6.43457 -2.04785 12.0664 -5.02637 16.9072 -8.93652c4.8291 -3.92188 8.65723 -8.82031 11.4736 -14.6855c2.81641 -5.87598 4.23535 -12.6484 4.23535 -20.3164c0 -4.89941 -0.767578 -9.46094 -2.32715 -13.708c-1.54785 -4.23535 -3.65332 -8.06348 -6.3418 -11.4971
c-2.6875 -3.43262 -5.91113 -6.36426 -9.6582 -8.80859c-3.74707 -2.45508 -7.81934 -4.24707 -12.2178 -5.3877v-0.488281c5.0498 -0.977539 9.73926 -2.67676 14.0566 -5.12012c4.30566 -2.44336 8.01758 -5.49219 11.1123 -9.1582
c3.0957 -3.66504 5.53906 -7.84277 7.33105 -12.5664c1.78027 -4.72461 2.68848 -9.84473 2.68848 -15.3604c0 -8.63477 -1.61816 -16.2441 -4.84082 -22.8428c-3.22363 -6.5625 -7.50586 -12.0664 -12.835 -16.4531c-5.33008 -4.38672 -11.4971 -7.72656 -18.502 -9.99609
c-7.0166 -2.29199 -14.1846 -3.43262 -21.5039 -3.43262c-13.6846 0 -25.7402 3.0957 -36.166 9.29785c-10.4258 6.17871 -18.002 15.79 -22.7256 28.8467l21.9922 7.31934c2.60645 -7.50586 7.04004 -13.5918 13.3242 -18.3164
c6.27148 -4.72363 13.9629 -7.08594 23.0859 -7.08594c4.39844 0 8.68066 0.686523 12.8232 2.07129c4.1543 1.38477 7.86621 3.45605 11.125 6.22559c3.25781 2.76855 5.86426 6.20215 7.81934 10.2744c1.95508 4.07324 2.93262 8.89062 2.93262 14.4062
c0 6.05078 -1.30371 11.0889 -3.91016 15.1621c-2.60645 4.07227 -5.99219 7.36523 -10.1465 9.89062c-4.14258 2.54785 -8.83203 4.31738 -14.0459 5.3877c-5.21289 1.07031 -10.3447 1.59375 -15.3945 1.59375h-7.33105v19.2822h0.0351562z" />
    <glyph glyph-name="uniF127" unicode="&#xf127;" 
d="M256 448c141.382 0 256 -114.618 256 -256s-114.618 -256 -256 -256s-256 114.618 -256 256s114.618 256 256 256zM256 -40.7275c128.535 0 232.728 104.192 232.728 232.728s-104.192 232.728 -232.728 232.728c-128.523 0 -232.728 -104.192 -232.728 -232.728
s104.204 -232.728 232.728 -232.728zM312.46 103.296h-112.908v22.7256l68.9229 68.4219c5.20117 5.37598 9.68066 10.9971 13.4277 16.8613c3.74707 5.86523 5.60938 12.4512 5.60938 19.7939c0 4.56055 -0.81543 8.66895 -2.43262 12.3457
c-1.64062 3.6543 -3.83984 6.7959 -6.60938 9.40234c-2.76953 2.61816 -6.02734 4.60742 -9.77441 5.99219s-7.73828 2.08301 -11.9736 2.08301c-8.79688 0 -16.0469 -2.80371 -21.749 -8.43652c-5.70117 -5.6084 -9.28516 -12.834 -10.752 -21.6201l-23.2139 3.91016
c0.977539 6.5166 3.04883 12.5908 6.22559 18.1992c3.17676 5.62012 7.21387 10.5078 12.1016 14.6621c4.88672 4.1543 10.542 7.37695 16.9775 9.6582c6.43457 2.26855 13.3232 3.4209 20.6426 3.4209c7.17969 0 14.0449 -1.07031 20.6543 -3.17676
c6.58691 -2.11816 12.4043 -5.21289 17.4785 -9.28613c5.0498 -4.07227 9.06445 -9.2041 12.0898 -15.3945c3.00195 -6.19043 4.52637 -13.2773 4.52637 -21.248c0 -5.55078 -0.744141 -10.6826 -2.19922 -15.3955c-1.47754 -4.72363 -3.45605 -9.2041 -6.00391 -13.4395
c-2.52539 -4.23535 -5.48145 -8.27344 -8.91406 -12.0898c-3.43262 -3.8291 -7.00488 -7.62207 -10.752 -11.3691l-56.2148 -54.7373h84.8057v-21.2832h0.0351562z" />
    <glyph glyph-name="uniF1CC" unicode="&#xf1cc;" 
d="M317.043 409.6h118.157v-118.144h-26.2529v73.3311l-99.1484 -99.1611c29.6699 -30.7334 47.9736 -72.5 47.9736 -118.579c0 -94.2598 -76.4033 -170.676 -170.675 -170.676c-94.2461 0 -170.649 76.416 -170.649 170.676c0 94.2461 76.4033 170.649 170.649 170.649
c38.7588 0 74.4062 -12.9023 103.04 -34.624l100.236 100.301h-73.3311v26.2266zM331.469 147.047c0 79.6025 -64.7422 144.409 -144.396 144.409c-79.6035 0 -144.384 -64.7939 -144.384 -144.409c0 -79.6162 64.7549 -144.397 144.384 -144.397
c79.6416 0 144.409 64.7559 144.396 144.397zM187.11 255.782c60.0957 0 108.787 -48.6914 108.787 -108.8s-48.6914 -108.8 -108.787 -108.8c-60.1211 0 -108.812 48.6914 -108.812 108.8s48.6777 108.8 108.812 108.8z" />
    <glyph glyph-name="uniF1DE" unicode="&#xf1de;" horiz-adv-x="511" 
d="M448 191.53v0l-384 -234.197v469.334zM85.334 -4.67188v0l321.749 196.245l-321.749 197.014v-393.259z" />
    <glyph glyph-name="uniF1B5" unicode="&#xf1b5;" 
d="M425.874 448c47.4697 0 86.126 -38.6562 86.126 -86.126v-339.748c0 -47.4697 -38.6562 -86.126 -86.126 -86.126h-339.748c-34.9629 0 -46.7021 16.0186 -50.6152 25.417c-4.02246 9.50879 -6.91211 29.0742 17.9199 53.9062l249.783 249.819h-156.928v36.5352
l219.428 0.0361328v-219.428h-36.5713v156.964l-249.929 -249.819c-8.11914 -8.08203 -4.31543 -16.8955 6.91211 -16.8955h339.748c27.2822 0 49.5908 22.3086 49.5908 49.5908v339.748c0 27.2461 -22.3086 49.5908 -49.5908 49.5908h-339.748
c-27.2461 0 -49.5908 -22.3447 -49.5908 -49.5908v-242.98l-36.5352 -36.5352v279.516c0 47.4697 38.6562 86.126 86.126 86.126h339.748zM329.143 265.143v-0.0732422l-0.0732422 0.0732422h0.0732422z" />
    <glyph glyph-name="uniF129" unicode="&#xf129;" 
d="M256 448c141.382 0 256 -114.618 256 -256s-114.618 -256 -256 -256s-256 114.618 -256 256s114.618 256 256 256zM256 -40.7275c128.535 0 232.728 104.192 232.728 232.728s-104.192 232.728 -232.728 232.728c-128.523 0 -232.728 -104.192 -232.728 -232.728
s104.204 -232.728 232.728 -232.728zM294.854 164.631h24.9375v-20.293h-24.9375v-38.8428h-22.9697v38.8428h-79.6748v21.5039l73.5537 112.663h29.0791v-113.874h0.0117188zM271.884 251.38h-0.489258l-54.7373 -86.749h55.2266v86.749z" />
    <glyph glyph-name="uniF110" unicode="&#xf110;" 
d="M0 448h512v-358.353h-512v358.353zM484.006 422.4h-455.988l227.793 -150.188zM25.5996 115.224h460.801v278.115l-230.59 -151.798l-230.211 151.774v-278.092z" />
    <glyph glyph-name="uniF1E7" unicode="&#xf1e7;" 
d="M490.667 213.333h-213.334v213.334h-42.666v-213.334h-213.334v-42.666h213.334v-213.334h42.666v213.334h213.334v42.666z" />
    <glyph glyph-name="uniF17B" unicode="&#xf17b;" 
d="M254.887 448h100.174v-100.174h-22.2607v62.1074l-84.1455 -84.1455c25.1543 -26.0459 40.7373 -61.4404 40.7373 -100.396c0 -76.1328 -58.9912 -138.463 -133.565 -144.251v-78.3584h44.5215v-22.2607h-44.5215v-44.5215h-22.2607v44.5215h-44.5215v22.2607h44.5215
v78.3584c-74.5742 5.78809 -133.565 68.1182 -133.565 144.251c0 79.6934 65.002 144.695 144.695 144.695c32.7236 0 62.999 -10.9082 87.2627 -29.3848l85.0371 85.0371h-62.1084v22.2607zM267.131 225.392c0 67.4502 -54.9844 122.435 -122.436 122.435
c-67.4502 0 -122.435 -54.9844 -122.435 -122.435c0 -67.4512 54.9844 -122.436 122.435 -122.436c67.4512 0 122.436 54.9844 122.436 122.436z" />
    <glyph glyph-name="uniF1F3" unicode="&#xf1f3;" 
d="M510.858 356.188c-18.7949 -8.33594 -38.9941 -13.9717 -60.1953 -16.5029c21.6396 12.9697 38.2578 33.5098 46.083 57.9844c-20.25 -12.0107 -42.6807 -20.7344 -66.5557 -25.4336c-19.1182 20.3701 -46.3564 33.0967 -76.501 33.0967
c-57.8857 0 -104.812 -46.9258 -104.812 -104.805c0 -8.21582 0.926758 -16.2139 2.71289 -23.8867c-87.1055 4.37109 -164.333 46.0967 -216.026 109.509c-9.02148 -15.4795 -14.1904 -33.4844 -14.1904 -52.6914c0 -36.3613 18.5049 -68.4414 46.626 -87.2383
c-17.1807 0.543945 -33.3398 5.26074 -47.4727 13.1104c-0.00683594 -0.439453 -0.00878906 -0.875977 -0.00878906 -1.31738c0 -50.7832 36.1279 -93.1445 84.0742 -102.771c-8.7959 -2.39355 -18.0547 -3.67578 -27.6123 -3.67578
c-6.75293 0 -13.3193 0.657227 -19.7197 1.87988c13.3379 -41.6387 52.0449 -71.9414 97.9082 -72.7881c-35.8701 -28.1094 -81.0625 -44.8652 -130.166 -44.8652c-8.46094 0 -16.8047 0.49707 -25.002 1.46289c46.3828 -29.7354 101.474 -47.0869 160.661 -47.0869
c192.783 0 298.203 159.704 298.203 298.206c0 4.54297 -0.100586 9.0625 -0.302734 13.5586c20.4766 14.7773 38.2471 33.2373 52.2969 54.2549z" />
    <glyph glyph-name="uniF1D2" unicode="&#xf1d2;" 
d="M362.667 277.333v0l64 -106.666h-320v-192h-21.334v405.333h341.334zM106.667 362.667v0v-170.667h282.325l-51.2002 85.333l51.2002 85.334h-282.325z" />
    <glyph glyph-name="uniF100" unicode="&#xf100;" 
d="M310.841 393.153l-201.147 -201.147l201.147 -201.134l-54.8467 -54.8467l-255.994 255.969l0.0126953 0.0117188l-0.0126953 0.0126953l256.006 255.969z" />
    <glyph glyph-name="uniF10D" unicode="&#xf10d;" 
d="M468.77 448h41.6475v-343.597h-83.2959v201.14l-368.23 -369.543c-7.62207 7.62207 -37.7129 37.7119 -58.8906 58.8906l368.502 369.813h-201.681v83.2959h301.781h0.166992z" />
    <glyph glyph-name="uniF1E9" unicode="&#xf1e9;" 
d="M64 -21.333v192h85.333v-192h-85.333zM213.333 -21.333v320h85.334v-320h-85.334zM362.667 -21.333v426.666h85.333v-426.666h-85.333z" />
    <glyph glyph-name="uniF106" unicode="&#xf106;" 
d="M512 411.433l-219.441 -219.424l219.441 -219.441l-36.585 -36.5674l-219.424 219.424l-219.406 -219.424l-36.585 36.5674l219.424 219.441l-219.424 219.424l36.585 36.5674l219.406 -219.424l219.424 219.424z" />
    <glyph glyph-name="uniF102" unicode="&#xf102;" 
d="M165.652 252.231v-60.2314h-60.2314v60.2314h60.2314zM165.652 131.736v-60.2314h-60.2314v60.2314h60.2314zM286.116 131.736v-60.2314h-60.2002v60.2314h60.2002zM406.61 131.736v-60.2314h-60.2627v60.2314h60.2627zM286.116 252.231v-60.2314h-60.2002v60.2314
h60.2002zM406.61 252.231v-60.2314h-60.2627v60.2314h60.2627zM406.61 448h105.39v-481.916h-512v481.916h105.421v-60.2314h60.2314v60.2314h180.695v-60.2314h60.2627v60.2314zM481.916 -3.76855h-0.0322266v331.306h-451.768v-331.306h451.8z" />
    <glyph glyph-name="uniF1A2" unicode="&#xf1a2;" 
d="M116.363 5.81641v372.365h93.0908v-372.365h-93.0908zM302.546 378.182h93.0908v-372.365h-93.0908v372.365z" />
    <glyph glyph-name="uniF156" unicode="&#xf156;" 
d="M317.44 243.262h10.2393v-122.88h-122.88v10.2393h112.641v112.641zM307.2 263.741v-122.88h-122.88v122.88h122.88zM296.96 151.102v102.399h-102.4v-102.399h102.4zM238.285 165.643c-8.19238 -2.25293 -16.1797 1.03418 -17.8184 7.32129
c-1.64844 6.30762 3.66602 13.2305 11.8584 15.4824c5.03809 1.39355 9.98438 0.666016 13.4346 -1.5459v51.6816c0 1.41309 1.13672 2.53906 2.56055 2.53906c1.42285 0 2.55957 -1.14648 2.55957 -2.55957v-2.91895h0.0107422
c-0.0107422 -0.0410156 -0.512695 -4.29004 6.5332 -9.95312c7.63867 -6.10254 10.915 -10.7002 11.5293 -23.2852l-5.10938 -0.236328c-0.532227 11.2031 -3.20508 14.3975 -9.61523 19.5381c-1.32129 1.06543 -2.39648 2.0791 -3.33789 3.08203v-43.7549
c0 -0.563477 -0.225586 -1.0752 -0.542969 -1.49512c0.481445 -5.83691 -4.54688 -11.8271 -12.0625 -13.8955z" />
    <glyph glyph-name="uniF1AF" unicode="&#xf1af;" 
d="M375.467 396.8v-409.6l-162.134 136.533h-76.7998v136.533h76.7998z" />
    <glyph glyph-name="uniF123" unicode="&#xf123;" 
d="M256 448c141.359 0 256 -114.62 256 -256c0 -141.359 -114.62 -255.979 -256 -255.979s-256 114.6 -256 255.979s114.62 256 256 256zM256 84.6543c59.291 0 107.346 48.0752 107.346 107.366s-48.0547 107.366 -107.346 107.366s-107.346 -48.0752 -107.346 -107.366
s48.0547 -107.366 107.346 -107.366zM237.429 192.021c0 10.2568 8.31445 18.5713 18.5713 18.5713s18.5713 -8.31445 18.5713 -18.5713s-8.31445 -18.5723 -18.5713 -18.5723s-18.5713 8.31543 -18.5713 18.5723z" />
    <glyph glyph-name="uniF174" unicode="&#xf174;" 
d="M189.218 225.392v-44.5225h-44.5225v44.5225h44.5225zM189.218 136.348v-44.5215h-44.5225v44.5215h44.5225zM278.261 136.348v-44.5215h-44.5215v44.5215h44.5215zM367.305 136.348v-44.5215h-44.5225v44.5215h44.5225zM278.261 225.392v-44.5225h-44.5215v44.5225
h44.5215zM367.305 225.392v-44.5225h-44.5225v44.5225h44.5225zM367.305 370.087h77.9131v-356.174h-378.436v356.174h77.9131v-44.5215h44.5225v44.5215h133.564v-44.5215h44.5225v44.5215zM422.956 36.1738v244.87h-333.912v-244.87h333.912z" />
    <glyph glyph-name="uniF132" unicode="&#xf132;" 
d="M255.999 448c141.385 0 256.001 -114.615 256.001 -256c0 -141.384 -114.616 -256 -256.001 -256c-141.383 0 -255.999 114.616 -255.999 256c0 141.385 114.616 256 255.999 256zM312.832 274.766v42.3242c-4.33594 0.575195 -19.21 1.86328 -36.5146 1.86328
c-36.1299 0 -60.8643 -22.0518 -60.8643 -62.5508v-34.8975h-40.8613v-47.3213h40.8613v-121.425h48.8682v121.425h40.7588l6.10156 47.3213h-46.8604v30.2129c0 13.6992 3.80469 23.0371 23.4512 23.0371z" />
    <glyph glyph-name="uniF177" unicode="&#xf177;" 
d="M213.76 94.335l-93.2803 88.3691l17.6006 18.5752l75.6797 -71.6797l160.16 151.72l17.6006 -18.583zM450.56 427.52h-389.119c-22.5918 0 -40.96 -18.3682 -40.96 -40.96v-389.119c0 -22.5918 18.3682 -40.96 40.96 -40.96h389.119c22.5918 0 40.96 18.3682 40.96 40.96
v389.119c0 22.5918 -18.3682 40.96 -40.96 40.96zM450.56 448v0c33.9277 0 61.4404 -27.5127 61.4404 -61.4404v-389.119c0 -33.9277 -27.5127 -61.4404 -61.4404 -61.4404h-389.119c-33.9277 0 -61.4404 27.5127 -61.4404 61.4404v389.119
c0 33.9277 27.5127 61.4404 61.4404 61.4404h389.119z" />
    <glyph glyph-name="uniF1AD" unicode="&#xf1ad;" 
d="M257.497 396.618c-0.126953 -2.09766 -0.248047 -4.12207 -0.371094 -6.07031c-1.45312 -24.2363 -2.41211 -40.25 -9.30273 -56.7754c-6.55762 -15.7705 -28.8193 -52.1084 -49.7334 -85.5645l-2.54004 -4.06641c-11.7217 -18.7744 -20.958 -37.7764 -28.3818 -53.0479
c-10.418 -21.4248 -15.3271 -31.1221 -22.4912 -36.5166l-3.44238 -2.5752l-4.2793 -0.456055l-51.3398 -5.34961c-1.63672 -33.9023 4.24219 -92.6299 23.5693 -125.739c13.9639 1.04688 40.043 2.87793 51.5273 2.87793c3.68555 0 5.9873 -0.183594 7.94531 -0.606445
c3.24316 -0.697266 6.99414 -2.37598 23.0312 -9.94141c15.0605 -7.08887 55.0596 -25.9258 64.3877 -26.3613c16.6367 0 94.8848 8.89844 108.157 12.7578c5.51562 5.01367 14.7334 27.0293 15.709 35.4971l-8.68457 18.8252l23.1934 0.919922
c2.4248 0.110352 5.23047 1.81934 7.70312 4.72852c5.61133 6.5752 8.1582 17.2842 6.80664 28.6367l-1.2666 10.667l9.52832 4.93652c3.62402 1.87891 6.58789 7 8.13965 14.0615c3.02539 13.7695 -0.370117 27.2588 -2.49023 30l-9.05469 8.83594l7.06055 10.4248
c2.56934 3.98047 3.61816 19.2725 -3.6123 33.0283c-5.78809 10.9941 -14.5635 16.7412 -26.0791 17.1035c-42.9941 1.30371 -99.3633 1.98828 -99.9209 2l-16.5264 0.194336l1.23633 16.4678c0.115234 1.5918 3.03027 39.2715 13.2607 65.7861
c9.70996 25.1094 15.4785 58.6914 2.56934 77.667c-6.50195 9.55078 -18.0117 15.4668 -34.3086 17.6543zM243.042 413.091v0c98.1826 -0.672852 70.2012 -92.7275 60.667 -117.383c-9.51953 -24.6787 -12.2598 -61.3516 -12.2598 -61.3516
s56.582 -0.673828 100.219 -2.00586c43.6172 -1.33496 53.8359 -56.0488 42.2656 -74.0371c10.9092 -10.6494 13.5947 -56.6904 -9.56348 -68.6904c3.41797 -28.6855 -12.2725 -50.0195 -29.291 -50.7031c3.39453 -7.34668 -12.3018 -49.3457 -24.5449 -54.001
c-12.2852 -4.67773 -97.4785 -14.0117 -114.532 -14.0117c-17.0312 0 -84.5352 35.3457 -90.668 36.667c-0.782227 0.168945 -2.39355 0.242188 -4.61914 0.242188c-15.2959 0 -59.4541 -3.52637 -59.4541 -3.52637c-29.9873 40.667 -34.0781 125.346 -29.9873 156.013
l64.0732 6.67871c8.87109 6.66602 22.5029 46.0352 47.042 85.3691c10.2412 16.4248 43.6172 69.3574 51.1143 87.3936c7.49121 17.9658 6.81152 35.9834 9.53906 73.3467z" />
    <glyph glyph-name="uniF15A" unicode="&#xf15a;" 
d="M358.4 289.321h-204.801c-5.6416 0 -10.2393 -4.59766 -10.2393 -10.2402v-143.36c0 -5.6416 4.59766 -10.2393 10.2393 -10.2393h25.6006h10.2402v-10.2402v-12.4014l34.3242 21.126l2.45703 1.51562h2.89844h129.28c5.6416 0 10.2393 4.59766 10.2393 10.2393v143.36
c0 5.64258 -4.59766 10.2402 -10.2393 10.2402zM358.4 299.561v0c11.3047 0 20.4795 -9.1748 20.4795 -20.4795v-143.36c0 -11.3047 -9.1748 -20.4795 -20.4795 -20.4795h-129.28l-49.9199 -30.7207v30.7207h-25.6006c-11.3047 0 -20.4795 9.1748 -20.4795 20.4795v143.36
c0 11.3047 9.1748 20.4795 20.4795 20.4795h204.801zM179.2 238.121v10.2402h153.6v-10.2402h-153.6zM179.2 166.441v10.2393h153.6v-10.2393h-153.6zM179.2 202.281v10.2393h153.6v-10.2393h-153.6z" />
    <glyph glyph-name="uniF1CF" unicode="&#xf1cf;" 
d="M56.8887 -64h1422.22c30.7959 0 56.8887 26.0928 56.8887 56.8887v398.223c0 30.7959 -26.0928 56.8887 -56.8887 56.8887h-1422.22c-30.7959 0 -56.8887 -26.0928 -56.8887 -56.8887v-398.223c0 -30.7959 26.0928 -56.8887 56.8887 -56.8887zM56.8887 -35.5557
c-14.7041 0 -28.4443 13.7402 -28.4443 28.4443v398.223c0 14.7041 13.7402 28.4443 28.4443 28.4443h1422.22c14.7041 0 28.4443 -13.7402 28.4443 -28.4443v-398.223c0 -14.7041 -13.7402 -28.4443 -28.4443 -28.4443h-1422.22zM244.622 100.978h-28.4443v201.956h125.155
v-25.6006h-96.7109v-62.5771h91.0225v-22.7559h-91.0225v-91.0225zM489.244 169.244v-5.68848v-5.68945h-108.089c0 -5.68848 2.84473 -11.377 2.84473 -17.0664c2.84473 -5.68848 5.68848 -8.5332 8.5332 -14.2217c2.84473 -2.84473 8.5332 -5.68945 14.2227 -8.5332
c5.68848 -2.84473 11.3779 -2.84473 17.0664 -2.84473c8.5332 0 17.0664 2.84473 22.7559 5.68848c5.68848 2.84473 11.377 8.5332 14.2217 14.2227l19.9111 -14.2227c-8.5332 -8.5332 -17.0664 -17.0664 -25.5996 -19.9111
c-8.5332 -5.68848 -19.9111 -5.68848 -31.2891 -5.68848s-19.9111 2.84473 -28.4443 5.68848c-8.5332 2.84473 -17.0664 8.5332 -22.7559 14.2227c-5.68848 5.68848 -11.3779 14.2217 -14.2217 22.7549c-2.84473 8.53418 -5.68945 17.0674 -5.68945 28.4453
c0 11.377 2.84473 19.9111 5.68945 28.4443c2.84375 8.5332 8.5332 17.0664 14.2217 22.7549c5.68945 5.68945 14.2227 11.3779 22.7559 14.2227s17.0664 5.68848 28.4443 5.68848s19.9111 -2.84375 25.5996 -5.68848c8.5332 -2.84473 14.2227 -8.5332 19.9111 -14.2227
c5.68945 -5.68848 8.5332 -14.2217 14.2227 -22.7549c2.84473 -5.68945 5.68848 -14.2227 5.68848 -25.6006zM460.8 180.622c0 5.68945 0 11.3779 -2.84473 14.2227c-2.84375 5.68848 -2.84375 8.5332 -5.68848 11.3779c-2.84473 2.84375 -5.68848 5.68848 -11.3779 8.5332
c-5.68848 2.84375 -11.3779 2.84375 -17.0664 2.84375s-11.3779 0 -17.0664 -2.84375c-5.68945 -2.84473 -8.5332 -5.68945 -14.2227 -8.5332c-2.84473 -2.84473 -5.68848 -8.53418 -8.5332 -11.3779c-2.84473 -5.68945 -2.84473 -8.5332 -2.84473 -14.2227h79.6445z
M608.711 189.155c0 11.3779 -2.84473 17.0674 -8.5332 22.7559s-14.2227 8.5332 -25.5996 8.5332c-8.5332 0 -14.2227 -2.84473 -22.7559 -5.68848c-8.5332 -2.84473 -11.3779 -8.5332 -17.0664 -14.2227l-14.2227 17.0664c5.68945 5.68945 14.2227 11.3779 25.6006 14.2227
c8.5332 2.84473 19.9111 5.68848 31.2881 5.68848c8.5332 0 17.0674 0 25.6006 -2.84375c8.5332 -2.84473 14.2217 -5.68945 17.0664 -11.3779c5.68848 -5.68945 8.5332 -11.3779 11.3779 -17.0664c2.84473 -5.68945 2.84473 -14.2227 2.84473 -19.9111v-59.7334v-14.2227
c0 -5.68848 0 -8.5332 2.84375 -11.3779h-25.5996c-2.84473 5.68945 -2.84473 14.2227 -2.84473 19.9111v0c-5.68848 -8.5332 -11.3779 -11.3779 -19.9111 -17.0664c-8.5332 -2.84473 -17.0664 -5.68848 -25.5996 -5.68848c-5.68945 0 -11.3779 0 -17.0664 2.84375
c-5.68945 0 -11.3779 2.84473 -17.0674 5.68945c-5.68848 2.84375 -8.5332 8.5332 -11.3779 14.2217c-2.84375 5.68945 -5.68848 11.3779 -5.68848 19.9111c0 11.3779 2.84473 17.0664 8.5332 25.6006c5.68945 8.5332 11.3779 11.377 22.7559 14.2217
c8.5332 2.84473 19.9111 5.68945 31.2891 5.68945c11.377 0 22.7549 2.84375 34.1328 2.84375v0zM600.178 163.556h-19.9111s-14.2217 -2.84473 -19.9111 -2.84473c-5.68848 -2.84473 -11.3779 -5.68848 -14.2217 -8.5332
c-2.84473 -2.84473 -5.68945 -8.5332 -5.68945 -14.2227c0 -2.84375 0 -8.5332 2.84473 -11.377c2.84473 -2.84473 2.84473 -5.68945 5.68848 -5.68945c2.84473 -2.84375 5.68945 -2.84375 8.5332 -2.84375h11.3779c11.3779 0 22.7559 2.84375 28.4443 11.377
c5.68945 8.5332 11.3779 17.0674 11.3779 28.4443v5.68945h-8.5332zM742.4 214.756h-36.9785v-71.1113c0 -8.5332 2.84473 -14.2227 5.68945 -17.0664c2.84375 -2.84473 8.5332 -5.68945 14.2217 -5.68945h8.5332c2.84473 0 5.68945 0 8.53418 2.84473v-22.7559
c-2.84473 0 -5.68945 -2.84375 -11.3779 -2.84375h-11.3779c-11.3779 0 -22.7559 2.84375 -28.4443 11.377c-5.68945 5.68945 -11.3779 17.0674 -11.3779 31.2891v73.9561h-25.5996v19.9111h25.5996v39.8223h25.5996v-39.8223h36.9785v-19.9111zM864.711 100.978v11.3779
v11.3779v0c-2.84473 -8.5332 -8.5332 -14.2227 -17.0664 -17.0664c-8.5332 -2.84473 -17.0664 -8.5332 -25.5996 -8.5332c-8.53418 0 -17.0674 0 -22.7559 2.84375c-5.68945 2.84473 -11.3779 5.68945 -17.0664 11.3779c-2.84473 5.68945 -5.68945 11.3779 -8.53418 17.0664
c-2.84375 5.68945 -5.68848 14.2227 -5.68848 22.7559v82.4893h25.5996v-73.9561v-17.0664c0 -5.68945 2.84473 -8.5332 5.68945 -14.2227c2.84473 -2.84375 5.68848 -5.68848 8.5332 -8.5332c2.84473 -2.84375 8.5332 -2.84375 14.2227 -2.84375
c11.377 0 19.9102 2.84375 25.5996 11.377c5.68848 8.5332 11.3779 19.9111 11.3779 31.2891v73.9561h25.5996v-105.245v-14.2217v-14.2227h-19.9111zM932.978 220.444v14.2227h25.6006v-11.3779v-11.3779v0c2.84375 8.5332 8.5332 14.2227 17.0664 19.9111
s14.2217 8.5332 25.5996 8.5332h11.3779v-25.5996h-11.3779c-5.68848 0 -11.3779 0 -17.0664 -2.84473s-8.5332 -5.68848 -11.3779 -8.5332c-5.68848 -5.68945 -8.5332 -11.3779 -8.5332 -14.2227c-2.84473 -5.68848 -2.84473 -11.3779 -2.84473 -17.0664v-71.1113h-25.5996
v105.245c-2.84473 2.84375 -2.84473 8.5332 -2.84473 14.2217zM1157.69 169.244v-5.68848v-5.68945h-108.089c0 -5.68848 2.84473 -11.377 2.84473 -17.0664c2.84473 -5.68848 5.68945 -8.5332 8.5332 -14.2217c2.84473 -2.84473 8.5332 -5.68945 14.2227 -8.5332
c5.68848 -2.84473 11.3779 -2.84473 17.0664 -2.84473c8.5332 0 17.0664 2.84473 22.7559 5.68848c5.68848 2.84473 11.3779 8.5332 14.2217 14.2227l19.9111 -14.2227c-8.5332 -8.5332 -17.0664 -17.0664 -25.5996 -19.9111
c-8.5332 -5.68848 -19.9111 -5.68848 -31.2891 -5.68848s-19.9111 2.84473 -28.4443 5.68848c-8.5332 2.84473 -17.0664 8.5332 -22.7559 14.2227c-5.68848 5.68848 -11.3779 14.2217 -14.2217 22.7549c-2.84473 8.53418 -5.68945 17.0674 -5.68945 28.4453
c0 11.377 2.84473 19.9111 5.68945 28.4443c2.84375 8.5332 8.5332 17.0664 14.2217 22.7549c5.68945 5.68945 14.2227 11.3779 22.7559 14.2227s17.0664 5.68848 28.4443 5.68848s19.9111 -2.84375 25.5996 -5.68848c8.53418 -2.84473 14.2227 -8.5332 19.9111 -14.2227
c5.68945 -5.68848 8.53418 -14.2217 14.2227 -22.7549c5.68848 -5.68945 5.68848 -14.2227 5.68848 -25.6006zM1132.09 180.622c0 5.68945 0 11.3779 -2.84473 14.2227c-2.84375 5.68848 -2.84375 8.5332 -5.68848 11.3779
c-2.84473 2.84375 -8.5332 5.68848 -14.2227 8.5332c-5.68848 2.84375 -11.3779 2.84375 -17.0664 2.84375s-11.3779 0 -17.0664 -2.84375c-5.68945 -2.84473 -8.5332 -5.68945 -14.2227 -8.5332c-2.84375 -2.84473 -5.68848 -8.53418 -8.5332 -11.3779
c-2.84473 -5.68945 -2.84473 -8.5332 -2.84473 -14.2227h82.4893zM1302.76 120.889c-5.68945 -8.5332 -11.3779 -14.2217 -19.9111 -19.9111c-8.5332 -2.84375 -17.0674 -5.68848 -28.4443 -5.68848c-11.3779 0 -19.9111 2.84473 -28.4453 5.68848
c-8.5332 2.84473 -14.2217 8.5332 -22.7549 14.2227c-5.68945 5.68848 -11.3779 14.2217 -14.2227 22.7549c-2.84375 8.53418 -5.68848 17.0674 -5.68848 28.4453c0 11.377 2.84473 19.9111 5.68848 28.4443c2.84473 8.5332 8.5332 17.0664 14.2227 22.7549
c5.68848 5.68945 14.2217 11.3779 22.7549 14.2227c8.53418 2.84473 17.0674 5.68848 28.4453 5.68848c11.377 0 19.9111 -2.84375 28.4443 -5.68848s14.2217 -11.3779 19.9111 -17.0664v0v99.5557h25.5996v-216.178h-25.5996v22.7549v0zM1214.58 169.244
c0 -5.68848 0 -11.3779 2.84375 -17.0664c2.84473 -5.68848 5.68945 -11.3779 8.5332 -14.2227c2.84473 -5.68848 8.53418 -8.5332 14.2227 -11.377c5.68848 -2.84473 11.3779 -2.84473 19.9111 -2.84473c5.68848 0 14.2227 0 19.9111 2.84473
c5.68848 2.84375 11.3779 5.68848 14.2227 11.377c2.84375 5.68945 5.68848 8.53418 8.5332 14.2227c2.84375 5.68848 2.84375 11.3779 2.84375 17.0664c0 5.68945 0 11.3779 -2.84375 17.0674c-2.84473 5.68848 -5.68945 11.377 -8.5332 14.2217
c-2.84473 5.68945 -8.53418 8.5332 -14.2227 11.3779s-11.3779 2.84473 -19.9111 2.84473s-14.2227 0 -19.9111 -2.84473s-11.3779 -5.68848 -14.2227 -11.3779c-2.84375 -5.68848 -5.68848 -8.5332 -8.5332 -14.2217
c-2.84375 -5.68945 -2.84375 -11.3779 -2.84375 -17.0674z" />
    <glyph glyph-name="uniF169" unicode="&#xf169;" 
d="M194.229 54.1543c11 0 19.8926 -8.82227 19.8926 -19.6846c0 -10.8857 -8.89258 -19.7002 -19.8926 -19.7002c-10.9707 0 -19.8857 8.81445 -19.8857 19.7002c0 10.8623 8.91699 19.6846 19.8857 19.6846zM388.368 54.1543c10.9844 0 19.8926 -8.82227 19.8926 -19.6846
c0 -10.8857 -8.9082 -19.7002 -19.8926 -19.7002s-19.8994 8.81445 -19.8994 19.7002c0 10.8623 8.91504 19.6846 19.8994 19.6846zM110.523 300.308h381.936l-60.7764 -196.923h-280.515l-76.8457 246.153h-48.3838l-6.24609 19.6924h69.2988z" />
    <glyph glyph-name="uniF12B" unicode="&#xf12b;" 
d="M0 192c0 141.389 114.611 256 256 256s256 -114.611 256 -256c0 -141.376 -114.611 -256 -256 -256s-256 114.637 -256 256zM153.19 192l139.085 -114.444l16.2559 19.7754l-115.021 94.6689l115.033 94.6436l-16.2559 19.7754z" />
    <glyph glyph-name="uniF1B1" unicode="&#xf1b1;" 
d="M76.2549 77.6172l179.625 212.859l179.865 -212.859h-359.49zM0 448h512v-305.021h-94.6543l-18.417 21.7871h91.2842v261.447h-468.426v-261.447h91.2344l-18.3818 -21.7871h-94.6396v305.021z" />
    <glyph glyph-name="uniF159" unicode="&#xf159;" 
d="M332.759 238.172c-36.8232 -0.0205078 -73.9941 -38.1748 -85.4014 -51.415c-12.6562 -14.7148 -48.9678 -56.1045 -93.7676 -56.1045h-20.4805v15.3594h20.4805c36.833 0 69.3047 38.1748 80.6914 51.415c12.6562 14.7148 53.6885 56.085 98.4775 56.1055v30.6484
l46.1211 -38.3594l-46.1211 -38.3594v30.71zM221.562 200.857c-16.291 16.917 -40.417 37.3145 -67.9727 37.3145h-20.4805v15.3604h20.4805c33.249 0 60.8047 -21.2275 79.1348 -39.9668c-3.07227 -3.38965 -5.63184 -6.36914 -7.59863 -8.65234
c-1.19727 -1.39355 -2.38574 -2.72461 -3.56348 -4.05566zM332.759 146.012v30.6484l46.1211 -38.3584l-46.1211 -38.3594v30.71c-33.2393 0.00976562 -65.5156 21.248 -83.835 39.9766c3.07227 3.38965 5.64258 6.36914 7.59863 8.65332
c1.19824 1.39258 2.375 2.72363 3.56348 4.05469c16.292 -16.916 45.1377 -37.3145 72.6729 -37.3252z" />
    <glyph glyph-name="uniF1AA" unicode="&#xf1aa;" 
d="M376.656 217.029c-8.86621 -6.67773 -22.5029 -46.0303 -47.042 -85.3633c-10.2471 -16.4443 -43.6113 -69.374 -51.127 -87.3955c-7.48438 -18 -6.7998 -35.998 -9.52734 -73.3633c-98.1758 0.666992 -70.2246 92.7285 -60.6846 117.383
c9.54492 24.6807 12.2725 61.3564 12.2725 61.3564s-56.582 0.685547 -100.212 2.00195c-43.6182 1.33105 -53.8486 56.0361 -42.2734 74.0479c-10.8955 10.668 -13.6113 56.667 9.56445 68.6777c-3.43066 28.6855 12.2529 50.0205 29.2969 50.7051
c-3.39941 7.3457 12.2852 49.3457 24.5449 54.0127c12.2783 4.66406 97.4912 14.001 114.526 14.001c17.0361 0 84.5391 -35.3486 90.668 -36.6689c6.13281 -1.33301 64.0791 3.32227 64.0791 3.32227c29.9932 -40.6855 34.0791 -125.382 29.9932 -156.06z" />
    <glyph glyph-name="uniF10F" unicode="&#xf10f;" 
d="M165.647 252.235v-60.2354h-60.2354v60.2354h60.2354zM165.647 131.765v-60.2354h-60.2354v60.2354h60.2354zM286.117 131.765v-60.2354h-60.2344v60.2354h60.2344zM406.588 131.765v-60.2354h-60.2129v60.2354h60.2129zM286.117 252.235v-60.2354h-60.2344v60.2354
h60.2344zM406.588 252.235v-60.2354h-60.2129v60.2354h60.2129zM406.588 448h105.412v-481.883h-512v481.883h105.412v-60.2354h60.2354v60.2354h180.728v-60.2354h60.2129v60.2354zM481.883 -3.76465v331.294h-451.766v-331.294h451.766z" />
    <glyph glyph-name="uniF12D" unicode="&#xf12d;" 
d="M73.8877 162.379c10.0156 7.69629 25.4102 53.1289 53.1309 98.5615c11.5664 18.9619 49.2744 80.0762 57.749 100.866c8.47168 20.7861 7.69629 41.5791 10.7744 84.7021c110.892 -0.766602 79.3135 -107.037 68.5312 -135.521
c-10.7822 -28.4883 -13.8584 -70.835 -13.8584 -70.835s63.9131 -0.776367 113.188 -2.31055c49.2725 -1.53125 60.8271 -64.6787 47.7412 -85.4658c12.3262 -12.3174 15.3955 -65.457 -10.7803 -79.3154c3.84766 -33.1182 -13.8623 -57.7529 -33.1094 -58.5186
c3.85059 -8.47461 -13.8623 -56.9814 -27.7207 -62.3701c-13.8574 -5.38574 -110.114 -16.168 -129.358 -16.168s-95.4873 40.8154 -102.416 42.3467c-6.92969 1.53418 -72.375 -3.84375 -72.375 -3.84375c-33.8848 46.9814 -38.499 144.755 -33.8848 180.182
l72.3877 7.69043z" />
    <glyph glyph-name="uniF103" unicode="&#xf103;" 
d="M189.004 106.798c11.9443 0 21.5742 -9.54785 21.5742 -21.3271c0 -11.7783 -9.65039 -21.3262 -21.5742 -21.3262c-11.8623 0 -21.5332 9.54785 -21.5332 21.3262c0 11.7793 9.6709 21.3271 21.5332 21.3271zM399.251 106.798
c11.9238 0 21.5742 -9.54785 21.5742 -21.3271c0 -11.7783 -9.65039 -21.3262 -21.5742 -21.3262c-11.8828 0 -21.5332 9.54785 -21.5332 21.3262c0 11.7793 9.65039 21.3271 21.5332 21.3271zM98.3662 373.378v0.0205078h413.634l-65.8184 -213.264h-303.799
l-83.2188 266.56h-52.4062l-6.75781 21.3262h75.0557z" />
    <glyph glyph-name="uniF1ED" unicode="&#xf1ed;" 
d="M106.667 266.667c-23.5322 0 -42.667 19.0742 -42.667 42.666c0 23.4922 19.1348 42.667 42.667 42.667c23.5312 0 42.666 -19.1748 42.666 -42.667c0 -23.5918 -19.1348 -42.666 -42.666 -42.666v0zM106.667 138.667c-23.5322 0 -42.667 19.0742 -42.667 42.666
c0 23.4922 19.1348 42.667 42.667 42.667c23.5312 0 42.666 -19.1748 42.666 -42.667c0 -23.5918 -19.1348 -42.666 -42.666 -42.666v0zM106.667 10.667c-23.5322 0 -42.667 19.0742 -42.667 42.666c0 23.4922 19.1348 42.667 42.667 42.667
c23.5312 0 42.666 -19.1748 42.666 -42.667c0 -23.5918 -19.1348 -42.666 -42.666 -42.666v0zM192 320h256v-21.333h-256v21.333zM192 192h256v-21.333h-256v21.333zM192 64h256v-21.333h-256v21.333z" />
    <glyph glyph-name="uniF120" unicode="&#xf120;" 
d="M289.396 448c122.941 0 222.604 -99.6631 222.604 -222.604c0 -122.93 -99.6631 -222.604 -222.604 -222.604c-80.1104 0 -150.149 42.4873 -189.356 105.998l19.6318 11.7471c35.2646 -56.833 98.0449 -94.9121 169.725 -94.9121
c110.157 0 199.771 89.6133 199.771 199.771s-89.6133 199.771 -199.771 199.771c-71.7588 0 -134.597 -38.1465 -169.827 -95.1162l-19.6318 11.792c39.1836 63.6133 109.269 106.158 189.459 106.158zM0 348.645l205.49 -123.522l-205.49 -122.975v123.248v123.249z
M263.304 235.445h5.09277c2.87109 0 5.71973 0.239258 8.5459 0.717773c2.80273 0.478516 5.38867 1.35547 7.72461 2.63184s4.22754 3.00781 5.6748 5.18457c1.42383 2.17578 2.15332 5.02441 2.15332 8.53418c0 2.55176 -0.490234 4.8418 -1.44727 6.85938
c-0.957031 2.0166 -2.24414 3.72559 -3.91992 5.10449c-1.65137 1.37793 -3.55469 2.4375 -5.74219 3.18945c-2.17578 0.741211 -4.43262 1.11719 -6.76758 1.11719c-4.69434 0 -8.56836 -1.33301 -11.6338 -3.98828c-3.09863 -2.6543 -5.22949 -6.1748 -6.3916 -10.5273
l-18.0254 4.62598c0.957031 3.82812 2.58594 7.31445 4.85352 10.4482c2.29004 3.13281 5.04785 5.84473 8.30664 8.13477s6.89355 4.06738 10.9268 5.34375c4.04492 1.27637 8.30566 1.91406 12.7725 1.91406c4.87695 0 9.52539 -0.671875 13.9346 -1.99414
c4.41016 -1.32129 8.2832 -3.29199 11.5996 -5.90137c3.31543 -2.60938 5.9248 -5.82227 7.83887 -9.65137c1.8916 -3.82812 2.84863 -8.29395 2.84863 -13.3984c0 -6.0625 -1.8457 -11.4629 -5.51465 -16.1914c-3.64648 -4.72852 -8.56836 -7.83887 -14.7559 -9.33203
v-0.318359c6.91699 -1.39062 12.5342 -4.50098 16.8525 -9.32031c4.29492 -4.85449 6.44824 -10.7676 6.44824 -17.7979c0 -5.85645 -1.13867 -10.9492 -3.40625 -15.3135c-2.26758 -4.36328 -5.27539 -7.96387 -9.0127 -10.8359
c-3.7373 -2.87109 -7.96484 -5.02441 -12.6357 -6.47168c-4.67188 -1.42383 -9.38867 -2.1416 -14.1748 -2.1416c-4.78516 0 -9.32031 0.490234 -13.5703 1.51562c-4.26074 1.00195 -8.14648 2.58594 -11.7129 4.69434c-3.57715 2.1416 -6.72266 4.89941 -9.42285 8.30566
c-2.7002 3.40723 -4.80762 7.42871 -6.30078 12.123l17.8545 5.58301c1.37891 -4.47754 3.96484 -8.25977 7.74805 -11.3252c3.77148 -3.08789 8.70508 -4.62598 14.7549 -4.62598c2.4502 0 4.92285 0.330078 7.40625 1.02539
c2.48438 0.695312 4.74023 1.77734 6.7002 3.27051c1.98242 1.49219 3.55469 3.40625 4.78516 5.74219s1.8457 5.20703 1.8457 8.61426c0 3.62305 -0.888672 6.67676 -2.62109 9.19434c-1.75391 2.49512 -3.9873 4.47852 -6.63086 5.90234
c-2.64355 1.44727 -5.60547 2.47266 -8.85352 3.11035c-3.24707 0.626953 -6.3457 0.946289 -9.32031 0.946289h-4.78516v15.3018h-0.0224609zM407.323 225.396c0 -9.14941 -0.865234 -17.376 -2.62012 -24.7246c-1.75488 -7.34961 -4.31836 -13.5479 -7.65723 -18.6748
c-3.36133 -5.09277 -7.49707 -9.03516 -12.4424 -11.793c-4.96777 -2.75684 -10.6191 -4.13574 -16.999 -4.13574c-6.38086 0 -12.0664 1.37891 -17.0684 4.13574c-4.99121 2.75781 -9.19531 6.7002 -12.5908 11.793c-3.40625 5.11621 -5.98145 11.3252 -7.74805 18.6748
c-1.76562 7.34863 -2.62012 15.5752 -2.62012 24.7246s0.866211 17.3877 2.62012 24.7256c1.75488 7.33691 4.3418 13.5586 7.74805 18.6631c3.40723 5.10449 7.61133 9.03516 12.5908 11.8037c5.00195 2.76953 10.6875 4.14746 17.0684 4.14746
c6.37988 0 12.043 -1.38965 16.999 -4.14746c4.94531 -2.76855 9.08105 -6.69922 12.4424 -11.8037c3.33887 -5.10449 5.90234 -11.3262 7.65723 -18.6631c1.75488 -7.33789 2.62012 -15.5762 2.62012 -24.7256zM387.703 225.396
c0 3.93164 -0.227539 8.39746 -0.706055 13.3994c-0.467773 5.00195 -1.4248 9.73047 -2.87207 14.1973c-1.42383 4.46582 -3.49805 8.21484 -6.14062 11.2461c-2.64355 3.03027 -6.11914 4.5459 -10.3691 4.5459c-4.36328 0 -7.87305 -1.51562 -10.5273 -4.5459
c-2.64355 -3.03125 -4.69434 -6.78027 -6.1416 -11.2461c-1.4248 -4.4668 -2.42676 -9.19531 -2.96289 -14.1973c-0.512695 -4.99023 -0.774414 -9.46777 -0.774414 -13.3994c0 -3.93066 0.261719 -8.38574 0.774414 -13.3994
c0.536133 -5.00195 1.53809 -9.68457 2.96289 -14.0371c1.44727 -4.36426 3.49805 -8.05566 6.1416 -11.0859c2.64258 -3.03125 6.16406 -4.53516 10.5273 -4.53516c4.25 0 7.72559 1.51562 10.3691 4.53516c2.64258 3.01953 4.7168 6.72168 6.14062 11.0859
c1.44727 4.36426 2.4043 9.03516 2.87207 14.0371c0.478516 5.01367 0.706055 9.46875 0.706055 13.3994z" />
    <glyph glyph-name="uniF195" unicode="&#xf195;" 
d="M415.92 352.152c-76.7139 -0.0488281 -154.18 -79.5303 -177.912 -107.104c-26.3564 -30.666 -102.013 -116.888 -195.343 -116.888h-42.665v31.999h42.665c76.7227 0 144.371 79.5322 168.095 107.113c26.374 30.6572 111.839 116.83 205.16 116.879v63.8486
l96.0801 -79.9141l-96.0801 -79.9141v63.9805zM184.261 274.423c-33.9316 35.2305 -84.2061 77.7295 -141.596 77.7295h-42.665v31.999h42.665c69.248 0 126.671 -44.2314 164.846 -83.2715c-6.39062 -7.05762 -11.7246 -13.2734 -15.833 -18.0244
c-2.47656 -2.89062 -4.95996 -5.66602 -7.41699 -8.43262zM415.92 160.159v63.8486l96.0801 -79.9141l-96.0801 -79.915v63.9814c-69.248 0.0253906 -136.494 44.2568 -174.661 83.2803c6.40039 7.06543 11.75 13.2734 15.833 18.0234
c2.49805 2.89062 4.95801 5.66602 7.42383 8.44141c33.9346 -35.2217 94.0234 -77.7207 151.404 -77.7461z" />
    <glyph glyph-name="uniF19A" unicode="&#xf19a;" 
d="M286.567 170.985v19.1045h225.433v-19.1045h-225.433zM215.881 75.4629v19.1045h296.119v-19.1045h-296.119zM261.731 285.612h250.269v-19.1045h-240.717zM234.987 170.985h-19.1045c0 71.0381 -12.8672 88.0596 -46.8965 115.381
c-8.25488 6.62402 -14.7939 13.0391 -19.9697 19.1143c0 0 -0.0800781 -217.048 -0.217773 -217.695c2.59277 -27.7803 -21.5244 -56.458 -57.3193 -66.2773c-8.29102 -2.27734 -16.5361 -3.3584 -24.4473 -3.3584c-29.1045 0 -53.7695 14.6113 -59.8818 38.0449
c-7.79785 29.791 17.3281 62.5898 56.1045 73.2236c8.29102 2.27637 16.5371 3.3584 24.4561 3.3584c16.2881 0 31.1709 -4.58105 42.2012 -12.7139v241.968c0 5.28418 4.27539 9.55176 9.55273 9.55176c5.27637 0 9.55176 -4.26758 9.55176 -9.55176v-11.2949
l0.0976562 -0.0195312c-0.0302734 -0.21582 -2.97852 -21.5146 31.8359 -49.4404c37.5742 -30.1719 54.0371 -51.6025 54.0371 -130.29zM86.4189 39.9326c28.2021 7.73145 47.748 30.6182 42.6953 49.9746c-3.71582 14.21 -20.3584 23.7627 -41.4033 23.7627
c-6.41016 0 -12.9326 -0.894531 -19.3955 -2.67871c-28.209 -7.73145 -47.7461 -30.6113 -42.6787 -49.9619c3.70801 -14.2236 20.3418 -23.7754 41.3955 -23.7754c6.40137 0 12.9258 0.893555 19.3867 2.67871z" />
    <glyph glyph-name="uniF126" unicode="&#xf126;" 
d="M256 448c141.382 0 256 -114.618 256 -256s-114.618 -256 -256 -256s-256 114.618 -256 256s114.618 256 256 256zM256 -40.7275c128.535 0 232.728 104.192 232.728 232.728s-104.192 232.728 -232.728 232.728c-128.523 0 -232.728 -104.192 -232.728 -232.728
s104.204 -232.728 232.728 -232.728zM279.436 105.495h-23.459v144.175l-32.7441 -27.3691l-13.9287 16.373l49.0938 39.8311h21.0498v-173.01h-0.0117188z" />
    <glyph glyph-name="uniF158" unicode="&#xf158;" 
d="M272.957 169.186c13.9062 -7.72168 32.9424 -18.3193 32.6865 -33.1885l-0.0917969 -5.01758h-121.129l-0.0927734 5.01758c-0.276367 14.8691 18.7705 25.457 32.666 33.1777c3.68652 2.05859 8.54004 4.76172 10.5371 6.35938
c-0.44043 0.74707 -1.30078 1.77148 -2.14062 2.78516c-3.31738 3.96289 -8.30469 9.98438 -10.373 22.0674c-0.501953 2.89746 -4.55664 28.877 7.77246 43.5195c5.35547 6.36914 12.8203 9.58496 22.1895 9.58496c9.35938 0 16.835 -3.22559 22.1797 -9.58496
c12.3291 -14.6328 8.28418 -40.6221 7.7832 -43.5303c-2.06836 -12.0625 -7.07617 -18.084 -10.3838 -22.0566c-0.829102 -1.00391 -1.68945 -2.03809 -2.12988 -2.78516c1.99707 -1.59766 6.85059 -4.30078 10.5264 -6.34863zM194.56 140.861h97.2598
c-4.39258 7.10645 -14.9707 14.4492 -23.8594 19.3848c-10.25 5.70312 -15.8926 8.83691 -16.0967 14.1006c-0.164062 4.53613 2.375 7.58691 4.8125 10.5361c2.91895 3.50293 6.55371 7.875 8.15137 17.2441c1.43359 8.24316 2.08887 26.1846 -5.50977 35.2051
c-3.3584 4.00391 -8.05859 5.93945 -14.3457 5.93945c-6.29785 0 -10.9873 -1.93555 -14.3564 -5.93945c-7.59863 -9.03125 -6.93262 -26.9619 -5.50977 -35.1943c1.6084 -9.37988 5.24316 -13.752 8.15137 -17.2549c2.45801 -2.94922 4.9873 -6 4.82324 -10.5361
c-0.194336 -5.26367 -5.84668 -8.39746 -16.1074 -14.1006c-8.87793 -4.94629 -23.0195 -12.2881 -27.4131 -19.3848zM293.059 180.102c23.1934 -13.1182 34.6211 -29.3789 34.6211 -49.4805h-10.2393c0 16.1387 -9.7998 29.5117 -29.9424 40.8584
c-2.86719 1.88379 -5.19141 3.64453 -5.75488 6.625c-0.542969 2.95898 0.952148 5.0791 2.28418 6.95312c1.58691 2.23242 4.24902 5.97949 6.19434 14.2539c4.06543 17.2646 -0.541992 30.4023 -5.73438 36.4033c-2.375 2.75391 -4.12598 3.25586 -4.50488 3.21484
l-4.63867 9.10352c3.95215 2.08887 8.7959 1.30078 13.3018 -2.18066c9.40039 -7.25 17.0186 -25.6309 11.54 -48.8857c-2.15039 -9.10352 -5.1709 -14.0293 -7.12695 -16.8652z" />
    <glyph glyph-name="uniF1C8" unicode="&#xf1c8;" 
d="M510.033 -40.5791v0l-21.3936 -21.3936l-150.06 149.999c-37.1602 -32.1357 -84.002 -49.8379 -133.659 -49.8379c-54.7705 0 -106.213 21.333 -144.915 60.0352c-38.6729 38.6729 -60.0059 90.1152 -60.0059 144.855s21.333 106.213 60.0059 144.915
c38.7021 38.6729 90.1445 60.0059 144.915 60.0059c54.7402 0 106.213 -21.333 144.885 -60.0361c38.7031 -38.7021 60.0664 -90.1445 60.0664 -144.854c0 -49.6875 -17.7324 -96.499 -49.8984 -133.689zM81.3994 119.618v0
c32.9834 -33.0137 76.8301 -51.1699 123.521 -51.1699c46.6611 0 90.5078 18.1562 123.491 51.1699c33.0137 32.9834 51.2002 76.8301 51.2002 123.491c0 46.6309 -18.1865 90.4775 -51.2002 123.461c-32.9834 32.9834 -76.8301 51.1699 -123.491 51.1699
c-46.6914 0 -90.5381 -18.1865 -123.521 -51.1396c-32.9531 -32.9834 -51.1094 -76.8604 -51.1094 -123.521s18.1562 -90.5078 51.1094 -123.461z" />
    <glyph glyph-name="uniF196" unicode="&#xf196;" 
d="M447.045 373.492h-382.09c-10.5303 0 -19.1045 -8.57422 -19.1045 -19.1045v-267.462c0 -10.5312 8.57422 -19.1045 19.1045 -19.1045h66.8662v-42.2305l68.6191 42.2305h246.604c10.5303 0 19.1045 8.57324 19.1045 19.1045v267.462
c0 10.5303 -8.57422 19.1045 -19.1045 19.1045zM447.045 392.597v0c21.1045 0 38.209 -17.1035 38.209 -38.209v-267.462c0 -21.1055 -17.1045 -38.209 -38.209 -38.209h-241.194l-93.1338 -57.3135v57.3135h-47.7617c-21.1045 0 -38.209 17.1035 -38.209 38.209v267.462
c0 21.1055 17.1045 38.209 38.209 38.209h382.09zM112.717 277.97v19.1045h286.566v-19.1045h-286.566zM112.717 144.239v19.1045h286.566v-19.1045h-286.566zM112.717 211.104v19.1045h286.566v-19.1045h-286.566z" />
    <glyph glyph-name="uniF1F1" unicode="&#xf1f1;" 
d="M232.796 349.292c7.75195 18.9834 7.03223 37.9912 9.83984 77.375c101.303 -0.696289 72.4551 -97.7744 62.6152 -123.814c-9.86328 -26.0156 -12.6719 -64.7031 -12.6719 -64.7031s58.3916 -0.695312 103.414 -2.11133c45 -1.39258 55.5596 -59.0869 43.6074 -78.0713
c11.2559 -11.2559 14.0645 -59.8066 -9.83984 -72.4541c3.50391 -30.2637 -12.6719 -52.7754 -30.2627 -53.4717c3.52734 -7.72754 -12.6484 -52.0547 -25.3203 -56.9746c-12.6475 -4.91992 -100.582 -14.7598 -118.174 -14.7598
c-17.5674 0 -87.2148 37.2715 -93.5508 38.6875c-0.791992 0.167969 -2.42383 0.239258 -4.65527 0.239258c-15.6719 0 -61.4629 -3.76758 -61.4629 -3.76758c-30.96 42.9111 -35.1836 132.238 -30.96 164.613l66.1191 7.03223
c9.16797 7.03125 23.2314 48.5264 48.5508 90.0459c10.5605 17.3037 45 73.127 52.751 92.1348z" />
    <glyph glyph-name="uniF16F" unicode="&#xf16f;" 
d="M384 108.308c32.5771 0 59.0771 -26.5 59.0771 -59.0752c0 -32.5771 -26.5 -59.0762 -59.0771 -59.0762s-59.0771 26.499 -59.0771 59.0762c0 5.11621 0.722656 10.0615 1.9541 14.7988l-151.761 87.5547c-10.7939 -14.2852 -27.8711 -23.5859 -47.1162 -23.5859
c-32.5771 0 -59.0771 26.5 -59.0771 59.0771s26.5 59.0771 59.0771 59.0771c18.2998 0 34.6758 -8.35547 45.5068 -21.4629l155.178 89.5312c-2.39258 6.40723 -3.76172 13.3154 -3.76172 20.5469c0 32.5771 26.5 59.0762 59.0771 59.0762s59.0771 -26.499 59.0771 -59.0762
s-26.5 -59.0771 -59.0771 -59.0771c-18.292 0 -34.6621 8.35352 -45.5068 21.4531l-155.178 -89.5293c2.39258 -6.40039 3.76172 -13.3086 3.76172 -20.5391c0 -6.27832 -1.00879 -12.3232 -2.83008 -18.0166l150.707 -86.9453
c10.6143 15.7754 28.6309 26.1924 49.0459 26.1924zM344.615 334.77c0 -3.63184 0.654297 -7.09375 1.58496 -10.4453c1.80859 -6.51758 5.11426 -12.418 9.73047 -17.1084c7.1543 -7.29199 17.0771 -11.8311 28.0693 -11.8311c21.7227 0 39.3848 17.6621 39.3848 39.3848
s-17.6621 39.3848 -39.3848 39.3848s-39.3848 -17.6621 -39.3848 -39.3848zM128 147.692c11.9609 0 22.5459 5.46094 29.7783 13.9082c4.2832 4.98242 7.46191 10.9531 8.82227 17.6445c0.506836 2.53223 0.78418 5.14551 0.78418 7.83203
c0 3.63086 -0.654297 7.08496 -1.57715 10.4307c-1.80859 6.53223 -5.12207 12.4238 -9.73828 17.123c-7.14648 7.28418 -17.0771 11.8311 -28.0693 11.8311c-21.7227 0 -39.3848 -17.6621 -39.3848 -39.3848s17.6621 -39.3848 39.3848 -39.3848zM384 9.8457
c21.7227 0 39.3867 17.6621 39.3867 39.3848s-17.6621 39.3848 -39.3848 39.3848c-13.1387 0 -24.7002 -6.52344 -31.8623 -16.4229c-3.87695 -5.3623 -6.32324 -11.7393 -7.09277 -18.6475c-0.154297 -1.43945 -0.431641 -2.83691 -0.431641 -4.31445
c0 -21.7227 17.6621 -39.3848 39.3848 -39.3848z" />
    <glyph glyph-name="uniF15F" unicode="&#xf15f;" 
d="M449.358 220.366c4.25488 -1.06055 7.23828 -4.87305 7.24023 -9.25781v-38.209c0 -4.38867 -2.9834 -8.20117 -7.23828 -9.26172l-45.6709 -11.4189c-3.36621 -12.7539 -8.41797 -25.0283 -15.0605 -36.6045l24.1631 -40.2607
c2.25488 -3.75977 1.65625 -8.57422 -1.43262 -11.6709l-27.0156 -27.0234c-3.08887 -3.09668 -7.90137 -3.68652 -11.6709 -1.44043l-40.001 24.0068c-11.6553 -6.78418 -24.0596 -11.9629 -37.0068 -15.4326l-11.2988 -45.1494
c-1.06055 -4.25488 -4.87305 -7.23828 -9.26172 -7.23828h-38.209c-4.38867 0 -8.20898 2.9834 -9.26172 7.23828l-11.2754 45.1494c-12.9629 3.47754 -25.3652 8.64844 -37.0078 15.4326l-40.001 -24.0137c-3.7666 -2.23926 -8.58105 -1.67188 -11.6709 1.43262
l-27.0361 27.0283c-3.08984 3.09766 -3.6875 7.91016 -1.43262 11.6719l24.1631 40.2656c-6.62793 11.5684 -11.6709 23.835 -15.0527 36.6045l-45.6787 11.4189c-4.25488 1.05273 -7.23828 4.87305 -7.23828 9.26172v38.209c0 4.38867 2.9834 8.20898 7.23828 9.26172
l46.1201 11.5293c3.44629 12.5596 8.49219 24.5762 15.0146 35.8438l-24.5664 40.9336c-2.25488 3.75977 -1.65723 8.56641 1.43262 11.6709l27.0361 27.0137c3.1123 3.1123 7.90234 3.67969 11.6709 1.43262l41.1875 -24.7148
c11.1934 6.37305 23.0674 11.2832 35.4336 14.6416l11.6631 46.6416c1.05273 4.25488 4.87305 7.23828 9.26172 7.23828h38.209c4.38867 0 8.20117 -2.9834 9.26172 -7.23047l11.6709 -46.6494c12.3818 -3.3584 24.2529 -8.26855 35.4258 -14.6416l41.21 24.7148
c3.76758 2.25488 8.58203 1.64941 11.6709 -1.43262l27.0137 -27.0293c3.08984 -3.09668 3.6875 -7.90918 1.43262 -11.6709l-24.5586 -40.9248c6.51465 -11.2627 11.5586 -23.2773 15.0146 -35.8369zM334.806 192c0 43.4473 -35.3584 78.8057 -78.8057 78.8057
s-78.8057 -35.3584 -78.8057 -78.8057s35.3584 -78.8057 78.8057 -78.8057s78.8057 35.3584 78.8057 78.8057z" />
    <glyph glyph-name="uniF112" unicode="&#xf112;" 
d="M0 223.937h414.209v-316.754h-414.209v316.754zM389.871 -68.4531h-0.0263672v268.026h-365.481v-268.026h365.508zM328.948 211.742h-24.3633v85.6221c0 53.751 -43.7041 97.4805 -97.4805 97.4805c-53.7246 0 -97.4551 -43.7295 -97.4551 -97.4805v-85.6221h-24.3633
v85.6221c0 67.1885 54.6562 121.845 121.818 121.845c67.1875 0 121.844 -54.6562 121.844 -121.845v-85.6221z" />
    <glyph glyph-name="uniF116" unicode="&#xf116;" 
d="M95.8574 304.284c-1.84863 0 -3.74023 0.341797 -5.5752 1.08105c-7.69336 3.08594 -11.4482 11.8477 -8.37598 19.5703c29.7949 74.7656 98.1328 123.064 174.094 123.064s144.299 -48.2988 174.08 -123.064c3.08594 -7.72266 -0.668945 -16.498 -8.37695 -19.5703
c-7.69434 -3.07227 -16.4551 0.668945 -19.541 8.3916c-25.2021 63.2461 -82.5742 104.106 -146.162 104.106c-63.6016 0 -120.975 -40.8604 -146.162 -104.106c-2.36035 -5.88867 -8.00684 -9.47266 -13.9805 -9.47266zM118.599 79.4453
c0 -16.3555 -13.2402 -29.625 -29.5674 -29.625v0c-16.3271 0 -29.5684 13.2695 -29.5684 29.625v177.777c0 16.3564 13.2412 29.625 29.5684 29.625v0c16.3125 0 29.5674 -13.2686 29.5674 -29.625v-177.777zM452.522 79.4453
c0 -16.3555 -13.2402 -29.625 -29.5674 -29.625v0c-16.3271 0 -29.5684 13.2695 -29.5684 29.625v177.777c0 16.3564 13.2412 29.625 29.5684 29.625v0c16.3125 0 29.5674 -13.2686 29.5674 -29.625v-177.777zM512 168.334c0 -36.7783 -17.3516 -67.9111 -41.2588 -78.4639
v156.942c23.9072 -10.5527 41.2588 -41.6855 41.2588 -78.4785zM0 168.334c0 36.793 17.3516 67.9258 41.2588 78.4785v-156.942c-23.9072 10.5527 -41.2588 41.6855 -41.2588 78.4639z" />
    <glyph glyph-name="uniF187" unicode="&#xf187;" 
d="M289.392 448c122.939 0 222.608 -99.6621 222.608 -222.608c0 -122.932 -99.6689 -222.609 -222.608 -222.609c-80.1035 0 -150.156 42.4961 -189.355 106.002l19.6338 11.7451c35.2705 -56.834 98.0527 -94.9111 169.722 -94.9111
c110.155 0 199.773 89.624 199.773 199.773c0 110.164 -89.6182 199.773 -199.773 199.773c-71.7559 0 -134.592 -38.1484 -169.826 -95.1143l-19.6338 11.8008c39.1895 63.5928 109.27 106.148 189.46 106.148zM22.2607 309.295v-83.9033v-83.9746l139.956 83.7559z
M0 348.643v0l205.494 -123.512l-205.494 -122.982v123.243v123.251zM263.295 235.436h5.0957c2.86914 0 5.71191 0.250977 8.54785 0.730469c2.80078 0.478516 5.3916 1.35547 7.72266 2.62402c2.33887 1.28906 4.22461 3.00293 5.67871 5.18457
c1.41797 2.1748 2.16602 5.02637 2.16602 8.53906c0 2.54004 -0.505859 4.84473 -1.46094 6.86816c-0.957031 2.00977 -2.24316 3.71289 -3.91309 5.08887c-1.65137 1.39062 -3.56641 2.44336 -5.74805 3.19141c-2.16602 0.739258 -4.4248 1.13086 -6.77344 1.13086
c-4.69531 0 -8.56641 -1.34668 -11.6182 -4c-3.09668 -2.65137 -5.23535 -6.17285 -6.40039 -10.5225l-18.0264 4.62598c0.957031 3.82422 2.58203 7.3125 4.84375 10.4512c2.29492 3.12109 5.05957 5.83496 8.32129 8.12988
c3.26074 2.28613 6.87891 4.06055 10.9209 5.34668c4.04297 1.26855 8.30371 1.90332 12.7734 1.90332c4.87695 0 9.53027 -0.678711 13.9307 -1.99219c4.42578 -1.32227 8.29688 -3.29492 11.6006 -5.89453c3.32129 -2.62012 5.92969 -5.83496 7.83594 -9.66113
c1.89648 -3.82715 2.86035 -8.28809 2.86035 -13.3926c0 -6.06152 -1.86133 -11.4688 -5.51465 -16.1904c-3.65234 -4.73047 -8.57422 -7.85156 -14.7656 -9.33789v-0.314453c6.9209 -1.39062 12.54 -4.50293 16.8516 -9.31348
c4.29688 -4.8623 6.45117 -10.7744 6.45117 -17.8086c0 -5.86133 -1.13086 -10.9482 -3.41699 -15.3135c-2.25293 -4.35645 -5.25977 -7.97363 -9 -10.8438c-3.73926 -2.86914 -7.96484 -5.02637 -12.626 -6.46875c-4.67969 -1.42676 -9.3916 -2.13867 -14.1914 -2.13867
c-4.76562 0 -9.31348 0.496094 -13.5742 1.51367c-4.26074 0.999023 -8.13867 2.59082 -11.6963 4.69434c-3.58203 2.13965 -6.72949 4.89551 -9.43457 8.3125c-2.69531 3.4082 -4.80762 7.42578 -6.29492 12.1094l17.8535 5.60352
c1.37305 -4.47852 3.96387 -8.26074 7.74609 -11.3398c3.76465 -3.08789 8.7041 -4.61719 14.7568 -4.61719c2.45996 0 4.92188 0.323242 7.39062 1.01758c2.49609 0.694336 4.74805 1.7832 6.71387 3.2793c1.9834 1.4873 3.54883 3.39941 4.78223 5.73828
c1.22656 2.33105 1.86035 5.2002 1.86035 8.6084c0 3.62695 -0.894531 6.67871 -2.63574 9.19141c-1.74707 2.51367 -3.99121 4.48828 -6.63379 5.92188c-2.63574 1.44238 -5.60059 2.46875 -8.84375 3.09668c-3.26172 0.642578 -6.34863 0.948242 -9.33008 0.948242
h-4.78125v15.2949h-0.0244141v0.00488281zM407.322 225.392c0 -9.14062 -0.870117 -17.3838 -2.62598 -24.7295c-1.73926 -7.33105 -4.30566 -13.5391 -7.65332 -18.6621c-3.35742 -5.10352 -7.49512 -9.04199 -12.4355 -11.7998
c-4.97266 -2.76465 -10.6182 -4.13867 -17 -4.13867c-6.38281 0 -12.0615 1.37402 -17.0703 4.13867c-4.99023 2.75586 -9.19141 6.69629 -12.5811 11.7998c-3.41797 5.12305 -6 11.3311 -7.76465 18.6621c-1.75684 7.34766 -2.61816 15.5889 -2.61816 24.7295
c0 9.15527 0.870117 17.3896 2.61816 24.7295c1.76465 7.33008 4.34668 13.5566 7.76465 18.6699c3.38965 5.0957 7.6084 9.03613 12.5811 11.792c5.00879 2.77344 10.6875 4.14648 17.0703 4.14648c6.38184 0 12.043 -1.38184 17 -4.14648
c4.94043 -2.75586 9.07812 -6.69629 12.4355 -11.792c3.34766 -5.11328 5.91211 -11.3398 7.65332 -18.6699c1.75586 -7.33984 2.62598 -15.5742 2.62598 -24.7295zM387.695 225.392c0 3.94629 -0.217773 8.39844 -0.694336 13.3984
c-0.469727 5.00195 -1.43652 9.73242 -2.87012 14.2021c-1.43555 4.46191 -3.50293 8.20117 -6.14844 11.2441c-2.64453 3.03223 -6.1123 4.55664 -10.373 4.55664c-4.34766 0 -7.86035 -1.52441 -10.5225 -4.55664c-2.65137 -3.04297 -4.69531 -6.78223 -6.13965 -11.2441
c-1.42676 -4.46973 -2.42676 -9.2002 -2.95605 -14.2021c-0.512695 -4.98828 -0.78418 -9.44922 -0.78418 -13.3984c0 -3.92285 0.269531 -8.39258 0.78418 -13.3926c0.529297 -5.00879 1.53125 -9.6875 2.95605 -14.0508
c1.44238 -4.34766 3.48633 -8.06055 6.13965 -11.0703c2.63574 -3.02539 6.17285 -4.53906 10.5225 -4.53906c4.26074 0 7.73145 1.51367 10.373 4.53906c2.64551 3.00977 4.71289 6.72266 6.14844 11.0703c1.43652 4.36523 2.40039 9.04199 2.87012 14.0508
c0.476562 5 0.694336 9.46973 0.694336 13.3926z" />
    <glyph glyph-name="uniF166" unicode="&#xf166;" 
d="M469.351 448v0c23.5488 0 42.6494 -19.126 42.6494 -42.6885v-298.649c0 -23.5361 -19.1006 -42.6621 -42.6494 -42.6621h-269.351l-104 -64v64h-53.3506c-23.5488 0 -42.6494 19.126 -42.6494 42.6621v298.649c0 23.5625 19.1006 42.6885 42.6494 42.6885h426.701z" />
    <glyph glyph-name="uniF121" unicode="&#xf121;" 
d="M0 151.729v78.7686h512v-78.7686h-512zM216.615 -64.8857v512h78.7686v-512h-78.7686z" />
    <glyph glyph-name="uniF12A" unicode="&#xf12a;" 
d="M256 448c141.382 0 256 -114.618 256 -256s-114.618 -256 -256 -256s-256 114.618 -256 256s114.618 256 256 256zM256 -40.7275c128.535 0 232.728 104.192 232.728 232.728s-104.192 232.728 -232.728 232.728c-128.523 0 -232.728 -104.192 -232.728 -232.728
s104.204 -232.728 232.728 -232.728zM306.467 259.677h-71.3545l-1.46582 -45.2422c3.24707 1.15234 6.87695 1.97852 10.8682 2.4668c4.00293 0.500977 7.78516 0.745117 11.3691 0.745117c8.32031 0 16.0117 -1.26855 23.0977 -3.79297
c7.0752 -2.53711 13.1963 -6.15625 18.3281 -10.9033c5.11914 -4.73633 9.15723 -10.4844 12.0898 -17.2686c2.93262 -6.77246 4.39844 -14.3242 4.39844 -22.6445c0 -9.13477 -1.55957 -17.3848 -4.64258 -24.7393c-3.0957 -7.3418 -7.31934 -13.5908 -12.707 -18.7227
c-5.37598 -5.14355 -11.7295 -9.14648 -19.0605 -11.9971s-15.3135 -4.28223 -23.959 -4.28223c-13.5215 0 -24.9258 3.1416 -34.1992 9.41406c-9.27441 6.27148 -16.291 14.6963 -21.0273 25.2861l21.5156 8.55273c2.75781 -7.00586 7.12109 -12.626 13.0674 -16.8613
c5.94629 -4.23633 12.835 -6.35352 20.6436 -6.35352c5.06152 0 9.78613 0.895508 14.1846 2.6875c4.39844 1.78027 8.21484 4.30566 11.4854 7.56445c3.24609 3.25781 5.81738 7.16797 7.69141 11.7402c1.87305 4.56152 2.80371 9.60059 2.80371 15.1514
c0 6.51562 -1.09375 12.1709 -3.29297 16.9766c-2.19922 4.80664 -5.17773 8.7627 -8.9248 11.8574c-3.74707 3.0957 -8.05273 5.37695 -12.9512 6.84277c-4.8877 1.46582 -10.0186 2.19922 -15.3945 2.19922c-6.5166 0 -13.1963 -0.896484 -20.0381 -2.68848
c-6.84277 -1.78027 -12.9512 -4.07227 -18.3271 -6.8418l2.44336 91.8809h93.3467v-21.0273h0.0117188z" />
    <glyph glyph-name="uniF186" unicode="&#xf186;" 
d="M289.392 448c122.939 0 222.608 -99.6621 222.608 -222.608c0 -122.932 -99.6689 -222.609 -222.608 -222.609c-80.1035 0 -150.156 42.4961 -189.355 106.002l19.6338 11.7451c35.2705 -56.834 98.0527 -94.9111 169.722 -94.9111
c110.155 0 199.773 89.624 199.773 199.773c0 110.164 -89.6182 199.773 -199.773 199.773c-71.7559 0 -134.592 -38.1484 -169.826 -95.1143l-19.6338 11.8008c39.1895 63.5928 109.27 106.148 189.46 106.148zM0 348.643v0l205.494 -123.512l-205.494 -122.982v123.243
v123.251zM263.295 235.436h5.0957c2.86914 0 5.71191 0.250977 8.54785 0.730469c2.80078 0.478516 5.3916 1.35547 7.72266 2.62402c2.33887 1.28906 4.22461 3.00293 5.67871 5.18457c1.41797 2.1748 2.16602 5.02637 2.16602 8.53906
c0 2.54004 -0.505859 4.84473 -1.46094 6.86816c-0.957031 2.00977 -2.24316 3.71289 -3.91309 5.08887c-1.65137 1.39062 -3.56641 2.44336 -5.74805 3.19141c-2.16602 0.739258 -4.4248 1.13086 -6.77344 1.13086c-4.69531 0 -8.56641 -1.34668 -11.6182 -4
c-3.09668 -2.65137 -5.23535 -6.17285 -6.40039 -10.5225l-18.0264 4.62598c0.957031 3.82422 2.58203 7.3125 4.84375 10.4512c2.29492 3.12109 5.05957 5.83496 8.32129 8.12988c3.26074 2.28613 6.87891 4.06055 10.9209 5.34668
c4.04297 1.26855 8.30371 1.90332 12.7734 1.90332c4.87695 0 9.53027 -0.678711 13.9307 -1.99219c4.42578 -1.32227 8.29688 -3.29492 11.6006 -5.89453c3.32129 -2.62012 5.92969 -5.83496 7.83594 -9.66113c1.89648 -3.82715 2.86035 -8.28809 2.86035 -13.3926
c0 -6.06152 -1.86133 -11.4688 -5.51465 -16.1904c-3.65234 -4.73047 -8.57422 -7.85156 -14.7656 -9.33789v-0.314453c6.9209 -1.39062 12.54 -4.50293 16.8516 -9.31348c4.29688 -4.8623 6.45117 -10.7744 6.45117 -17.8086
c0 -5.86133 -1.13086 -10.9482 -3.41699 -15.3135c-2.25293 -4.35645 -5.25977 -7.97363 -9 -10.8438c-3.73926 -2.86914 -7.96484 -5.02637 -12.626 -6.46875c-4.67969 -1.42676 -9.3916 -2.13867 -14.1914 -2.13867c-4.76562 0 -9.31348 0.496094 -13.5742 1.51367
c-4.26074 0.999023 -8.13867 2.59082 -11.6963 4.69434c-3.58203 2.13965 -6.72949 4.89551 -9.43457 8.3125c-2.69531 3.4082 -4.80762 7.42578 -6.29492 12.1094l17.8535 5.60352c1.37305 -4.47852 3.96387 -8.26074 7.74609 -11.3398
c3.76465 -3.08789 8.7041 -4.61719 14.7568 -4.61719c2.45996 0 4.92188 0.323242 7.39062 1.01758c2.49609 0.694336 4.74805 1.7832 6.71387 3.2793c1.9834 1.4873 3.54883 3.39941 4.78223 5.73828c1.22656 2.33105 1.86035 5.2002 1.86035 8.6084
c0 3.62695 -0.894531 6.67871 -2.63574 9.19141c-1.74707 2.51367 -3.99121 4.48828 -6.63379 5.92188c-2.63574 1.44238 -5.60059 2.46875 -8.84375 3.09668c-3.26172 0.642578 -6.34863 0.948242 -9.33008 0.948242h-4.78125v15.2949h-0.0244141v0.00488281z
M407.322 225.392c0 -9.14062 -0.870117 -17.3838 -2.62598 -24.7295c-1.73926 -7.33105 -4.30566 -13.5391 -7.65332 -18.6621c-3.35742 -5.10352 -7.49512 -9.04199 -12.4355 -11.7998c-4.97266 -2.76465 -10.6182 -4.13867 -17 -4.13867
c-6.38281 0 -12.0615 1.37402 -17.0703 4.13867c-4.99023 2.75586 -9.19141 6.69629 -12.5811 11.7998c-3.41797 5.12305 -6 11.3311 -7.76465 18.6621c-1.75684 7.34766 -2.61816 15.5889 -2.61816 24.7295c0 9.15527 0.870117 17.3896 2.61816 24.7295
c1.76465 7.33008 4.34668 13.5566 7.76465 18.6699c3.38965 5.0957 7.6084 9.03613 12.5811 11.792c5.00879 2.77344 10.6875 4.14648 17.0703 4.14648c6.38184 0 12.043 -1.38184 17 -4.14648c4.94043 -2.75586 9.07812 -6.69629 12.4355 -11.792
c3.34766 -5.11328 5.91211 -11.3398 7.65332 -18.6699c1.75586 -7.33984 2.62598 -15.5742 2.62598 -24.7295zM387.695 225.392c0 3.94629 -0.217773 8.39844 -0.694336 13.3984c-0.469727 5.00195 -1.43652 9.73242 -2.87012 14.2021
c-1.43555 4.46191 -3.50293 8.20117 -6.14844 11.2441c-2.64453 3.03223 -6.1123 4.55664 -10.373 4.55664c-4.34766 0 -7.86035 -1.52441 -10.5225 -4.55664c-2.65137 -3.04297 -4.69531 -6.78223 -6.13965 -11.2441c-1.42676 -4.46973 -2.42676 -9.2002 -2.95605 -14.2021
c-0.512695 -4.98828 -0.78418 -9.44922 -0.78418 -13.3984c0 -3.92285 0.269531 -8.39258 0.78418 -13.3926c0.529297 -5.00879 1.53125 -9.6875 2.95605 -14.0508c1.44238 -4.34766 3.48633 -8.06055 6.13965 -11.0703c2.63574 -3.02539 6.17285 -4.53906 10.5225 -4.53906
c4.26074 0 7.73145 1.51367 10.373 4.53906c2.64551 3.00977 4.71289 6.72266 6.14844 11.0703c1.43652 4.36523 2.40039 9.04199 2.87012 14.0508c0.476562 5 0.694336 9.46973 0.694336 13.3926z" />
    <glyph glyph-name="uniF1A9" unicode="&#xf1a9;" 
d="M15.5156 339.364v-294.731l163.042 147.375zM0 374.303v0l201.697 -182.293l-201.697 -182.312v364.605zM496.484 362.667h-46.5449v-341.334h46.5449v341.334zM512 378.182v0v-372.363h-77.5762v372.363h77.5762zM232.728 339.364v-294.731l163.042 147.375z
M217.212 374.303v0l201.697 -182.293l-201.697 -182.312v364.605z" />
    <glyph glyph-name="uniF199" unicode="&#xf199;" 
d="M234.985 170.985h-19.1045c0 71.0459 -12.8516 88.0674 -46.8965 115.379c-8.25488 6.62402 -14.7939 13.0391 -19.9697 19.1143v-215.688c0 -0.683594 -0.078125 -1.35059 -0.213867 -1.99414c2.61719 -27.7842 -21.5098 -56.4678 -57.3232 -66.2891
c-8.29102 -2.27734 -16.5361 -3.3584 -24.4473 -3.3584c-29.1045 0 -53.7471 14.6113 -59.8818 38.0449c-7.79785 29.791 17.3516 62.5898 56.1201 73.2236c8.29102 2.27637 16.5361 3.3584 24.4551 3.3584c16.2812 0 31.1602 -4.58008 42.1865 -12.7109v227.585
c-0.0302734 0.917969 -0.0263672 1.75879 0 2.51172v11.8682c0 5.28418 4.27539 9.55176 9.55273 9.55176c5.27637 0 9.55176 -4.26758 9.55176 -9.55176v-11.2949l0.0976562 -0.0195312c-0.0302734 -0.21582 -2.97852 -21.5146 31.8359 -49.4404
c37.5898 -30.1562 54.0371 -51.6025 54.0371 -130.29zM286.567 170.985v19.1045h225.433v-19.1045h-225.433zM215.881 75.4629v19.1045h296.119v-19.1045h-296.119zM261.731 285.612h250.269v-19.1045h-240.717z" />
    <glyph glyph-name="uniF1D7" unicode="&#xf1d7;" 
d="M135.504 -32c-26.5176 0 -53.0342 10.0928 -73.2158 30.3008c-40.3838 40.3945 -40.3838 106.097 0 146.491l87.5947 87.6172c24.4902 24.4756 59.3916 35.0596 93.4189 28.3594c20.1172 -3.99023 38.4639 -13.7852 53.0342 -28.3594
c4.16016 -4.16113 4.16016 -10.9258 0 -15.0869c-4.16016 -4.18262 -10.9229 -4.18262 -15.083 0c-11.5625 11.5654 -26.1328 19.3545 -42.1113 22.5127c-26.9658 5.35645 -54.7412 -3.07324 -74.1758 -22.5127l-87.5947 -87.6172
c-32.0645 -32.0723 -32.0645 -84.2451 0 -116.317c32.0635 -32.0938 84.2451 -32.0723 116.287 0l47.2754 47.2871c4.18066 4.16113 10.9229 4.16113 15.082 0c4.18164 -4.16113 4.18164 -10.9258 0 -15.0869l-47.2529 -47.2871
c-20.2031 -20.208 -46.7197 -30.3008 -73.2588 -30.3008zM288.827 121.255c-6.7207 0 -13.4834 0.662109 -20.2246 1.98438c-20.1172 3.99121 -38.4639 13.8066 -53.0342 28.3809c-4.16016 4.16113 -4.16016 10.9043 0 15.0869c4.15918 4.16113 10.9219 4.16113 15.082 0
c11.5625 -11.5869 26.1338 -19.3545 42.0908 -22.5127c27.0078 -5.37695 54.7412 3.05176 74.1973 22.5127l87.5947 87.5957c32.0645 32.0723 32.0645 84.2666 0 116.339c-32.0635 32.0723 -84.2451 32.0723 -116.31 0l-47.2744 -47.2871
c-4.16016 -4.18164 -10.9014 -4.18164 -15.083 0c-4.15918 4.16113 -4.15918 10.9043 0 15.0869l47.2754 47.2871c40.3838 40.3516 106.111 40.373 146.475 0c40.3838 -40.3945 40.3838 -106.118 0 -146.513l-87.5947 -87.5957
c-19.627 -19.6523 -45.9951 -30.3652 -73.1943 -30.3652z" />
    <glyph glyph-name="uniF1D6" unicode="&#xf1d6;" 
d="M141.589 -42.667c-32.1279 0 -62.3145 12.502 -85.0342 35.2217s-35.2217 52.9062 -35.2217 85.0342c0 32.1289 12.502 62.3369 35.2217 85.0352l83.2217 83.2002c28.416 28.4375 69.0127 40.7676 108.458 32.917c17.2158 -3.3916 33.1738 -10.3682 47.3818 -20.7363
c14.2715 -10.4316 17.4082 -30.4209 6.97559 -44.7139c-10.4102 -14.2939 -30.4424 -17.4082 -44.7148 -6.97656c-6.61328 4.82129 -14.0371 8.06445 -22.0586 9.66406c-18.4746 3.66992 -37.5039 -2.09082 -50.7939 -15.4023l-83.2002 -83.2002
c-10.6455 -10.624 -16.4912 -24.7676 -16.4912 -39.7871c0 -15.0186 5.8457 -29.1406 16.4912 -39.7646c21.248 -21.2695 58.3037 -21.291 79.5518 0l39.4238 39.4023c12.4805 12.501 32.7471 12.501 45.248 0c12.502 -12.4795 12.502 -32.7461 0 -45.248l-39.4238 -39.4238
c-22.6982 -22.7197 -52.9062 -35.2217 -85.0352 -35.2217zM287.274 102.934c-7.80762 0 -15.6797 0.767578 -23.5088 2.3252c-17.2158 3.3916 -33.1738 10.3682 -47.3818 20.7363c-14.2715 10.4316 -17.4082 30.4209 -6.97559 44.7139
c10.4316 14.2725 30.4854 17.3867 44.7148 6.97656c6.61328 -4.82129 14.0371 -8.06445 22.0586 -9.64258c18.4531 -3.64844 37.5039 2.09082 50.7939 15.3809l83.2002 83.2002c10.6455 10.624 16.4912 24.7676 16.4912 39.7871c0 15.0186 -5.8457 29.1621 -16.4912 39.7646
c-21.2266 21.248 -58.2822 21.2695 -79.5518 0.0214844l-39.4238 -39.4238c-12.502 -12.501 -32.7471 -12.501 -45.248 0c-12.502 12.4795 -12.502 32.7676 0 45.248l39.4238 39.4238c22.6982 22.7197 52.9062 35.2217 85.0352 35.2217
c32.1279 0 62.3145 -12.502 85.0342 -35.2217s35.2217 -52.9062 35.2217 -85.0342c0 -32.1289 -12.502 -62.3369 -35.2217 -85.0352l-83.2217 -83.2002c-22.7832 -22.8047 -53.376 -35.2422 -84.9492 -35.2422z" />
    <glyph glyph-name="uniF125" unicode="&#xf125;" 
d="M289.812 245.136v19.3125h222.188v-19.3125h-222.188zM212.531 148.531v19.3223h299.479v-19.3223h-299.479zM231.864 245.136h-19.3232c0 71.8369 -13.0146 89.0635 -47.4375 116.682c-8.35547 6.70605 -14.9619 13.1934 -20.1973 19.333v-218.135
c0 -0.506836 -0.21875 -0.953125 -0.288086 -1.4502c3.03027 -28.2744 -21.4385 -57.6006 -57.8994 -67.6055c-8.37402 -2.30469 -16.7197 -3.39746 -24.7168 -3.39746c-29.4365 0 -54.3623 14.7725 -60.5615 38.4766c-7.8877 30.1221 17.5449 63.2939 56.7461 74.0527
c8.38574 2.30469 16.7305 3.39746 24.7373 3.39746c16.5312 0 31.4932 -4.79785 42.6592 -13.084v231.348c0 0.516602 -0.00976562 1.07324 0 1.54004v12.041c0 5.34473 4.32227 9.66602 9.65723 9.66602s9.66602 -4.32129 9.65625 -9.66602v-11.415l0.0996094 -0.0205078
c-0.0302734 -0.217773 -3.01074 -21.7559 32.1973 -50c38.0098 -30.5098 54.6709 -52.1865 54.6709 -131.763zM265.016 361.053h246.984v-19.3135h-235.838z" />
    </font>
</defs>
</svg>
