<svg width="136" height="19" viewbox="0 0 136 19" xmlns="http://www.w3.org/2000/svg"><g fill="none" fill-rule="evenodd"><path d="m65.46 3.495c-3.592 0-6.504 2.912-6.504 6.505 0 3.592 2.912 6.504 6.504 6.504 3.592 0 6.504-2.912 6.504-6.504 0-3.593-2.912-6.505-6.504-6.505m-40.33 1.463c-1.12-.914-2.55-1.462-4.108-1.462-3.592 0-6.504 2.912-6.504 6.504 0 3.592 2.912 6.504 6.504 6.504 1.558 0 2.988-.548 4.108-1.462v1.058h2.397v-12.2h-2.397v1.058m66.22-1.058v1.058c-1.12-.914-2.55-1.462-4.107-1.462-3.593 0-6.505 2.912-6.505 6.504 0 3.592 2.912 6.504 6.505 6.504 1.557 0 2.987-.548 4.107-1.462v1.058h2.397v-12.2h-2.397m-15.13.774c-1.395.893-2.602 2.471-2.602 5.271v6.155h2.602v-6.155c0-4.047 4.171-3.826 4.171-3.826v-2.597-.004c0 0-2.261-.066-4.171 1.156m-36.35.123c-1.087-.817-2.438-1.301-3.902-1.301-1.465 0-2.816.484-3.903 1.301-1.58 1.187-2.602 3.076-2.602 5.203v6.1h2.602v-6.1c0-2.151 1.751-3.902 3.903-3.902 2.151 0 3.902 1.751 3.902 3.902v6.1h2.602v-6.1c0-2.127-1.022-4.02-2.602-5.203m14.948-3.599v3.76c-1.12-.914-2.55-1.462-4.107-1.462-3.593 0-6.505 2.912-6.505 6.504 0 3.592 2.912 6.504 6.505 6.504 1.557 0 2.987-.548 4.107-1.462v1.058h2.397v-16.1h-1.198c-.662 0-1.199.536-1.199 1.198m-48.32 2.298c-1.558 0-2.988.548-4.108 1.462v-1.058h-2.397v16.1h1.198c.662 0 1.199-.536 1.199-1.198v-3.76c1.12.914 2.55 1.462 4.108 1.462 3.592 0 6.504-2.912 6.504-6.504 0-3.592-2.912-6.504-6.504-6.504m-.145 10.551c-2.232 0-4.047-1.816-4.047-4.047 0-2.231 1.815-4.047 4.047-4.047 2.232 0 4.047 1.816 4.047 4.047 0 2.231-1.815 4.047-4.047 4.047m44.502 0c-2.232 0-4.047-1.816-4.047-4.047 0-2.231 1.815-4.047 4.047-4.047 2.232 0 4.047 1.816 4.047 4.047 0 2.231-1.815 4.047-4.047 4.047m36.529 0c-2.232 0-4.047-1.815-4.047-4.047 0-2.231 1.815-4.047 4.047-4.047 2.232 0 4.047 1.816 4.047 4.047 0 2.232-1.815 4.047-4.047 4.047m-66.22 0c-2.232 0-4.047-1.815-4.047-4.047 0-2.231 1.815-4.047 4.047-4.047 2.232 0 4.047 1.816 4.047 4.047 0 2.232-1.815 4.047-4.047 4.047m44.29-.145c-2.152 0-3.902-1.751-3.902-3.902 0-2.152 1.75-3.903 3.902-3.903 2.152 0 3.903 1.751 3.903 3.903 0 2.151-1.751 3.902-3.903 3.902" fill="#fff"/></g></svg>